<?xml version="1.0" standalone="no"?>
<!DOCTYPE svg PUBLIC "-//W3C//DTD SVG 1.1//EN" "http://www.w3.org/Graphics/SVG/1.1/DTD/svg11.dtd" >
<svg xmlns="http://www.w3.org/2000/svg" xmlns:xlink="http://www.w3.org/1999/xlink" version="1.1">
<metadata>
Created by FontForge 20170731 at Wed Sep 20 00:59:26 2017
 By Aleksey,,,
Copyright 2015 Google Inc. All Rights Reserved.
</metadata>
<defs>
<font id="NotoSans-SemiCondensedBlackItalic" horiz-adv-x="0" >
  <font-face 
    font-family="Noto Sans SemCond Blk"
    font-weight="900"
    font-style="italic"
    font-stretch="semi-condensed"
    units-per-em="1000"
    panose-1="2 11 10 2 4 5 4 9 2 4"
    ascent="800"
    descent="-200"
    x-height="553"
    cap-height="714"
    bbox="-609 -389 2771 1121"
    underline-thickness="50"
    underline-position="-175"
    slope="-12"
    unicode-range="U+000D-FFFD"
  />
<missing-glyph horiz-adv-x="593" 
d="M100 0v714h410v-714h-410zM151 51h309v612h-309v-612z" />
    <glyph glyph-name="f_f" unicode="ff" horiz-adv-x="701" 
d="M-14 -240q-23 0 -47.5 3t-43.5 9v145q12 -4 27.5 -6.5t27.5 -2.5q34 0 49.5 17t21.5 46l94 443h-71l19 90l82 46l8 35q17 79 62 129.5t133 50.5q35 0 69.5 -7.5t61.5 -20.5l-50 -126q-28 15 -55 15q-18 0 -28.5 -11t-14.5 -27l-8 -35h150l8 32q17 79 62 129.5t133 50.5
q35 0 69.5 -7.5t61.5 -20.5l-50 -126q-28 15 -55 15q-18 0 -28.5 -11t-14.5 -27l-8 -35h95l-30 -139h-94l-100 -467q-13 -57 -36.5 -99t-65 -65t-106.5 -23q-23 0 -47.5 3t-43.5 9v145q12 -4 27.5 -6.5t27.5 -2.5q34 0 49.5 17t21.5 46l94 443h-149l-100 -467
q-12 -57 -36 -99t-65.5 -65t-106.5 -23z" />
    <glyph glyph-name="f_i" unicode="fi" horiz-adv-x="669" 
d="M-14 -240q-23 0 -47.5 3t-43.5 9v145q12 -4 27.5 -6.5t27.5 -2.5q34 0 49.5 17t21.5 46l94 443h-71l19 90l82 46l8 35q17 79 62 129.5t133 50.5q35 0 69.5 -7.5t61.5 -20.5l-50 -126q-28 15 -55 15q-18 0 -28.5 -11t-14.5 -27l-8 -35h95l-30 -139h-94l-100 -467
q-12 -57 -36 -99t-65.5 -65t-106.5 -23zM599 606q-38 0 -62 15.5t-24 50.5q0 45 27 75t80 30q37 0 61.5 -15.5t24.5 -50.5q0 -46 -27.5 -75.5t-79.5 -29.5zM374 0l117 553h179l-118 -553h-178z" />
    <glyph glyph-name="f_l" unicode="fl" horiz-adv-x="669" 
d="M-14 -240q-23 0 -47.5 3t-43.5 9v145q12 -4 27.5 -6.5t27.5 -2.5q34 0 49.5 17t21.5 46l94 443h-71l19 90l82 46l8 35q17 79 62 129.5t133 50.5q35 0 69.5 -7.5t61.5 -20.5l-50 -126q-28 15 -55 15q-18 0 -28.5 -11t-14.5 -27l-8 -35h95l-30 -139h-94l-100 -467
q-12 -57 -36 -99t-65.5 -65t-106.5 -23zM373 0l162 760h178l-161 -760h-179z" />
    <glyph glyph-name="f_f_i" unicode="ffi" horiz-adv-x="979" 
d="M909 606q-39 0 -62.5 15.5t-23.5 50.5q0 45 27.5 75t79.5 30q37 0 61.5 -15.5t24.5 -50.5q0 -46 -27.5 -75.5t-79.5 -29.5zM-14 -240q-23 0 -47.5 3t-43.5 9v145q12 -4 27.5 -6.5t27.5 -2.5q34 0 49.5 17t21.5 46l94 443h-71l19 90l82 46l8 35q17 79 62 129.5t133 50.5
q35 0 69.5 -7.5t61.5 -20.5l-50 -126q-28 15 -55 15q-18 0 -28.5 -11t-14.5 -27l-8 -35h150l8 32q17 79 62 129.5t133 50.5q35 0 69.5 -7.5t61.5 -20.5l-50 -126q-28 15 -55 15q-18 0 -28.5 -11t-14.5 -27l-8 -35h95l-30 -139h-94l-100 -467q-13 -57 -36.5 -99t-65 -65
t-106.5 -23q-23 0 -47.5 3t-43.5 9v145q12 -4 27.5 -6.5t27.5 -2.5q34 0 49.5 17t21.5 46l94 443h-149l-100 -467q-12 -57 -36 -99t-65.5 -65t-106.5 -23zM683 0l117 553h179l-118 -553h-178z" />
    <glyph glyph-name="f_f_l" unicode="ffl" horiz-adv-x="977" 
d="M-14 -240q-23 0 -47.5 3t-43.5 9v145q12 -4 27.5 -6.5t27.5 -2.5q34 0 49.5 17t21.5 46l94 443h-71l19 90l82 46l8 35q17 79 62 129.5t133 50.5q35 0 69.5 -7.5t61.5 -20.5l-50 -126q-28 15 -55 15q-18 0 -28.5 -11t-14.5 -27l-8 -35h150l8 32q17 79 62 129.5t133 50.5
q35 0 69.5 -7.5t61.5 -20.5l-50 -126q-28 15 -55 15q-18 0 -28.5 -11t-14.5 -27l-8 -35h95l-30 -139h-94l-100 -467q-13 -57 -36.5 -99t-65 -65t-106.5 -23q-23 0 -47.5 3t-43.5 9v145q12 -4 27.5 -6.5t27.5 -2.5q34 0 49.5 17t21.5 46l94 443h-149l-100 -467
q-12 -57 -36 -99t-65.5 -65t-106.5 -23zM681 0l162 760h178l-161 -760h-179z" />
    <glyph glyph-name=".notdef" horiz-adv-x="593" 
d="M100 0v714h410v-714h-410zM151 51h309v612h-309v-612z" />
    <glyph glyph-name=".null" 
 />
    <glyph glyph-name="nonmarkingreturn" horiz-adv-x="333" 
 />
    <glyph glyph-name="NULL" 
 />
    <glyph glyph-name="NULL" 
 />
    <glyph glyph-name="CR" unicode="&#xd;" horiz-adv-x="228" 
 />
    <glyph glyph-name="space" unicode=" " horiz-adv-x="228" 
 />
    <glyph glyph-name="exclam" unicode="!" horiz-adv-x="288" 
d="M59 252l76 462h199l-123 -462h-152zM88 -12q-47 0 -66.5 20.5t-19.5 51.5q0 47 29 81.5t88 34.5q39 0 60.5 -19t21.5 -54q0 -55 -32.5 -85t-80.5 -30z" />
    <glyph glyph-name="quotedbl" unicode="&#x22;" horiz-adv-x="453" 
d="M303 456l36 258h168l-75 -258h-129zM90 456l36 258h168l-76 -258h-128z" />
    <glyph glyph-name="numbersign" unicode="#" horiz-adv-x="603" 
d="M45 0l57 192h-96l14 115h116l30 99h-103l14 118h123l56 190h127l-56 -190h74l57 190h127l-57 -190h98l-15 -118h-117l-30 -99h106l-14 -115h-126l-57 -192h-126l56 192h-75l-56 -192h-127zM262 307h75l30 99h-75z" />
    <glyph glyph-name="dollar" unicode="$" horiz-adv-x="541" 
d="M165 -59l20 93q-58 4 -96.5 17t-64.5 29l10 155q44 -26 91.5 -42.5t89.5 -20.5l28 134q-42 18 -76 42t-54 57t-20 79q0 68 30.5 113t83.5 69t119 28l14 66h70l-14 -68q45 -4 80.5 -15.5t67.5 -28.5l-57 -134q-26 17 -58 27.5t-62 14.5l-28 -130q70 -34 108.5 -73
t38.5 -104q0 -67 -31.5 -113.5t-84 -72t-115.5 -30.5l-19 -92h-71zM276 458l21 96q-26 -6 -35.5 -21t-9.5 -34q0 -26 24 -41zM285 175q49 13 49 53q0 16 -7.5 27.5t-19.5 20.5z" />
    <glyph glyph-name="percent" unicode="%" horiz-adv-x="879" 
d="M200 276q-144 0 -144 161q0 43 11.5 92.5t36 94t64.5 72.5t97 28q69 0 106 -41t37 -121q0 -41 -10.5 -90.5t-35 -94t-64.5 -73t-98 -28.5zM145 0l485 714h134l-482 -714h-137zM211 391q15 0 27 19t20.5 47.5t13 58.5t4.5 53q0 39 -22 39q-14 0 -26 -18t-21 -46t-14 -58.5
t-5 -55.5q0 -39 23 -39zM650 -9q-70 0 -107.5 40t-37.5 120q0 48 12 98.5t37.5 93.5t65 69.5t94.5 26.5q70 0 106.5 -41t36.5 -121q0 -42 -10.5 -91.5t-34.5 -93.5t-64 -72.5t-98 -28.5zM661 106q14 0 26 18.5t20.5 47t13.5 58.5t5 54q0 39 -23 39q-15 0 -27 -19t-20.5 -48
t-13 -59t-4.5 -52q0 -39 23 -39z" />
    <glyph glyph-name="ampersand" unicode="&#x26;" horiz-adv-x="684" 
d="M224 -10q-101 0 -161 48t-60 137q0 79 44.5 134.5t124.5 87.5q-17 25 -26.5 59t-9.5 63q0 93 61 149t165 56q51 0 93.5 -16.5t67.5 -49.5t25 -83q0 -67 -42 -117.5t-116 -93.5l53 -85q17 20 33 53.5t26 68.5h180q-24 -77 -64 -146.5t-84 -118.5l87 -136h-211l-19 33
q-36 -20 -76.5 -31.5t-90.5 -11.5zM322 469q25 13 43 36.5t18 53.5q0 16 -8.5 28t-25.5 12q-22 0 -34.5 -19t-12.5 -44q0 -14 4.5 -32t15.5 -35zM254 137q18 0 34.5 4.5t30.5 12.5l-82 134q-28 -16 -39 -39.5t-11 -51.5q0 -24 16.5 -42t50.5 -18z" />
    <glyph glyph-name="quotesingle" unicode="'" horiz-adv-x="239" 
d="M90 456l36 258h168l-76 -258h-128z" />
    <glyph glyph-name="parenleft" unicode="(" horiz-adv-x="340" 
d="M83 -158q-19 35 -32 84t-19.5 101.5t-6.5 98.5q0 110 28.5 220t82.5 209t129 179h149q-65 -77 -118.5 -174t-85 -207.5t-31.5 -229.5q0 -68 11.5 -142.5t33.5 -138.5h-141z" />
    <glyph glyph-name="parenright" unicode=")" horiz-adv-x="340" 
d="M-71 -158q65 77 117.5 174t83.5 207.5t31 229.5q0 66 -11.5 142.5t-33.5 138.5h142q32 -62 45 -136.5t13 -147.5q0 -114 -28 -224t-81 -208t-128 -176h-150z" />
    <glyph glyph-name="asterisk" unicode="*" horiz-adv-x="505" 
d="M328 281l-41 143l-80 -119l-115 95l118 107l-139 39l49 136l141 -76l10 162l148 -25l-49 -155l161 24l-1 -146l-144 11l77 -140z" />
    <glyph glyph-name="plus" unicode="+" horiz-adv-x="554" 
d="M347 418h170v-131h-170v-176h-132v176h-170v131h170v179h132v-179z" />
    <glyph glyph-name="comma" unicode="," horiz-adv-x="289" 
d="M-54 -133q26 61 50 132.5t42 127.5h165l4 -11q-25 -63 -57 -128.5t-66 -120.5h-138z" />
    <glyph glyph-name="hyphen" unicode="-" horiz-adv-x="321" 
d="M10 192l32 152h264l-32 -152h-264z" />
    <glyph glyph-name="period" unicode="." horiz-adv-x="289" 
d="M81 -12q-38 0 -60 17.5t-22 54.5q0 55 33 85.5t84 30.5q37 0 59.5 -18.5t22.5 -54.5q0 -61 -33.5 -88t-83.5 -27z" />
    <glyph glyph-name="slash" unicode="/" horiz-adv-x="441" 
d="M-49 -10l406 734h160l-405 -734h-161z" />
    <glyph glyph-name="zero" unicode="0" horiz-adv-x="541" 
d="M220 -10q-92 0 -140.5 55.5t-48.5 168.5q0 64 11 134t34.5 137t60 121.5t88 86.5t118.5 32q68 0 109.5 -30.5t60.5 -83.5t19 -118q0 -71 -12 -143t-36.5 -136.5t-62 -115t-87.5 -79.5t-114 -29zM240 141q18 0 35.5 25t32 66t25.5 89t17 95t6 84q0 73 -33 73
q-17 0 -34 -26t-31.5 -68t-25.5 -91t-17.5 -96.5t-6.5 -82.5t6.5 -51.5t25.5 -16.5z" />
    <glyph glyph-name="one" unicode="1" horiz-adv-x="541" 
d="M177 0l83 385q7 30 15.5 62t18.5 58q-13 -12 -28 -25.5t-26 -21.5l-87 -61l-75 115l280 202h151l-151 -714h-181z" />
    <glyph glyph-name="two" unicode="2" horiz-adv-x="541" 
d="M-28 0l26 122l214 208q62 60 92 108t30 84q0 46 -39 46q-30 0 -63.5 -22.5t-66.5 -54.5l-77 122q51 54 111.5 82.5t133.5 28.5q82 0 133.5 -46t51.5 -124q0 -50 -18 -96t-57.5 -94t-102.5 -106l-106 -99v-5h224l-32 -154h-454z" />
    <glyph glyph-name="three" unicode="3" horiz-adv-x="541" 
d="M176 -10q-50 0 -94 9.5t-79 29.5v159q41 -27 86 -38t85 -11q54 0 88 21.5t34 69.5q0 32 -23.5 48.5t-95.5 16.5h-41l27 141h39q64 0 102.5 23.5t38.5 68.5q0 19 -12.5 33t-44.5 14q-28 0 -60 -11.5t-67 -31.5l-60 123q52 35 103.5 52t122.5 17q57 0 102 -17.5t71 -53
t26 -88.5q0 -77 -46 -125t-118 -67v-3q60 -13 90.5 -53t30.5 -96q0 -75 -40.5 -126.5t-109.5 -78t-155 -26.5z" />
    <glyph glyph-name="four" unicode="4" horiz-adv-x="541" 
d="M211 0l29 138h-246l26 128l349 448h169l-92 -435h70l-30 -141h-70l-29 -138h-176zM174 279h96l27 115q5 20 13 48t11 38h-4q-21 -42 -44 -70z" />
    <glyph glyph-name="five" unicode="5" horiz-adv-x="541" 
d="M193 -10q-52 0 -102 9t-78 28v161q33 -22 79 -35.5t86 -13.5q58 0 89 29t31 78q0 32 -20 54t-60 22q-22 0 -46.5 -5t-42.5 -12l-55 42l102 367h367l-32 -154h-210l-29 -95q14 2 24 2.5t18 0.5q48 0 87 -23t62 -67t23 -108q0 -81 -33 -144.5t-98 -99.5t-162 -36z" />
    <glyph glyph-name="six" unicode="6" horiz-adv-x="541" 
d="M249 -10q-113 0 -163 67t-50 177q0 68 16.5 143t49 142t80.5 112q56 53 117 73t146 20q31 0 58.5 -3.5t54.5 -9.5l-30 -146q-20 5 -44 8.5t-43 3.5q-63 0 -104 -19.5t-67 -58.5t-44 -97h3q20 30 52 52.5t83 22.5q69 0 106 -48t37 -139q0 -57 -16.5 -111t-49 -96.5
t-80.5 -67.5t-112 -25zM253 138q25 0 40 23t22.5 55t7.5 60q0 26 -8.5 41t-27.5 15q-18 0 -32.5 -13t-22.5 -36q-8 -16 -13 -39.5t-5 -43.5q0 -62 39 -62z" />
    <glyph glyph-name="seven" unicode="7" horiz-adv-x="541" 
d="M21 0l332 558h-261l33 156h464l-25 -112l-342 -602h-201z" />
    <glyph glyph-name="eight" unicode="8" horiz-adv-x="541" 
d="M239 -10q-107 0 -164 48t-57 122q0 72 40 124t117 86q-29 26 -48.5 61t-19.5 84q0 57 27 105t79.5 76.5t129.5 28.5q91 0 142 -43.5t51 -113.5q0 -59 -35 -110t-100 -78q43 -35 64 -76.5t21 -93.5q0 -64 -30.5 -114t-86 -78t-130.5 -28zM310 455q30 16 44 40.5t14 49.5
q0 23 -12 33.5t-28 10.5q-22 0 -37 -20t-15 -50q0 -18 9.5 -35.5t24.5 -28.5zM244 126q32 0 52 22t20 57q0 26 -13 48.5t-36 41.5q-32 -19 -54.5 -48.5t-22.5 -66.5q0 -27 16 -40.5t38 -13.5z" />
    <glyph glyph-name="nine" unicode="9" horiz-adv-x="541" 
d="M143 -10q-32 0 -57.5 4t-48.5 10v149q48 -18 100 -17q81 3 128.5 46.5t68.5 129.5h-3q-20 -30 -51 -53t-82 -23q-70 0 -106 51t-36 132q0 54 15 108t47 98.5t81 71.5t118 27q108 0 158.5 -67t50.5 -177q0 -53 -10 -111.5t-33 -115.5t-61 -104q-29 -43 -68.5 -79.5
t-91.5 -58t-119 -21.5zM275 382q19 0 34 14t24 37q7 17 11.5 38t4.5 40q0 29 -10 47t-29 18q-22 0 -38 -22t-24.5 -53t-8.5 -58q0 -61 36 -61z" />
    <glyph glyph-name="colon" unicode=":" horiz-adv-x="292" 
d="M173 373q-38 0 -60.5 17.5t-22.5 54.5q0 55 33 85t84 30q37 0 59.5 -18t22.5 -54q0 -62 -33 -88.5t-83 -26.5zM82 -12q-38 0 -60 17.5t-22 54.5q0 55 33 85.5t84 30.5q37 0 59.5 -18.5t22.5 -54.5q0 -61 -33.5 -88t-83.5 -27z" />
    <glyph glyph-name="semicolon" unicode=";" horiz-adv-x="292" 
d="M173 373q-38 0 -60.5 17.5t-22.5 54.5q0 55 33 85t84 30q37 0 59.5 -18t22.5 -54q0 -62 -33 -88.5t-83 -26.5zM-58 -133q26 63 49.5 131t42.5 129h165l4 -11q-25 -63 -57 -128.5t-66 -120.5h-138z" />
    <glyph glyph-name="less" unicode="&#x3c;" horiz-adv-x="554" 
d="M516 96l-473 215v84l473 232v-145l-282 -125l282 -117v-144z" />
    <glyph glyph-name="equal" unicode="=" horiz-adv-x="554" 
d="M45 398v131h472v-131h-472zM45 175v132h472v-132h-472z" />
    <glyph glyph-name="greater" unicode="&#x3e;" horiz-adv-x="554" 
d="M45 240l282 117l-282 125v145l473 -232v-84l-473 -215v144z" />
    <glyph glyph-name="question" unicode="?" horiz-adv-x="447" 
d="M111 252q9 51 22 83.5t35 56.5t57 51q35 26 52.5 42t24 28.5t6.5 26.5q0 16 -10 26t-32 10q-28 0 -65 -14.5t-77 -38.5l-44 133q46 31 100.5 49.5t110.5 18.5q91 0 141.5 -41.5t50.5 -113.5q0 -53 -19 -90.5t-49 -65t-64 -50.5q-31 -21 -47.5 -36t-25 -31.5t-15.5 -43.5
h-152zM143 -12q-47 0 -66.5 20.5t-19.5 51.5q0 47 29.5 81.5t87.5 34.5q39 0 60.5 -19t21.5 -54q0 -55 -32.5 -85t-80.5 -30z" />
    <glyph glyph-name="at" unicode="@" horiz-adv-x="827" 
d="M352 -85q-97 0 -168.5 36.5t-111 105t-39.5 164.5q0 113 35 205.5t97 159t143.5 102.5t174.5 36q99 0 172 -35.5t113 -102t40 -159.5q0 -61 -17.5 -118.5t-50 -103.5t-76.5 -72.5t-96 -26.5q-81 0 -102 62h-5q-23 -31 -52 -46.5t-66 -15.5q-57 0 -90 37.5t-33 102.5
q0 46 15 96.5t46 94.5t78.5 71.5t111.5 27.5q43 0 83 -9t74 -23l-54 -225q-4 -16 -6 -27.5t-2 -22.5q0 -20 16 -20q30 0 54 30.5t38 79.5t14 103q0 92 -53.5 144t-162.5 52q-70 0 -128 -29.5t-100.5 -82t-66 -122.5t-23.5 -151q0 -69 25.5 -116t69.5 -71.5t100 -24.5
q49 0 107 11t116 35v-104q-44 -21 -103.5 -34.5t-116.5 -13.5zM382 209q26 0 44 26t34 88l27 106q-11 4 -26 4q-28 0 -49 -17.5t-35 -45.5t-21 -58t-7 -56q0 -47 33 -47z" />
    <glyph glyph-name="A" unicode="A" horiz-adv-x="623" 
d="M-59 0l343 715h234l42 -715h-183l-2 136h-183l-58 -136h-193zM256 285h119l-2 198q0 24 0.5 47.5t1.5 47.5h-3q-7 -24 -14 -46t-17 -45z" />
    <glyph glyph-name="B" unicode="B" horiz-adv-x="591" 
d="M8 0l151 714h222q100 0 153 -40t53 -115q0 -141 -139 -185v-4q39 -14 62.5 -49t23.5 -85q0 -75 -34.5 -128t-96 -80.5t-142.5 -27.5h-253zM283 439h32q44 0 63 24.5t19 59.5q0 48 -56 48h-29zM222 146h36q42 0 66.5 28t24.5 65q0 31 -14 46t-48 15h-33z" />
    <glyph glyph-name="C" unicode="C" horiz-adv-x="572" 
d="M279 -10q-118 0 -176 71.5t-58 188.5q0 66 14 133.5t42 129t71 109t101.5 75.5t131.5 28q121 0 212 -60l-75 -142q-38 24 -69.5 35.5t-65.5 11.5q-42 0 -75 -30t-55 -78t-33.5 -102t-11.5 -101q0 -59 22.5 -87t63.5 -28q40 0 78 11t83 31v-155q-47 -22 -98 -31.5
t-102 -9.5z" />
    <glyph glyph-name="D" unicode="D" horiz-adv-x="632" 
d="M8 0l151 714h189q125 0 195 -66t70 -188q0 -96 -25.5 -179.5t-75 -146.5t-122.5 -98.5t-169 -35.5h-213zM223 154h26q43 0 76 25.5t55.5 68t34 94.5t11.5 105q0 57 -23 85.5t-66 28.5h-28z" />
    <glyph glyph-name="E" unicode="E" horiz-adv-x="510" 
d="M8 0l151 714h388l-32 -151h-205l-25 -118h191l-33 -151h-191l-30 -141h206l-32 -153h-388z" />
    <glyph glyph-name="F" unicode="F" horiz-adv-x="510" 
d="M8 0l151 714h385l-32 -151h-202l-30 -142h187l-32 -152h-189l-56 -269h-182z" />
    <glyph glyph-name="G" unicode="G" horiz-adv-x="643" 
d="M296 -10q-118 0 -184 68t-66 198q0 85 24 168.5t73 151.5t124.5 108.5t178.5 40.5q58 0 111 -13.5t91 -36.5l-72 -147q-29 18 -64 30t-74 12q-54 0 -93 -30t-64 -77t-37 -100t-12 -99q0 -62 22 -90.5t64 -28.5q16 0 28 1.5t29 4.5l26 121h-96l31 146h275l-82 -386
q-53 -19 -111 -30.5t-122 -11.5z" />
    <glyph glyph-name="H" unicode="H" horiz-adv-x="659" 
d="M8 0l151 714h183l-56 -267h153l56 267h182l-152 -714h-182l62 294h-152l-63 -294h-182z" />
    <glyph glyph-name="I" unicode="I" horiz-adv-x="407" 
d="M-36 0l21 101l93 39l91 432l-76 41l21 101h355l-21 -101l-96 -41l-92 -432l78 -39l-21 -101h-353z" />
    <glyph glyph-name="J" unicode="J" horiz-adv-x="337" 
d="M-59 -225q-28 0 -53 4t-47 10l11 152q16 -5 34 -9t39 -4q44 0 68.5 32.5t37.5 92.5l141 661h183l-146 -685q-20 -92 -54 -148t-86.5 -81t-127.5 -25z" />
    <glyph glyph-name="K" unicode="K" horiz-adv-x="611" 
d="M8 0l151 714h183l-64 -298l58 88l151 210h209l-253 -332l110 -382h-203l-67 274l-40 -24l-53 -250h-182z" />
    <glyph glyph-name="L" unicode="L" horiz-adv-x="480" 
d="M8 0l151 714h183l-120 -562h210l-32 -152h-392z" />
    <glyph glyph-name="M" unicode="M" horiz-adv-x="848" 
d="M8 0l151 714h240l4 -472h3l212 472h248l-153 -714h-168l62 288q17 78 28.5 119t16.5 64h-4l-213 -471h-165l-2 469h-4q-9 -59 -17 -109t-16 -89l-57 -271h-166z" />
    <glyph glyph-name="N" unicode="N" horiz-adv-x="722" 
d="M8 0l151 714h209l116 -454h3q3 24 7.5 54t10 60t9.5 53l61 287h165l-151 -714h-208l-117 472h-3q-3 -20 -7 -53t-9 -68.5t-11 -62.5l-61 -288h-165z" />
    <glyph glyph-name="O" unicode="O" horiz-adv-x="677" 
d="M295 -10q-125 0 -187.5 69t-62.5 194q0 67 14.5 134.5t44 128t73.5 107.5t103 74.5t133 27.5q123 0 184 -70t61 -193q0 -63 -13.5 -129.5t-41.5 -127.5t-71 -109.5t-102 -77t-135 -28.5zM310 145q36 0 65.5 28.5t51 75.5t33.5 103t12 111q0 52 -19.5 80t-55.5 28
q-38 0 -68.5 -30t-52 -78.5t-33 -104t-11.5 -105.5q0 -57 19.5 -82.5t58.5 -25.5z" />
    <glyph glyph-name="P" unicode="P" horiz-adv-x="571" 
d="M8 0l151 714h180q85 0 136.5 -26t75.5 -71t24 -101q0 -80 -35 -143t-100.5 -99.5t-158.5 -36.5h-41l-50 -237h-182zM272 389h24q44 0 69.5 32.5t25.5 82.5q0 26 -14.5 42t-45.5 16h-21z" />
    <glyph glyph-name="Q" unicode="Q" horiz-adv-x="677" 
d="M346 -170l-66 161h-13q-109 5 -165.5 74t-56.5 188q0 67 14.5 134.5t44 128t73.5 107.5t103.5 74.5t134.5 27.5q121 0 182 -70t61 -193q0 -59 -12 -121.5t-37.5 -121.5t-64 -107.5t-91.5 -79.5l99 -202h-206zM304 147q38 0 69 28.5t53 75.5t34 103t12 110q0 53 -19 79.5
t-54 26.5q-37 0 -68 -28.5t-53 -75.5t-34 -103.5t-12 -111.5t19 -79.5t53 -24.5z" />
    <glyph glyph-name="R" unicode="R" horiz-adv-x="597" 
d="M8 0l151 714h179q239 0 239 -186q0 -64 -20 -109.5t-51.5 -75t-65.5 -44.5l110 -299h-200l-78 262h-26l-56 -262h-182zM276 403h21q40 0 67 29.5t27 79.5q0 26 -14 42t-46 16h-20z" />
    <glyph glyph-name="S" unicode="S" horiz-adv-x="507" 
d="M186 -10q-53 0 -98.5 11.5t-80.5 35.5l13 171q34 -24 81.5 -42.5t88.5 -18.5q31 0 51.5 14t20.5 47q0 26 -19 47t-53 49q-48 40 -74.5 85t-26.5 109t30 115.5t85.5 81t134.5 29.5q51 0 101.5 -13.5t92.5 -39.5l-69 -147q-32 20 -65.5 33t-61.5 13q-34 0 -48.5 -17
t-14.5 -40q0 -21 14 -42t59 -55q55 -41 78.5 -86.5t23.5 -105.5q0 -68 -30 -120.5t-88.5 -83t-144.5 -30.5z" />
    <glyph glyph-name="T" unicode="T" horiz-adv-x="507" 
d="M100 0l117 560h-140l33 154h464l-34 -154h-141l-117 -560h-182z" />
    <glyph glyph-name="U" unicode="U" horiz-adv-x="643" 
d="M269 -10q-102 0 -160 54t-58 141q0 35 8 73l98 456h182l-97 -454q-3 -14 -5 -28.5t-2 -26.5q0 -59 54 -59q38 0 60.5 27t36.5 94l96 447h182l-100 -469q-26 -124 -94 -189.5t-201 -65.5z" />
    <glyph glyph-name="V" unicode="V" horiz-adv-x="581" 
d="M118 0l-38 714h182l4 -361q1 -36 -1 -81.5t-7 -78.5h3q9 36 22 74.5t24 64.5l161 382h194l-339 -714h-205z" />
    <glyph glyph-name="W" unicode="W" horiz-adv-x="865" 
d="M86 0l-5 714h174l-9 -335q-2 -42 -4.5 -82.5t-5.5 -69.5h3q11 31 25 68t29 71l148 348h154l-4 -354q-1 -30 -2 -67t-4 -71h3q10 34 26 80t32 86l126 326h181l-296 -714h-212l1 266q0 32 2 68t5 71h-3q-13 -37 -26 -73.5t-29 -71.5l-106 -260h-203z" />
    <glyph glyph-name="X" unicode="X" horiz-adv-x="603" 
d="M-60 0l258 371l-94 343h192l47 -210l130 210h205l-246 -353l113 -361h-200l-56 223l-146 -223h-203z" />
    <glyph glyph-name="Y" unicode="Y" horiz-adv-x="562" 
d="M125 0l57 274l-97 440h188l35 -252l139 252h201l-283 -438l-58 -276h-182z" />
    <glyph glyph-name="Z" unicode="Z" horiz-adv-x="502" 
d="M-43 0l24 118l324 444h-222l32 152h448l-25 -119l-327 -443h245l-32 -152h-467z" />
    <glyph glyph-name="bracketleft" unicode="[" horiz-adv-x="333" 
d="M-35 -168l192 902h247l-26 -124h-97l-139 -654h97l-27 -124h-247z" />
    <glyph glyph-name="backslash" unicode="\" horiz-adv-x="441" 
d="M213 -10l-109 734h147l112 -734h-150z" />
    <glyph glyph-name="bracketright" unicode="]" horiz-adv-x="333" 
d="M-70 -168l26 124h97l139 654h-97l26 124h247l-192 -902h-246z" />
    <glyph glyph-name="asciicircum" unicode="^" horiz-adv-x="509" 
d="M-9 244l305 470h86l125 -470h-137l-66 263l-167 -263h-146z" />
    <glyph glyph-name="underscore" unicode="_" horiz-adv-x="426" 
d="M-93 -185l27 120h430l-28 -120h-429z" />
    <glyph glyph-name="grave" unicode="`" horiz-adv-x="345" 
d="M257 606q-19 19 -41 45.5t-41.5 54.5t-30.5 50v10h188q6 -31 16 -69t27 -79v-12h-118z" />
    <glyph glyph-name="a" unicode="a" horiz-adv-x="563" 
d="M173 -10q-60 0 -101 46t-41 148q0 41 9 91.5t27.5 101t46.5 93t66 68t87 25.5q41 0 70 -19.5t48 -57.5h3l26 67h147l-117 -553h-144l2 62h-4q-23 -32 -51.5 -52t-73.5 -20zM248 136q22 0 39 21t29 53t18 64q6 27 8 45t2 33q0 30 -9 47t-28 17t-36 -21t-29.5 -54
t-20 -70.5t-7.5 -69.5q0 -65 34 -65z" />
    <glyph glyph-name="b" unicode="b" horiz-adv-x="563" 
d="M295 -10q-40 0 -68 16.5t-53 53.5h-3l-26 -60h-143l162 760h178l-28 -132q-9 -44 -21.5 -80t-15.5 -46h3q22 28 46.5 44.5t65.5 16.5q59 0 100 -45.5t41 -148.5q0 -43 -9.5 -93.5t-28 -101t-47 -92t-67 -67t-86.5 -25.5zM256 136q18 0 35 21t30 54t21 70t8 70
q0 65 -36 65q-22 0 -39.5 -22t-29.5 -56t-18.5 -71t-6.5 -67t9 -47t27 -17z" />
    <glyph glyph-name="c" unicode="c" horiz-adv-x="465" 
d="M221 -10q-81 0 -134.5 51t-53.5 158q0 69 18.5 134.5t54.5 117t89.5 82t123.5 30.5q48 0 87.5 -10t77.5 -30l-62 -135q-21 12 -47 20.5t-50 8.5q-30 0 -51 -21t-34.5 -53.5t-20 -66.5t-6.5 -60q0 -43 13.5 -61t39.5 -18q30 0 61 11.5t66 32.5v-145q-35 -20 -77 -33
t-95 -13z" />
    <glyph glyph-name="d" unicode="d" horiz-adv-x="561" 
d="M173 -10q-60 0 -101 46t-41 148q0 41 9 91t27 101t46 93t65.5 68t84.5 26q41 0 67 -18t46 -52h4q1 17 4 50.5t9 60.5l33 156h179l-161 -760h-144l2 59h-4q-23 -30 -50.5 -49.5t-74.5 -19.5zM248 136q22 0 40 22t30.5 56t19 71t6.5 67t-9 47t-27 17q-20 0 -37.5 -22
t-30 -56.5t-19.5 -71t-7 -65.5q0 -65 34 -65z" />
    <glyph glyph-name="e" unicode="e" horiz-adv-x="536" 
d="M238 -10q-98 0 -152 55t-54 152q0 67 18 132t55 118t94.5 84.5t136.5 31.5q84 0 134 -41.5t50 -108.5q0 -95 -72.5 -147.5t-214.5 -52.5h-22q-1 -5 -1 -9v-8q0 -38 18.5 -55.5t55.5 -17.5q40 0 74 11.5t77 33.5v-128q-44 -25 -89.5 -37.5t-107.5 -12.5zM232 330h10
q64 0 87.5 22t23.5 48q0 15 -10 25.5t-29 10.5q-28 0 -51 -31.5t-31 -74.5z" />
    <glyph glyph-name="f" unicode="f" horiz-adv-x="373" 
d="M-14 -240q-23 0 -47.5 3t-43.5 9v145q12 -4 27.5 -6.5t27.5 -2.5q34 0 49.5 17t21.5 46l94 443h-71l19 90l82 46l8 35q17 79 62 129.5t133 50.5q35 0 69.5 -7.5t61.5 -20.5l-50 -126q-28 15 -55 15q-18 0 -28.5 -11t-14.5 -27l-8 -35h95l-30 -139h-94l-100 -467
q-12 -57 -36 -99t-65.5 -65t-106.5 -23z" />
    <glyph glyph-name="g" unicode="g" horiz-adv-x="563" 
d="M170 -240q-57 0 -98 9t-74 23v150q34 -19 78.5 -30.5t88.5 -11.5q43 0 67.5 21t32.5 55l5 20q2 12 6 26.5t9 28.5h-4q-22 -28 -48.5 -43t-68.5 -15q-58 0 -95.5 44t-37.5 143q0 42 9 93t27.5 102t47 93.5t67 68.5t87.5 26q45 0 70 -18.5t47 -58.5h3l25 67h147l-121 -572
q-18 -83 -56.5 -131t-93 -69t-120.5 -21zM249 137q22 0 39.5 23t30 58t19 72t6.5 66q0 27 -9 43.5t-28 16.5q-20 0 -37 -22t-29.5 -56t-19.5 -70.5t-7 -65.5q0 -65 35 -65z" />
    <glyph glyph-name="h" unicode="h" horiz-adv-x="574" 
d="M2 0l162 760h178l-28 -128q-7 -33 -18.5 -69t-21.5 -63h4q47 63 125 63q69 0 102 -43t33 -105q0 -24 -3 -50t-8 -49l-67 -316h-178l63 304q4 16 7 35t3 37t-9.5 28.5t-24.5 10.5q-23 0 -44 -28.5t-36 -101.5l-60 -285h-179z" />
    <glyph glyph-name="i" unicode="i" horiz-adv-x="298" 
d="M228 606q-38 0 -62 15.5t-24 50.5q0 45 27 75t80 30q37 0 61.5 -15.5t24.5 -50.5q0 -46 -27.5 -75.5t-79.5 -29.5zM3 0l117 553h179l-118 -553h-178z" />
    <glyph glyph-name="j" unicode="j" horiz-adv-x="298" 
d="M231 606q-39 0 -62.5 15.5t-23.5 50.5q0 45 27.5 75t79.5 30q37 0 61.5 -15.5t24.5 -50.5q0 -46 -27 -75.5t-80 -29.5zM-36 -240q-23 0 -48 3t-44 9v145q15 -5 28.5 -7t25.5 -2q28 0 47 16t27 54l122 575h178l-127 -599q-11 -54 -35 -98t-66 -70t-108 -26z" />
    <glyph glyph-name="k" unicode="k" horiz-adv-x="568" 
d="M2 0l160 760h179l-67 -313q-6 -27 -14.5 -58.5t-15.5 -52.5h3l175 217h201l-220 -246l114 -307h-200l-59 189l-45 -29l-32 -160h-179z" />
    <glyph glyph-name="l" unicode="l" horiz-adv-x="298" 
d="M2 0l162 760h178l-161 -760h-179z" />
    <glyph glyph-name="m" unicode="m" horiz-adv-x="852" 
d="M2 0l118 553h142l-6 -81h4q27 47 61.5 69t84.5 22q52 0 81.5 -22.5t42.5 -66.5h4q59 89 153 89q63 0 96.5 -38t33.5 -110q0 -41 -11 -96l-66 -319h-179l64 308q3 14 5.5 32t2.5 36q0 39 -30 39q-33 0 -53 -39.5t-33 -100.5l-57 -275h-178l64 308q3 15 6 33.5t3 31.5
q0 23 -8.5 32.5t-21.5 9.5q-55 0 -85 -137l-59 -278h-179z" />
    <glyph glyph-name="n" unicode="n" horiz-adv-x="574" 
d="M2 0l118 553h142l-4 -72h3q51 82 140 82q65 0 101 -39.5t36 -107.5q0 -23 -3 -48.5t-8 -51.5l-67 -316h-178l63 304q4 16 7 36t3 36q0 39 -33 39q-27 0 -48 -36t-35 -103l-58 -276h-179z" />
    <glyph glyph-name="o" unicode="o" horiz-adv-x="560" 
d="M232 -10q-95 0 -147 54t-52 151q0 65 18 130t54 119t92.5 86.5t132.5 32.5q94 0 146 -54t52 -151q0 -66 -18 -131.5t-55 -119t-92.5 -85.5t-130.5 -32zM252 129q20 0 37.5 22t30.5 57.5t20 76t7 77.5q0 62 -39 62q-21 0 -38 -22t-29.5 -57.5t-19.5 -76t-7 -77.5
q0 -62 38 -62z" />
    <glyph glyph-name="p" unicode="p" horiz-adv-x="563" 
d="M-48 -240l168 793h143l-5 -65h4q49 75 125 75q66 0 105.5 -48.5t39.5 -141.5q0 -66 -16 -133t-46.5 -124t-74.5 -91.5t-100 -34.5q-36 0 -63.5 19t-44.5 51h-3q-3 -35 -8 -68t-14 -79l-32 -153h-178zM259 137q19 0 35.5 21t29 53.5t19.5 70t7 70.5q0 65 -35 65
q-22 0 -39.5 -22.5t-30 -56.5t-19 -71t-6.5 -66q0 -30 10 -47t29 -17z" />
    <glyph glyph-name="q" unicode="q" horiz-adv-x="563" 
d="M213 -240l36 163q11 44 22.5 81t14.5 47h-4q-21 -29 -47.5 -45t-68.5 -16q-36 0 -66.5 20t-49.5 62t-19 108q0 42 9 93t27.5 102t47 93.5t67 68.5t87.5 26q45 0 70 -18.5t47 -58.5h3l25 67h147l-168 -793h-180zM249 137q22 0 39.5 22t30 56t19 71.5t6.5 69.5
q0 27 -9 43.5t-28 16.5t-35.5 -20.5t-29.5 -53.5t-20.5 -70t-7.5 -70q0 -65 35 -65z" />
    <glyph glyph-name="r" unicode="r" horiz-adv-x="406" 
d="M3 0l117 553h141l-6 -88h4q31 55 65.5 76.5t85.5 21.5q22 0 42 -5l-45 -183q-23 10 -56 10q-43 0 -72.5 -31t-43.5 -98l-54 -256h-178z" />
    <glyph glyph-name="s" unicode="s" horiz-adv-x="460" 
d="M172 -10q-54 0 -93 8t-70 24v150q39 -23 76 -33t72 -10q19 0 39.5 7t20.5 28q0 15 -11.5 30t-54.5 42q-49 32 -68.5 67.5t-19.5 81.5q0 77 52 127.5t159 50.5q52 0 97 -13t82 -38l-60 -122q-26 20 -58.5 32t-55.5 12q-34 0 -34 -32q0 -14 12.5 -25.5t46.5 -32.5
q49 -28 73 -64.5t24 -90.5q0 -94 -61.5 -146.5t-167.5 -52.5z" />
    <glyph glyph-name="t" unicode="t" horiz-adv-x="415" 
d="M184 -10q-70 0 -103 33.5t-33 98.5q0 19 3.5 43t8.5 47l42 202h-66l19 90l95 43l63 117h121l-24 -111h124l-30 -139h-124l-44 -205q-2 -11 -4 -22.5t-2 -18.5q0 -30 29 -30q33 0 79 20v-137q-62 -31 -154 -31z" />
    <glyph glyph-name="u" unicode="u" horiz-adv-x="574" 
d="M173 -10q-71 0 -103.5 42.5t-32.5 104.5q0 49 11 101l66 315h179l-64 -303q-4 -16 -6.5 -36t-2.5 -36q0 -20 9 -30t23 -10q26 0 47.5 36t35.5 104l59 275h178l-117 -553h-142l4 72h-4q-50 -82 -140 -82z" />
    <glyph glyph-name="v" unicode="v" horiz-adv-x="512" 
d="M103 0l-53 553h178l5 -256q1 -21 0.5 -42t-3.5 -41h4q4 14 11 32t13 31l121 276h190l-284 -553h-182z" />
    <glyph glyph-name="w" unicode="w" horiz-adv-x="770" 
d="M70 0l-15 553h170l-4 -234q-1 -29 -3 -58t-5 -54h4q6 24 14.5 50t16.5 50l92 246h193l-13 -241q-2 -21 -3.5 -49.5t-4.5 -59.5h4q9 31 18 59t20 57l94 234h177l-248 -553h-198l11 230q2 32 4.5 73t5.5 75h-4q-9 -34 -21 -70t-22 -62l-92 -246h-191z" />
    <glyph glyph-name="x" unicode="x" horiz-adv-x="527" 
d="M-56 0l214 282l-88 271h194l30 -145l84 145h208l-209 -277l94 -276h-195l-33 154l-95 -154h-204z" />
    <glyph glyph-name="y" unicode="y" horiz-adv-x="512" 
d="M13 -240q-27 0 -45 2.5t-30 6.5l11 147q11 -3 23 -5t26 -2q35 0 56.5 15.5t38.5 47.5l18 35l-63 546h180l12 -240q2 -25 1.5 -48t-1.5 -45h4q6 23 15.5 50.5t16.5 44.5l102 238h190l-313 -620q-41 -83 -96 -128t-146 -45z" />
    <glyph glyph-name="z" unicode="z" horiz-adv-x="451" 
d="M-28 0l21 103l241 308h-165l31 142h375l-24 -113l-236 -298h179l-31 -142h-391z" />
    <glyph glyph-name="braceleft" unicode="{" horiz-adv-x="354" 
d="M233 -158q-100 0 -142 36t-42 101q0 33 7 62l18 83l2 12t1 13q0 31 -16 47t-65 16l28 140q53 0 79.5 20t36.5 64l26 120q19 86 68.5 122t152.5 36h40l-30 -137q-36 -1 -55.5 -13t-26.5 -50l-25 -122q-11 -53 -47 -79.5t-92 -32.5v-4q44 -14 64.5 -42t20.5 -68
q0 -10 -2 -21.5t-4 -22.5l-16 -76q-3 -15 -3 -24q0 -43 51 -43v-137h-29z" />
    <glyph glyph-name="bar" unicode="|" horiz-adv-x="502" 
d="M183 -228v990h135v-990h-135z" />
    <glyph glyph-name="braceright" unicode="}" horiz-adv-x="354" 
d="M-59 -158v137q47 1 65 13.5t26 49.5l25 122q11 53 47 79.5t92 32.5v4q-44 14 -64 42t-20 68q0 19 5 44l16 76q3 15 3 24q0 43 -62 43l27 137h21q98 0 137 -37t39 -96q0 -16 -1.5 -33.5t-5.5 -33.5l-17 -82q-2 -6 -3 -12t-1 -13q0 -31 18.5 -46.5t67.5 -15.5l-29 -140
q-53 -1 -81.5 -21.5t-37.5 -63.5l-27 -120q-12 -56 -36.5 -91t-68 -51t-112.5 -16h-23z" />
    <glyph glyph-name="asciitilde" unicode="~" horiz-adv-x="554" 
d="M263 289q-34 15 -61 21t-50 6q-27 0 -55.5 -16.5t-54.5 -42.5v137q50 53 125 53q30 0 60 -7t72 -24q34 -15 61 -21t50 -6q26 0 55 16.5t54 42.5v-137q-50 -53 -125 -53q-29 0 -58.5 7t-72.5 24z" />
    <glyph glyph-name="uni00A0" unicode="&#xa0;" horiz-adv-x="228" 
 />
    <glyph glyph-name="exclamdown" unicode="&#xa1;" horiz-adv-x="288" 
d="M161 375q-38 0 -60 19.5t-22 53.5q0 56 32.5 85.5t80.5 29.5q46 0 66 -20.5t20 -51.5q0 -47 -29 -81.5t-88 -34.5zM-55 -170l124 468h152l-77 -468h-199z" />
    <glyph glyph-name="cent" unicode="&#xa2;" horiz-adv-x="541" 
d="M170 -10l24 98q-58 15 -91 60t-33 133q0 66 16 128t47 113t76 85t104 43l16 74h104l-16 -75q31 -5 56 -15t48 -23l-63 -135q-25 14 -47.5 22t-45.5 8q-28 0 -49 -20t-35.5 -52t-21.5 -68t-7 -69q0 -37 13 -53.5t38 -16.5q29 0 58.5 10.5t61.5 29.5l16 -136
q-32 -22 -69.5 -33.5t-74.5 -15.5l-20 -92h-105z" />
    <glyph glyph-name="sterling" unicode="&#xa3;" horiz-adv-x="541" 
d="M-10 0l31 148q49 18 70 43.5t31 74.5l10 48h-79l27 131h79l15 77q21 111 78 156.5t145 45.5q49 0 91 -12t77 -30l-68 -141q-27 14 -49 22t-44 8q-20 0 -31 -14t-18 -47l-14 -65h120l-27 -131h-120l-10 -48q-9 -40 -36.5 -67.5t-58.5 -42.5h273l-33 -156h-459z" />
    <glyph glyph-name="currency" unicode="&#xa4;" horiz-adv-x="541" 
d="M436 116l-63 61q-20 -10 -43.5 -16t-48.5 -6q-26 0 -50 5t-44 16l-60 -59l-83 83l62 60q-23 42 -23 93q0 49 23 93l-63 61l84 84l62 -62q20 11 44.5 17t47.5 6q49 0 92 -24l63 63l85 -81l-64 -63q23 -41 23 -94q0 -51 -22 -94l60 -60zM281 272q35 0 59 23.5t24 57.5
t-24 57.5t-59 23.5q-34 0 -57 -23t-23 -58q0 -34 23 -57.5t57 -23.5z" />
    <glyph glyph-name="yen" unicode="&#xa5;" horiz-adv-x="541" 
d="M117 0l21 97h-111l21 101h111l12 61h-110l22 101h86l-76 354h181l27 -231l128 231h186l-225 -354h90l-22 -101h-110l-13 -61h110l-21 -101h-110l-20 -97h-177z" />
    <glyph glyph-name="brokenbar" unicode="&#xa6;" horiz-adv-x="502" 
d="M183 361v400h135v-400h-135zM183 -221v399h135v-399h-135z" />
    <glyph glyph-name="section" unicode="&#xa7;" horiz-adv-x="483" 
d="M179 -14q-49 0 -89.5 11.5t-67.5 31.5v124q82 -57 158 -57q36 0 51.5 16.5t15.5 36.5t-17 35.5t-46 32.5q-51 29 -80.5 65t-29.5 87q0 42 22.5 78.5t68.5 62.5q-38 40 -38 98q0 72 55 115t151 44q49 0 91 -12.5t81 -35.5l-52 -108q-25 19 -57.5 32.5t-70.5 13.5
q-25 0 -37.5 -11.5t-12.5 -28.5q0 -16 12 -30.5t52 -34.5q63 -34 87 -69.5t24 -76.5q0 -58 -24.5 -91.5t-61.5 -57.5q14 -17 23.5 -41.5t9.5 -55.5q0 -77 -56.5 -125.5t-161.5 -48.5zM281 313q13 10 22.5 26.5t9.5 37.5q0 24 -15 43t-50 36q-17 -9 -26.5 -26.5t-9.5 -34.5
q0 -25 20 -44.5t49 -37.5z" />
    <glyph glyph-name="dieresis" unicode="&#xa8;" horiz-adv-x="508" 
d="M448 614q-34 0 -54.5 13t-20.5 47q0 44 24.5 68.5t70.5 24.5q29 0 51.5 -12.5t22.5 -46.5q0 -42 -23.5 -68t-70.5 -26zM228 614q-34 0 -54.5 13t-20.5 47q0 44 24.5 68.5t70.5 24.5q29 0 51.5 -12.5t22.5 -46.5q0 -42 -23.5 -68t-70.5 -26z" />
    <glyph glyph-name="copyright" unicode="&#xa9;" horiz-adv-x="824" 
d="M412 -10q-82 0 -149 27.5t-116 77.5t-75.5 117t-26.5 146q0 80 27.5 147t76.5 116t116 76t147 27t147 -27t116.5 -76.5t76.5 -117t27 -147.5t-27 -147t-76 -116t-116 -76t-148 -27zM413 68q83 0 145.5 37t97.5 102.5t35 149.5q0 85 -36 150.5t-99.5 102t-144.5 36.5
q-83 0 -146 -37.5t-98 -103t-35 -149.5q0 -86 36 -150.5t99.5 -101t145.5 -36.5zM414 128q-106 0 -161.5 62t-55.5 169q0 103 54 164.5t158 61.5q43 0 81.5 -10t75.5 -28l-45 -96q-53 27 -102 27q-42 0 -66 -31t-24 -92q0 -63 22.5 -91.5t70.5 -28.5q31 0 63 8.5t62 24.5
v-109q-61 -31 -133 -31z" />
    <glyph glyph-name="ordfeminine" unicode="&#xaa;" horiz-adv-x="376" 
d="M171 356q-21 0 -45 12t-41 41t-17 80q0 39 11 79.5t32.5 75t53 55.5t72.5 21q35 0 55.5 -13t35.5 -35h4l18 42h90l-80 -352h-91l4 42h-4q-16 -20 -39.5 -34t-58.5 -14zM221 446q24 0 39 22.5t22 53t7 53.5q0 25 -7 40.5t-23 15.5q-21 0 -35.5 -21.5t-22.5 -53.5t-8 -62
q0 -48 28 -48z" />
    <glyph glyph-name="guillemotleft" unicode="&#xab;" horiz-adv-x="592" 
d="M380 34l-101 245l1 7l196 242l123 -91l-135 -160l68 -179zM122 34l-98 236l1 8l191 248l124 -89l-131 -169l64 -170z" />
    <glyph glyph-name="logicalnot" unicode="&#xac;" horiz-adv-x="554" 
d="M515 418v-302h-133v171h-337v131h470z" />
    <glyph glyph-name="uni00AD" unicode="&#xad;" horiz-adv-x="321" 
d="M10 192l32 152h264l-32 -152h-264z" />
    <glyph glyph-name="registered" unicode="&#xae;" horiz-adv-x="824" 
d="M412 -10q-82 0 -149 27.5t-116 77.5t-75.5 117t-26.5 146q0 80 27.5 147t76.5 116t116 76t147 27t147 -27t116.5 -76.5t76.5 -117t27 -147.5t-27 -147t-76 -116t-116 -76t-148 -27zM413 68q83 0 145.5 37t97.5 102.5t35 149.5q0 85 -36 150.5t-99.5 102t-144.5 36.5
q-83 0 -146 -37.5t-98 -103t-35 -149.5q0 -86 36 -150.5t99.5 -101t145.5 -36.5zM252 153v427h140q99 0 143.5 -34t44.5 -98q0 -48 -19 -75.5t-50 -42.5l91 -177h-134l-68 156h-20v-156h-128zM380 395h9q29 0 45 10.5t16 37.5q0 25 -15 33.5t-45 8.5h-10v-90z" />
    <glyph glyph-name="overscore" unicode="&#xaf;" horiz-adv-x="454" 
d="M101 759l27 120h458l-27 -120h-458z" />
    <glyph glyph-name="degree" unicode="&#xb0;" horiz-adv-x="399" 
d="M199 384q-49 0 -88 21.5t-61.5 60t-22.5 88.5t22.5 88t61.5 60t88 22q50 0 89 -22t61.5 -60t22.5 -88t-22.5 -88.5t-61.5 -60t-89 -21.5zM199 492q29 0 46 17t17 45t-17 45.5t-46 17.5t-45.5 -17.5t-16.5 -45.5t16.5 -45t45.5 -17z" />
    <glyph glyph-name="plusminus" unicode="&#xb1;" horiz-adv-x="554" 
d="M347 467h170v-131h-170v-176h-132v176h-170v131h170v179h132v-179zM45 0v131h472v-131h-472z" />
    <glyph glyph-name="uni00B2" unicode="&#xb2;" horiz-adv-x="382" 
d="M62 415l21 100l122 104q44 37 63.5 60t19.5 42q0 25 -27 25q-17 0 -39.5 -11.5t-43.5 -30.5l-51 88q35 31 76.5 46.5t96.5 15.5q60 0 97 -28t37 -75q0 -53 -36 -94t-98 -85l-50 -39h148l-23 -118h-313z" />
    <glyph glyph-name="uni00B3" unicode="&#xb3;" horiz-adv-x="382" 
d="M217 409q-46 0 -77.5 8.5t-57.5 25.5v110q26 -20 58 -30.5t61 -10.5q65 0 65 42q0 12 -10.5 22t-37.5 10h-55l20 93h44q31 0 50 11.5t19 34.5q0 13 -9.5 20t-23.5 7q-17 0 -35.5 -6.5t-46.5 -25.5l-46 85q37 26 74.5 37.5t81.5 11.5q62 0 99.5 -26.5t37.5 -74.5
q0 -46 -27 -72.5t-76 -40.5l-1 -4q38 -10 54.5 -31.5t16.5 -55.5q0 -62 -47 -101t-131 -39z" />
    <glyph glyph-name="acute" unicode="&#xb4;" horiz-adv-x="375" 
d="M111 606l1 11q32 31 65.5 71.5t59.5 77.5h201l-1 -7q-11 -13 -35.5 -34t-54 -44.5t-58 -43.5t-46.5 -31h-132z" />
    <glyph glyph-name="uni00B5" unicode="&#xb5;" horiz-adv-x="578" 
d="M-49 -240l168 793h178l-64 -303q-3 -16 -6 -35t-3 -35q0 -21 9 -31.5t23 -10.5q20 0 34.5 11.5t26 41t22.5 83.5l59 279h179l-117 -553h-136l2 58h-4q-18 -37 -40 -52.5t-48 -15.5q-40 0 -55 32h-3q-2 -32 -6.5 -63t-11.5 -66l-29 -133h-178z" />
    <glyph glyph-name="paragraph" unicode="&#xb6;" horiz-adv-x="605" 
d="M298 -127v399q-13 -4 -24 -6t-28 -2q-94 0 -140 66.5t-46 183.5q0 121 51 183.5t148 62.5h291v-887h-92v787h-68v-787h-92z" />
    <glyph glyph-name="periodcentered" unicode="&#xb7;" horiz-adv-x="289" 
d="M138 260q-38 0 -60 17.5t-22 54.5q0 55 33 85.5t84 30.5q37 0 59.5 -18.5t22.5 -54.5q0 -61 -33.5 -88t-83.5 -27z" />
    <glyph glyph-name="cedilla" unicode="&#xb8;" horiz-adv-x="171" 
d="M-26 -240q-54 0 -90 13v95q15 -4 36 -7.5t32 -3.5q35 0 35 28q0 13 -12.5 25t-50.5 18l41 72h91l-15 -25q35 -7 58 -28t23 -62q0 -64 -40 -94.5t-108 -30.5z" />
    <glyph glyph-name="uni00B9" unicode="&#xb9;" horiz-adv-x="382" 
d="M174 415l43 195q6 28 12.5 50t10.5 35q-8 -7 -17 -15t-12 -9l-56 -39l-54 83l192 129h113l-91 -429h-141z" />
    <glyph glyph-name="ordmasculine" unicode="&#xba;" horiz-adv-x="371" 
d="M212 355q-65 0 -102 37.5t-37 103.5q0 58 22 109.5t66.5 84t110.5 32.5q61 0 99.5 -36t38.5 -109q0 -57 -22 -107.5t-66 -82.5t-110 -32zM225 453q19 0 33 18.5t21 46.5t7 57q0 49 -28 49q-20 0 -33.5 -20t-20 -49t-6.5 -55t7 -36.5t20 -10.5z" />
    <glyph glyph-name="guillemotright" unicode="&#xbb;" horiz-adv-x="592" 
d="M375 24l-124 89l131 170l-64 169l151 64l98 -236l-1 -7zM115 22l-122 91l134 161l-67 178l150 64l101 -245v-7z" />
    <glyph glyph-name="onequarter" unicode="&#xbc;" horiz-adv-x="885" 
d="M138 0l509 714h134l-506 -714h-137zM158 285l43 195q6 28 12.5 50t10.5 35q-8 -7 -17 -15t-12 -9l-56 -39l-54 83l192 129h113l-91 -429h-141zM630 0l13 63h-175l16 86l221 281h148l-58 -272h53l-20 -95h-53l-13 -63h-132zM595 158h68l20 81q4 17 9 35.5t9 30.5
q-7 -13 -19 -30.5t-21 -29.5z" />
    <glyph glyph-name="onehalf" unicode="&#xbd;" horiz-adv-x="913" 
d="M130 0l509 714h134l-506 -714h-137zM158 286l43 195q6 28 12.5 50t10.5 35q-8 -7 -17 -15t-12 -9l-56 -39l-54 83l192 129h113l-91 -429h-141zM505 0l21 100l122 104q44 37 63.5 60t19.5 42q0 25 -27 25q-17 0 -39.5 -11.5t-43.5 -30.5l-51 88q35 31 76.5 46.5t96.5 15.5
q60 0 97 -28t37 -75q0 -53 -36 -94t-98 -85l-50 -39h148l-23 -118h-313z" />
    <glyph glyph-name="threequarters" unicode="&#xbe;" horiz-adv-x="899" 
d="M191 279q-46 0 -77.5 8.5t-57.5 25.5v110q26 -20 58 -30.5t61 -10.5q65 0 65 42q0 12 -10.5 22t-37.5 10h-55l20 93h44q31 0 50 11.5t19 34.5q0 13 -9.5 20t-23.5 7q-17 0 -35.5 -6.5t-46.5 -25.5l-46 85q37 26 74.5 37.5t81.5 11.5q62 0 99.5 -26.5t37.5 -74.5
q0 -46 -27 -72.5t-76 -40.5l-1 -4q38 -10 54.5 -31.5t16.5 -55.5q0 -62 -47 -101t-131 -39zM158 0l509 714h134l-506 -714h-137zM644 0l13 63h-175l16 86l221 281h148l-58 -272h53l-20 -95h-53l-13 -63h-132zM609 158h68l20 81q4 17 9 35.5t9 30.5q-7 -13 -19 -30.5
t-21 -29.5z" />
    <glyph glyph-name="questiondown" unicode="&#xbf;" horiz-adv-x="447" 
d="M334 300q-9 -51 -22 -83.5t-35 -56.5t-57 -51q-35 -26 -52.5 -42t-24 -28.5t-6.5 -26.5q0 -16 10 -26t32 -10q28 0 65 14.5t77 38.5l44 -133q-46 -31 -100.5 -49.5t-110.5 -18.5q-91 0 -141.5 41.5t-50.5 113.5q0 53 19 90.5t49 65t64 50.5q31 21 47.5 36t25 31.5
t15.5 43.5h152zM302 564q47 0 66.5 -20.5t19.5 -51.5q0 -47 -29.5 -81.5t-87.5 -34.5q-39 0 -60.5 19t-21.5 54q0 55 32.5 85t80.5 30z" />
    <glyph glyph-name="Agrave" unicode="&#xc0;" horiz-adv-x="623" 
d="M-59 0l343 715h234l42 -715h-183l-2 136h-183l-58 -136h-193zM256 285h119l-2 198q0 24 0.5 47.5t1.5 47.5h-3q-7 -24 -14 -46t-17 -45zM380 777q-19 19 -41 45.5t-41.5 54.5t-30.5 50v10h188q6 -31 16 -69t27 -79v-12h-118z" />
    <glyph glyph-name="Aacute" unicode="&#xc1;" horiz-adv-x="623" 
d="M-59 0l343 715h234l42 -715h-183l-2 136h-183l-58 -136h-193zM256 285h119l-2 198q0 24 0.5 47.5t1.5 47.5h-3q-7 -24 -14 -46t-17 -45zM317 777l1 11q32 31 65.5 71.5t59.5 77.5h201l-1 -7q-11 -13 -35.5 -34t-54 -44.5t-58 -43.5t-46.5 -31h-132z" />
    <glyph glyph-name="Acircumflex" unicode="&#xc2;" horiz-adv-x="623" 
d="M-59 0l343 715h234l42 -715h-183l-2 136h-183l-58 -136h-193zM256 285h119l-2 198q0 24 0.5 47.5t1.5 47.5h-3q-7 -24 -14 -46t-17 -45zM208 777v11q34 32 72.5 73t67.5 76h191q8 -21 20.5 -48t27.5 -53.5t28 -46.5l-1 -12h-119q-14 14 -32.5 37t-32.5 41
q-26 -22 -50.5 -42t-48.5 -36h-123z" />
    <glyph glyph-name="Atilde" unicode="&#xc3;" horiz-adv-x="623" 
d="M-59 0l343 715h234l42 -715h-183l-2 136h-183l-58 -136h-193zM256 285h119l-2 198q0 24 0.5 47.5t1.5 47.5h-3q-7 -24 -14 -46t-17 -45zM227 775q15 82 49.5 124.5t92.5 42.5q30 0 52 -12t41 -24t39 -12q32 0 48 49h91q-17 -93 -55.5 -130t-89.5 -37q-32 0 -55 12t-42 24
t-38 12q-13 0 -25.5 -12.5t-16.5 -36.5h-91z" />
    <glyph glyph-name="Adieresis" unicode="&#xc4;" horiz-adv-x="623" 
d="M-59 0l343 715h234l42 -715h-183l-2 136h-183l-58 -136h-193zM256 285h119l-2 198q0 24 0.5 47.5t1.5 47.5h-3q-7 -24 -14 -46t-17 -45zM531 785q-34 0 -54.5 13t-20.5 47q0 44 24.5 68.5t70.5 24.5q29 0 51.5 -12.5t22.5 -46.5q0 -42 -23.5 -68t-70.5 -26zM311 785
q-34 0 -54.5 13t-20.5 47q0 44 24.5 68.5t70.5 24.5q29 0 51.5 -12.5t22.5 -46.5q0 -42 -23.5 -68t-70.5 -26z" />
    <glyph glyph-name="Aring" unicode="&#xc5;" horiz-adv-x="623" 
d="M-59 0l343 715h234l42 -715h-183l-2 136h-183l-58 -136h-193zM256 285h119l-2 198q0 24 0.5 47.5t1.5 47.5h-3q-7 -24 -14 -46t-17 -45zM423 760q-58 0 -93.5 33.5t-35.5 89.5q0 57 35.5 90t93.5 33q53 0 90.5 -33t37.5 -88q0 -57 -36 -91t-92 -34zM423 841
q18 0 30.5 11.5t12.5 30.5t-12.5 31t-30.5 12q-19 0 -31.5 -12t-12.5 -31t11 -30.5t33 -11.5z" />
    <glyph glyph-name="AE" unicode="&#xc6;" horiz-adv-x="851" 
d="M-61 0l410 714h539l-31 -151h-205l-24 -118h190l-33 -151h-191l-29 -141h205l-33 -153h-386l29 136h-171l-76 -136h-194zM296 291h117l57 272h-24z" />
    <glyph glyph-name="Ccedilla" unicode="&#xc7;" horiz-adv-x="572" 
d="M279 -10q-118 0 -176 71.5t-58 188.5q0 66 14 133.5t42 129t71 109t101.5 75.5t131.5 28q121 0 212 -60l-75 -142q-38 24 -69.5 35.5t-65.5 11.5q-42 0 -75 -30t-55 -78t-33.5 -102t-11.5 -101q0 -59 22.5 -87t63.5 -28q40 0 78 11t83 31v-155q-47 -22 -98 -31.5
t-102 -9.5zM246 -240q-54 0 -90 13v95q15 -4 36 -7.5t32 -3.5q35 0 35 28q0 13 -12.5 25t-50.5 18l41 72h91l-15 -25q35 -7 58 -28t23 -62q0 -64 -40 -94.5t-108 -30.5z" />
    <glyph glyph-name="Egrave" unicode="&#xc8;" horiz-adv-x="510" 
d="M8 0l151 714h388l-32 -151h-205l-25 -118h191l-33 -151h-191l-30 -141h206l-32 -153h-388zM331 768q-19 19 -41 45.5t-41.5 54.5t-30.5 50v10h188q6 -31 16 -69t27 -79v-12h-118z" />
    <glyph glyph-name="Eacute" unicode="&#xc9;" horiz-adv-x="510" 
d="M8 0l151 714h388l-32 -151h-205l-25 -118h191l-33 -151h-191l-30 -141h206l-32 -153h-388zM271 768l1 11q32 31 65.5 71.5t59.5 77.5h201l-1 -7q-11 -13 -35.5 -34t-54 -44.5t-58 -43.5t-46.5 -31h-132z" />
    <glyph glyph-name="Ecircumflex" unicode="&#xca;" horiz-adv-x="510" 
d="M8 0l151 714h388l-32 -151h-205l-25 -118h191l-33 -151h-191l-30 -141h206l-32 -153h-388zM159 768v11q34 32 72.5 73t67.5 76h191q8 -21 20.5 -48t27.5 -53.5t28 -46.5l-1 -12h-119q-14 14 -32.5 37t-32.5 41q-26 -22 -50.5 -42t-48.5 -36h-123z" />
    <glyph glyph-name="Edieresis" unicode="&#xcb;" horiz-adv-x="510" 
d="M8 0l151 714h388l-32 -151h-205l-25 -118h191l-33 -151h-191l-30 -141h206l-32 -153h-388zM479 776q-34 0 -54.5 13t-20.5 47q0 44 24.5 68.5t70.5 24.5q29 0 51.5 -12.5t22.5 -46.5q0 -42 -23.5 -68t-70.5 -26zM259 776q-34 0 -54.5 13t-20.5 47q0 44 24.5 68.5
t70.5 24.5q29 0 51.5 -12.5t22.5 -46.5q0 -42 -23.5 -68t-70.5 -26z" />
    <glyph glyph-name="Igrave" unicode="&#xcc;" horiz-adv-x="407" 
d="M-36 0l21 101l93 39l91 432l-76 41l21 101h355l-21 -101l-96 -41l-92 -432l78 -39l-21 -101h-353zM267 775q-19 19 -41 45.5t-41.5 54.5t-30.5 50v10h188q6 -31 16 -69t27 -79v-12h-118z" />
    <glyph glyph-name="Iacute" unicode="&#xcd;" horiz-adv-x="407" 
d="M-36 0l21 101l93 39l91 432l-76 41l21 101h355l-21 -101l-96 -41l-92 -432l78 -39l-21 -101h-353zM204 775l1 11q32 31 65.5 71.5t59.5 77.5h201l-1 -7q-11 -13 -35.5 -34t-54 -44.5t-58 -43.5t-46.5 -31h-132z" />
    <glyph glyph-name="Icircumflex" unicode="&#xce;" horiz-adv-x="407" 
d="M-36 0l21 101l93 39l91 432l-76 41l21 101h355l-21 -101l-96 -41l-92 -432l78 -39l-21 -101h-353zM95 775v11q34 32 72.5 73t67.5 76h191q8 -21 20.5 -48t27.5 -53.5t28 -46.5l-1 -12h-119q-14 14 -32.5 37t-32.5 41q-26 -22 -50.5 -42t-48.5 -36h-123z" />
    <glyph glyph-name="Idieresis" unicode="&#xcf;" horiz-adv-x="407" 
d="M-36 0l21 101l93 39l91 432l-76 41l21 101h355l-21 -101l-96 -41l-92 -432l78 -39l-21 -101h-353zM418 783q-34 0 -54.5 13t-20.5 47q0 44 24.5 68.5t70.5 24.5q29 0 51.5 -12.5t22.5 -46.5q0 -42 -23.5 -68t-70.5 -26zM198 783q-34 0 -54.5 13t-20.5 47q0 44 24.5 68.5
t70.5 24.5q29 0 51.5 -12.5t22.5 -46.5q0 -42 -23.5 -68t-70.5 -26z" />
    <glyph glyph-name="Eth" unicode="&#xd0;" horiz-adv-x="632" 
d="M8 0l61 287h-63l31 145h63l59 282h193q126 0 193.5 -66.5t67.5 -187.5q0 -98 -24.5 -181.5t-73.5 -146t-121 -97.5t-166 -35h-220zM223 154h26q43 0 76 26t55.5 69t34 95.5t11.5 106.5t-23 82t-66 28h-28l-27 -129h78l-31 -145h-78z" />
    <glyph glyph-name="Ntilde" unicode="&#xd1;" horiz-adv-x="722" 
d="M8 0l151 714h209l116 -454h3q3 24 7.5 54t10 60t9.5 53l61 287h165l-151 -714h-208l-117 472h-3q-3 -20 -7 -53t-9 -68.5t-11 -62.5l-61 -288h-165zM276 766q15 82 49.5 124.5t92.5 42.5q30 0 52 -12t41 -24t39 -12q32 0 48 49h91q-17 -93 -55.5 -130t-89.5 -37
q-32 0 -55 12t-42 24t-38 12q-13 0 -25.5 -12.5t-16.5 -36.5h-91z" />
    <glyph glyph-name="Ograve" unicode="&#xd2;" horiz-adv-x="677" 
d="M295 -10q-125 0 -187.5 69t-62.5 194q0 67 14.5 134.5t44 128t73.5 107.5t103 74.5t133 27.5q123 0 184 -70t61 -193q0 -63 -13.5 -129.5t-41.5 -127.5t-71 -109.5t-102 -77t-135 -28.5zM310 145q36 0 65.5 28.5t51 75.5t33.5 103t12 111q0 52 -19.5 80t-55.5 28
q-38 0 -68.5 -30t-52 -78.5t-33 -104t-11.5 -105.5q0 -57 19.5 -82.5t58.5 -25.5zM401 768q-19 19 -41 45.5t-41.5 54.5t-30.5 50v10h188q6 -31 16 -69t27 -79v-12h-118z" />
    <glyph glyph-name="Oacute" unicode="&#xd3;" horiz-adv-x="677" 
d="M295 -10q-125 0 -187.5 69t-62.5 194q0 67 14.5 134.5t44 128t73.5 107.5t103 74.5t133 27.5q123 0 184 -70t61 -193q0 -63 -13.5 -129.5t-41.5 -127.5t-71 -109.5t-102 -77t-135 -28.5zM310 145q36 0 65.5 28.5t51 75.5t33.5 103t12 111q0 52 -19.5 80t-55.5 28
q-38 0 -68.5 -30t-52 -78.5t-33 -104t-11.5 -105.5q0 -57 19.5 -82.5t58.5 -25.5zM340 768l1 11q32 31 65.5 71.5t59.5 77.5h201l-1 -7q-11 -13 -35.5 -34t-54 -44.5t-58 -43.5t-46.5 -31h-132z" />
    <glyph glyph-name="Ocircumflex" unicode="&#xd4;" horiz-adv-x="677" 
d="M295 -10q-125 0 -187.5 69t-62.5 194q0 67 14.5 134.5t44 128t73.5 107.5t103 74.5t133 27.5q123 0 184 -70t61 -193q0 -63 -13.5 -129.5t-41.5 -127.5t-71 -109.5t-102 -77t-135 -28.5zM310 145q36 0 65.5 28.5t51 75.5t33.5 103t12 111q0 52 -19.5 80t-55.5 28
q-38 0 -68.5 -30t-52 -78.5t-33 -104t-11.5 -105.5q0 -57 19.5 -82.5t58.5 -25.5zM224 768v11q34 32 72.5 73t67.5 76h191q8 -21 20.5 -48t27.5 -53.5t28 -46.5l-1 -12h-119q-14 14 -32.5 37t-32.5 41q-26 -22 -50.5 -42t-48.5 -36h-123z" />
    <glyph glyph-name="Otilde" unicode="&#xd5;" horiz-adv-x="677" 
d="M295 -10q-125 0 -187.5 69t-62.5 194q0 67 14.5 134.5t44 128t73.5 107.5t103 74.5t133 27.5q123 0 184 -70t61 -193q0 -63 -13.5 -129.5t-41.5 -127.5t-71 -109.5t-102 -77t-135 -28.5zM310 145q36 0 65.5 28.5t51 75.5t33.5 103t12 111q0 52 -19.5 80t-55.5 28
q-38 0 -68.5 -30t-52 -78.5t-33 -104t-11.5 -105.5q0 -57 19.5 -82.5t58.5 -25.5zM248 766q15 82 49.5 124.5t92.5 42.5q30 0 52 -12t41 -24t39 -12q32 0 48 49h91q-17 -93 -55.5 -130t-89.5 -37q-32 0 -55 12t-42 24t-38 12q-13 0 -25.5 -12.5t-16.5 -36.5h-91z" />
    <glyph glyph-name="Odieresis" unicode="&#xd6;" horiz-adv-x="677" 
d="M295 -10q-125 0 -187.5 69t-62.5 194q0 67 14.5 134.5t44 128t73.5 107.5t103 74.5t133 27.5q123 0 184 -70t61 -193q0 -63 -13.5 -129.5t-41.5 -127.5t-71 -109.5t-102 -77t-135 -28.5zM310 145q36 0 65.5 28.5t51 75.5t33.5 103t12 111q0 52 -19.5 80t-55.5 28
q-38 0 -68.5 -30t-52 -78.5t-33 -104t-11.5 -105.5q0 -57 19.5 -82.5t58.5 -25.5zM548 776q-34 0 -54.5 13t-20.5 47q0 44 24.5 68.5t70.5 24.5q29 0 51.5 -12.5t22.5 -46.5q0 -42 -23.5 -68t-70.5 -26zM328 776q-34 0 -54.5 13t-20.5 47q0 44 24.5 68.5t70.5 24.5
q29 0 51.5 -12.5t22.5 -46.5q0 -42 -23.5 -68t-70.5 -26z" />
    <glyph glyph-name="multiply" unicode="&#xd7;" horiz-adv-x="554" 
d="M409 572l92 -89l-131 -130l129 -129l-90 -90l-131 128l-128 -127l-88 91l125 127l-126 127l89 92l128 -126z" />
    <glyph glyph-name="Oslash" unicode="&#xd8;" horiz-adv-x="677" 
d="M110 -48l-76 52l57 76q-46 65 -46 173q0 67 14.5 134.5t43.5 128t72.5 107.5t101.5 74.5t130 27.5q42 0 76.5 -8.5t62.5 -22.5l43 57l75 -52l-50 -68q44 -65 44 -169q0 -63 -13.5 -129.5t-41.5 -127.5t-70.5 -109.5t-100.5 -77t-131 -28.5q-85 0 -141 30zM233 268
l209 283q-18 20 -48 20q-33 0 -61.5 -23t-49.5 -62t-33.5 -88t-14.5 -100q-1 -8 -1.5 -15t-0.5 -15zM310 145q44 0 79 38.5t55.5 100t23.5 131.5q1 7 1 13v12l-207 -279q19 -16 48 -16z" />
    <glyph glyph-name="Ugrave" unicode="&#xd9;" horiz-adv-x="643" 
d="M269 -10q-102 0 -160 54t-58 141q0 35 8 73l98 456h182l-97 -454q-3 -14 -5 -28.5t-2 -26.5q0 -59 54 -59q38 0 60.5 27t36.5 94l96 447h182l-100 -469q-26 -124 -94 -189.5t-201 -65.5zM383 768q-19 19 -41 45.5t-41.5 54.5t-30.5 50v10h188q6 -31 16 -69t27 -79v-12
h-118z" />
    <glyph glyph-name="Uacute" unicode="&#xda;" horiz-adv-x="643" 
d="M269 -10q-102 0 -160 54t-58 141q0 35 8 73l98 456h182l-97 -454q-3 -14 -5 -28.5t-2 -26.5q0 -59 54 -59q38 0 60.5 27t36.5 94l96 447h182l-100 -469q-26 -124 -94 -189.5t-201 -65.5zM326 768l1 11q32 31 65.5 71.5t59.5 77.5h201l-1 -7q-11 -13 -35.5 -34t-54 -44.5
t-58 -43.5t-46.5 -31h-132z" />
    <glyph glyph-name="Ucircumflex" unicode="&#xdb;" horiz-adv-x="643" 
d="M269 -10q-102 0 -160 54t-58 141q0 35 8 73l98 456h182l-97 -454q-3 -14 -5 -28.5t-2 -26.5q0 -59 54 -59q38 0 60.5 27t36.5 94l96 447h182l-100 -469q-26 -124 -94 -189.5t-201 -65.5zM209 768v11q34 32 72.5 73t67.5 76h191q8 -21 20.5 -48t27.5 -53.5t28 -46.5
l-1 -12h-119q-14 14 -32.5 37t-32.5 41q-26 -22 -50.5 -42t-48.5 -36h-123z" />
    <glyph glyph-name="Udieresis" unicode="&#xdc;" horiz-adv-x="643" 
d="M269 -10q-102 0 -160 54t-58 141q0 35 8 73l98 456h182l-97 -454q-3 -14 -5 -28.5t-2 -26.5q0 -59 54 -59q38 0 60.5 27t36.5 94l96 447h182l-100 -469q-26 -124 -94 -189.5t-201 -65.5zM531 776q-34 0 -54.5 13t-20.5 47q0 44 24.5 68.5t70.5 24.5q29 0 51.5 -12.5
t22.5 -46.5q0 -42 -23.5 -68t-70.5 -26zM311 776q-34 0 -54.5 13t-20.5 47q0 44 24.5 68.5t70.5 24.5q29 0 51.5 -12.5t22.5 -46.5q0 -42 -23.5 -68t-70.5 -26z" />
    <glyph glyph-name="Yacute" unicode="&#xdd;" horiz-adv-x="562" 
d="M125 0l57 274l-97 440h188l35 -252l139 252h201l-283 -438l-58 -276h-182zM277 768l1 11q32 31 65.5 71.5t59.5 77.5h201l-1 -7q-11 -13 -35.5 -34t-54 -44.5t-58 -43.5t-46.5 -31h-132z" />
    <glyph glyph-name="Thorn" unicode="&#xde;" horiz-adv-x="571" 
d="M8 0l151 714h183l-22 -104h11q81 0 129.5 -26t70.5 -71t22 -101q0 -80 -35 -142.5t-100.5 -99t-158.5 -36.5h-41l-28 -134h-182zM251 285h24q43 0 68.5 29.5t25.5 85.5q0 27 -16.5 43t-47.5 16h-17z" />
    <glyph glyph-name="germandbls" unicode="&#xdf;" horiz-adv-x="652" 
d="M-36 -240q-22 0 -47 3t-44 9v145q12 -4 27.5 -6.5t27.5 -2.5q31 0 47.5 14t23.5 49l120 565q23 107 88 168t194 61q116 0 174.5 -48t58.5 -122q0 -55 -22.5 -91.5t-67.5 -63.5q-35 -21 -48.5 -36.5t-13.5 -31.5q0 -20 19.5 -32.5t45.5 -33.5q28 -22 43.5 -51t15.5 -72
q0 -52 -25 -96t-76 -70.5t-130 -26.5t-129 25l11 147q25 -16 58.5 -25t59.5 -9q25 0 37 11t12 25q0 10 -4 19t-17 21t-38 33q-41 31 -54 56.5t-13 54.5q0 46 23.5 76.5t68.5 60.5q32 21 47 40t15 45q0 19 -13 35.5t-50 16.5q-74 0 -95 -102l-122 -573q-12 -57 -36 -99
t-65.5 -65t-106.5 -23z" />
    <glyph glyph-name="agrave" unicode="&#xe0;" horiz-adv-x="563" 
d="M173 -10q-60 0 -101 46t-41 148q0 41 9 91.5t27.5 101t46.5 93t66 68t87 25.5q41 0 70 -19.5t48 -57.5h3l26 67h147l-117 -553h-144l2 62h-4q-23 -32 -51.5 -52t-73.5 -20zM248 136q22 0 39 21t29 53t18 64q6 27 8 45t2 33q0 30 -9 47t-28 17t-36 -21t-29.5 -54
t-20 -70.5t-7.5 -69.5q0 -65 34 -65zM315 608q-19 19 -41 45.5t-41.5 54.5t-30.5 50v10h188q6 -31 16 -69t27 -79v-12h-118z" />
    <glyph glyph-name="aacute" unicode="&#xe1;" horiz-adv-x="563" 
d="M173 -10q-60 0 -101 46t-41 148q0 41 9 91.5t27.5 101t46.5 93t66 68t87 25.5q41 0 70 -19.5t48 -57.5h3l26 67h147l-117 -553h-144l2 62h-4q-23 -32 -51.5 -52t-73.5 -20zM248 136q22 0 39 21t29 53t18 64q6 27 8 45t2 33q0 30 -9 47t-28 17t-36 -21t-29.5 -54
t-20 -70.5t-7.5 -69.5q0 -65 34 -65zM253 608l1 11q32 31 65.5 71.5t59.5 77.5h201l-1 -7q-11 -13 -35.5 -34t-54 -44.5t-58 -43.5t-46.5 -31h-132z" />
    <glyph glyph-name="acircumflex" unicode="&#xe2;" horiz-adv-x="563" 
d="M173 -10q-60 0 -101 46t-41 148q0 41 9 91.5t27.5 101t46.5 93t66 68t87 25.5q41 0 70 -19.5t48 -57.5h3l26 67h147l-117 -553h-144l2 62h-4q-23 -32 -51.5 -52t-73.5 -20zM248 136q22 0 39 21t29 53t18 64q6 27 8 45t2 33q0 30 -9 47t-28 17t-36 -21t-29.5 -54
t-20 -70.5t-7.5 -69.5q0 -65 34 -65zM144 608v11q34 32 72.5 73t67.5 76h191q8 -21 20.5 -48t27.5 -53.5t28 -46.5l-1 -12h-119q-14 14 -32.5 37t-32.5 41q-26 -22 -50.5 -42t-48.5 -36h-123z" />
    <glyph glyph-name="atilde" unicode="&#xe3;" horiz-adv-x="563" 
d="M173 -10q-60 0 -101 46t-41 148q0 41 9 91.5t27.5 101t46.5 93t66 68t87 25.5q41 0 70 -19.5t48 -57.5h3l26 67h147l-117 -553h-144l2 62h-4q-23 -32 -51.5 -52t-73.5 -20zM248 136q22 0 39 21t29 53t18 64q6 27 8 45t2 33q0 30 -9 47t-28 17t-36 -21t-29.5 -54
t-20 -70.5t-7.5 -69.5q0 -65 34 -65zM163 606q15 82 49.5 124.5t92.5 42.5q30 0 52 -12t41 -24t39 -12q32 0 48 49h91q-17 -93 -55.5 -130t-89.5 -37q-32 0 -55 12t-42 24t-38 12q-13 0 -25.5 -12.5t-16.5 -36.5h-91z" />
    <glyph glyph-name="adieresis" unicode="&#xe4;" horiz-adv-x="563" 
d="M173 -10q-60 0 -101 46t-41 148q0 41 9 91.5t27.5 101t46.5 93t66 68t87 25.5q41 0 70 -19.5t48 -57.5h3l26 67h147l-117 -553h-144l2 62h-4q-23 -32 -51.5 -52t-73.5 -20zM248 136q22 0 39 21t29 53t18 64q6 27 8 45t2 33q0 30 -9 47t-28 17t-36 -21t-29.5 -54
t-20 -70.5t-7.5 -69.5q0 -65 34 -65zM467 616q-34 0 -54.5 13t-20.5 47q0 44 24.5 68.5t70.5 24.5q29 0 51.5 -12.5t22.5 -46.5q0 -42 -23.5 -68t-70.5 -26zM247 616q-34 0 -54.5 13t-20.5 47q0 44 24.5 68.5t70.5 24.5q29 0 51.5 -12.5t22.5 -46.5q0 -42 -23.5 -68
t-70.5 -26z" />
    <glyph glyph-name="aring" unicode="&#xe5;" horiz-adv-x="563" 
d="M173 -10q-60 0 -101 46t-41 148q0 41 9 91.5t27.5 101t46.5 93t66 68t87 25.5q41 0 70 -19.5t48 -57.5h3l26 67h147l-117 -553h-144l2 62h-4q-23 -32 -51.5 -52t-73.5 -20zM248 136q22 0 39 21t29 53t18 64q6 27 8 45t2 33q0 30 -9 47t-28 17t-36 -21t-29.5 -54
t-20 -70.5t-7.5 -69.5q0 -65 34 -65zM362 604q-58 0 -93.5 33.5t-35.5 89.5q0 57 35.5 90t93.5 33q53 0 90.5 -33t37.5 -88q0 -57 -36 -91t-92 -34zM362 685q18 0 30.5 11.5t12.5 30.5t-12.5 31t-30.5 12q-19 0 -31.5 -12t-12.5 -31t11 -30.5t33 -11.5z" />
    <glyph glyph-name="ae" unicode="&#xe6;" horiz-adv-x="812" 
d="M169 -10q-57 0 -97.5 46t-40.5 148q0 45 9.5 96.5t28 101.5t47 91t66.5 65.5t85 24.5q78 0 118 -70h3l21 60h104l-1 -39q22 20 53.5 34.5t71.5 14.5q73 0 116 -41.5t43 -108.5q0 -95 -72.5 -147.5t-213.5 -52.5h-22q-1 -5 -1 -9v-8q0 -38 18.5 -55.5t55.5 -17.5
q39 0 76 12.5t81 36.5l-11 -135q-39 -23 -78 -35t-95 -12q-41 0 -69.5 12t-44.5 34l-11 -36h-111l6 60h-4q-23 -31 -54 -50.5t-77 -19.5zM509 330h9q64 0 87.5 22t23.5 48q0 15 -9.5 25.5t-28.5 10.5q-22 0 -39 -17t-28 -42t-15 -47zM248 136q22 0 39.5 21.5t29 53.5
t17.5 63q6 27 7.5 45t1.5 33q0 30 -10 47t-28 17q-19 0 -35.5 -20t-29 -52.5t-19.5 -70t-7 -72.5q0 -65 34 -65z" />
    <glyph glyph-name="ccedilla" unicode="&#xe7;" horiz-adv-x="465" 
d="M221 -10q-81 0 -134.5 51t-53.5 158q0 69 18.5 134.5t54.5 117t89.5 82t123.5 30.5q48 0 87.5 -10t77.5 -30l-62 -135q-21 12 -47 20.5t-50 8.5q-30 0 -51 -21t-34.5 -53.5t-20 -66.5t-6.5 -60q0 -43 13.5 -61t39.5 -18q30 0 61 11.5t66 32.5v-145q-35 -20 -77 -33
t-95 -13zM164 -240q-54 0 -90 13v95q15 -4 36 -7.5t32 -3.5q35 0 35 28q0 13 -12.5 25t-50.5 18l41 72h91l-15 -25q35 -7 58 -28t23 -62q0 -64 -40 -94.5t-108 -30.5z" />
    <glyph glyph-name="egrave" unicode="&#xe8;" horiz-adv-x="536" 
d="M238 -10q-98 0 -152 55t-54 152q0 67 18 132t55 118t94.5 84.5t136.5 31.5q84 0 134 -41.5t50 -108.5q0 -95 -72.5 -147.5t-214.5 -52.5h-22q-1 -5 -1 -9v-8q0 -38 18.5 -55.5t55.5 -17.5q40 0 74 11.5t77 33.5v-128q-44 -25 -89.5 -37.5t-107.5 -12.5zM232 330h10
q64 0 87.5 22t23.5 48q0 15 -10 25.5t-29 10.5q-28 0 -51 -31.5t-31 -74.5zM311 606q-19 19 -41 45.5t-41.5 54.5t-30.5 50v10h188q6 -31 16 -69t27 -79v-12h-118z" />
    <glyph glyph-name="eacute" unicode="&#xe9;" horiz-adv-x="536" 
d="M238 -10q-98 0 -152 55t-54 152q0 67 18 132t55 118t94.5 84.5t136.5 31.5q84 0 134 -41.5t50 -108.5q0 -95 -72.5 -147.5t-214.5 -52.5h-22q-1 -5 -1 -9v-8q0 -38 18.5 -55.5t55.5 -17.5q40 0 74 11.5t77 33.5v-128q-44 -25 -89.5 -37.5t-107.5 -12.5zM232 330h10
q64 0 87.5 22t23.5 48q0 15 -10 25.5t-29 10.5q-28 0 -51 -31.5t-31 -74.5zM242 606l1 11q32 31 65.5 71.5t59.5 77.5h201l-1 -7q-11 -13 -35.5 -34t-54 -44.5t-58 -43.5t-46.5 -31h-132z" />
    <glyph glyph-name="ecircumflex" unicode="&#xea;" horiz-adv-x="536" 
d="M238 -10q-98 0 -152 55t-54 152q0 67 18 132t55 118t94.5 84.5t136.5 31.5q84 0 134 -41.5t50 -108.5q0 -95 -72.5 -147.5t-214.5 -52.5h-22q-1 -5 -1 -9v-8q0 -38 18.5 -55.5t55.5 -17.5q40 0 74 11.5t77 33.5v-128q-44 -25 -89.5 -37.5t-107.5 -12.5zM232 330h10
q64 0 87.5 22t23.5 48q0 15 -10 25.5t-29 10.5q-28 0 -51 -31.5t-31 -74.5zM133 606v11q34 32 72.5 73t67.5 76h191q8 -21 20.5 -48t27.5 -53.5t28 -46.5l-1 -12h-119q-14 14 -32.5 37t-32.5 41q-26 -22 -50.5 -42t-48.5 -36h-123z" />
    <glyph glyph-name="edieresis" unicode="&#xeb;" horiz-adv-x="536" 
d="M238 -10q-98 0 -152 55t-54 152q0 67 18 132t55 118t94.5 84.5t136.5 31.5q84 0 134 -41.5t50 -108.5q0 -95 -72.5 -147.5t-214.5 -52.5h-22q-1 -5 -1 -9v-8q0 -38 18.5 -55.5t55.5 -17.5q40 0 74 11.5t77 33.5v-128q-44 -25 -89.5 -37.5t-107.5 -12.5zM232 330h10
q64 0 87.5 22t23.5 48q0 15 -10 25.5t-29 10.5q-28 0 -51 -31.5t-31 -74.5zM456 614q-34 0 -54.5 13t-20.5 47q0 44 24.5 68.5t70.5 24.5q29 0 51.5 -12.5t22.5 -46.5q0 -42 -23.5 -68t-70.5 -26zM236 614q-34 0 -54.5 13t-20.5 47q0 44 24.5 68.5t70.5 24.5
q29 0 51.5 -12.5t22.5 -46.5q0 -42 -23.5 -68t-70.5 -26z" />
    <glyph glyph-name="igrave" unicode="&#xec;" horiz-adv-x="298" 
d="M3 0l117 553h179l-118 -553h-178zM185 606q-19 19 -41 45.5t-41.5 54.5t-30.5 50v10h188q6 -31 16 -69t27 -79v-12h-118z" />
    <glyph glyph-name="iacute" unicode="&#xed;" horiz-adv-x="298" 
d="M3 0l117 553h179l-118 -553h-178zM124 606l1 11q32 31 65.5 71.5t59.5 77.5h201l-1 -7q-11 -13 -35.5 -34t-54 -44.5t-58 -43.5t-46.5 -31h-132z" />
    <glyph glyph-name="icircumflex" unicode="&#xee;" horiz-adv-x="298" 
d="M3 0l117 553h179l-118 -553h-178zM10 606v11q34 32 72.5 73t67.5 76h191q8 -21 20.5 -48t27.5 -53.5t28 -46.5l-1 -12h-119q-14 14 -32.5 37t-32.5 41q-26 -22 -50.5 -42t-48.5 -36h-123z" />
    <glyph glyph-name="idieresis" unicode="&#xef;" horiz-adv-x="298" 
d="M3 0l117 553h179l-118 -553h-178zM332 614q-34 0 -54.5 13t-20.5 47q0 44 24.5 68.5t70.5 24.5q29 0 51.5 -12.5t22.5 -46.5q0 -42 -23.5 -68t-70.5 -26zM112 614q-34 0 -54.5 13t-20.5 47q0 44 24.5 68.5t70.5 24.5q29 0 51.5 -12.5t22.5 -46.5q0 -42 -23.5 -68
t-70.5 -26z" />
    <glyph glyph-name="eth" unicode="&#xf0;" horiz-adv-x="533" 
d="M231 -10q-94 0 -147 54t-53 152q0 55 15.5 108.5t46.5 96.5t76.5 68.5t105.5 25.5q29 0 49.5 -10t34.5 -24l4 1q-3 27 -11.5 54t-22.5 51l-106 -56l-44 77l93 52q-10 10 -21.5 20t-22.5 20l65 88q26 -14 50 -29t46 -33l97 54l46 -77l-82 -48q33 -46 50.5 -115t17.5 -139
q0 -73 -14.5 -143t-48 -126t-88.5 -89t-136 -33zM248 126q21 0 37 16.5t27 42.5t16.5 54t5.5 51q0 68 -38 68q-22 0 -38 -17t-26.5 -43.5t-16 -55t-5.5 -50.5q0 -66 38 -66z" />
    <glyph glyph-name="ntilde" unicode="&#xf1;" horiz-adv-x="574" 
d="M2 0l118 553h142l-4 -72h3q51 82 140 82q65 0 101 -39.5t36 -107.5q0 -23 -3 -48.5t-8 -51.5l-67 -316h-178l63 304q4 16 7 36t3 36q0 39 -33 39q-27 0 -48 -36t-35 -103l-58 -276h-179zM176 606q15 82 49.5 124.5t92.5 42.5q30 0 52 -12t41 -24t39 -12q32 0 48 49h91
q-17 -93 -55.5 -130t-89.5 -37q-32 0 -55 12t-42 24t-38 12q-13 0 -25.5 -12.5t-16.5 -36.5h-91z" />
    <glyph glyph-name="ograve" unicode="&#xf2;" horiz-adv-x="560" 
d="M232 -10q-95 0 -147 54t-52 151q0 65 18 130t54 119t92.5 86.5t132.5 32.5q94 0 146 -54t52 -151q0 -66 -18 -131.5t-55 -119t-92.5 -85.5t-130.5 -32zM252 129q20 0 37.5 22t30.5 57.5t20 76t7 77.5q0 62 -39 62q-21 0 -38 -22t-29.5 -57.5t-19.5 -76t-7 -77.5
q0 -62 38 -62zM309 606q-19 19 -41 45.5t-41.5 54.5t-30.5 50v10h188q6 -31 16 -69t27 -79v-12h-118z" />
    <glyph glyph-name="oacute" unicode="&#xf3;" horiz-adv-x="560" 
d="M232 -10q-95 0 -147 54t-52 151q0 65 18 130t54 119t92.5 86.5t132.5 32.5q94 0 146 -54t52 -151q0 -66 -18 -131.5t-55 -119t-92.5 -85.5t-130.5 -32zM252 129q20 0 37.5 22t30.5 57.5t20 76t7 77.5q0 62 -39 62q-21 0 -38 -22t-29.5 -57.5t-19.5 -76t-7 -77.5
q0 -62 38 -62zM253 606l1 11q32 31 65.5 71.5t59.5 77.5h201l-1 -7q-11 -13 -35.5 -34t-54 -44.5t-58 -43.5t-46.5 -31h-132z" />
    <glyph glyph-name="ocircumflex" unicode="&#xf4;" horiz-adv-x="560" 
d="M232 -10q-95 0 -147 54t-52 151q0 65 18 130t54 119t92.5 86.5t132.5 32.5q94 0 146 -54t52 -151q0 -66 -18 -131.5t-55 -119t-92.5 -85.5t-130.5 -32zM252 129q20 0 37.5 22t30.5 57.5t20 76t7 77.5q0 62 -39 62q-21 0 -38 -22t-29.5 -57.5t-19.5 -76t-7 -77.5
q0 -62 38 -62zM135 606v11q34 32 72.5 73t67.5 76h191q8 -21 20.5 -48t27.5 -53.5t28 -46.5l-1 -12h-119q-14 14 -32.5 37t-32.5 41q-26 -22 -50.5 -42t-48.5 -36h-123z" />
    <glyph glyph-name="otilde" unicode="&#xf5;" horiz-adv-x="560" 
d="M232 -10q-95 0 -147 54t-52 151q0 65 18 130t54 119t92.5 86.5t132.5 32.5q94 0 146 -54t52 -151q0 -66 -18 -131.5t-55 -119t-92.5 -85.5t-130.5 -32zM252 129q20 0 37.5 22t30.5 57.5t20 76t7 77.5q0 62 -39 62q-21 0 -38 -22t-29.5 -57.5t-19.5 -76t-7 -77.5
q0 -62 38 -62zM156 604q15 82 49.5 124.5t92.5 42.5q30 0 52 -12t41 -24t39 -12q32 0 48 49h91q-17 -93 -55.5 -130t-89.5 -37q-32 0 -55 12t-42 24t-38 12q-13 0 -25.5 -12.5t-16.5 -36.5h-91z" />
    <glyph glyph-name="odieresis" unicode="&#xf6;" horiz-adv-x="560" 
d="M232 -10q-95 0 -147 54t-52 151q0 65 18 130t54 119t92.5 86.5t132.5 32.5q94 0 146 -54t52 -151q0 -66 -18 -131.5t-55 -119t-92.5 -85.5t-130.5 -32zM252 129q20 0 37.5 22t30.5 57.5t20 76t7 77.5q0 62 -39 62q-21 0 -38 -22t-29.5 -57.5t-19.5 -76t-7 -77.5
q0 -62 38 -62zM455 614q-34 0 -54.5 13t-20.5 47q0 44 24.5 68.5t70.5 24.5q29 0 51.5 -12.5t22.5 -46.5q0 -42 -23.5 -68t-70.5 -26zM235 614q-34 0 -54.5 13t-20.5 47q0 44 24.5 68.5t70.5 24.5q29 0 51.5 -12.5t22.5 -46.5q0 -42 -23.5 -68t-70.5 -26z" />
    <glyph glyph-name="divide" unicode="&#xf7;" horiz-adv-x="554" 
d="M281 461q-33 0 -55.5 21t-22.5 64q0 44 22 64t56 20q33 0 55 -20t22 -64q0 -43 -22.5 -64t-54.5 -21zM45 287v131h472v-131h-472zM281 75q-33 0 -55.5 21t-22.5 63q0 45 22 65t56 20q33 0 55 -20t22 -65q0 -42 -22.5 -63t-54.5 -21z" />
    <glyph glyph-name="oslash" unicode="&#xf8;" horiz-adv-x="573" 
d="M83 -58l-65 50l55 70q-40 52 -40 133q0 65 18.5 130t55.5 119t94 86.5t135 32.5q32 0 58 -6.5t49 -17.5l46 58l65 -49l-49 -63q17 -25 26.5 -56.5t9.5 -70.5q0 -66 -18.5 -131.5t-56 -119t-94 -85.5t-132.5 -32q-30 0 -55.5 6t-47.5 15zM202 223l150 193q-15 15 -35 15
q-27 0 -50.5 -24.5t-40 -66.5t-22.5 -95q-1 -5 -1.5 -10.5t-0.5 -11.5zM259 124q41 0 71.5 47t38.5 127q1 5 1.5 10.5t0.5 9.5l-144 -184q13 -10 32 -10z" />
    <glyph glyph-name="ugrave" unicode="&#xf9;" horiz-adv-x="574" 
d="M173 -10q-71 0 -103.5 42.5t-32.5 104.5q0 49 11 101l66 315h179l-64 -303q-4 -16 -6.5 -36t-2.5 -36q0 -20 9 -30t23 -10q26 0 47.5 36t35.5 104l59 275h178l-117 -553h-142l4 72h-4q-50 -82 -140 -82zM312 606q-19 19 -41 45.5t-41.5 54.5t-30.5 50v10h188
q6 -31 16 -69t27 -79v-12h-118z" />
    <glyph glyph-name="uacute" unicode="&#xfa;" horiz-adv-x="574" 
d="M173 -10q-71 0 -103.5 42.5t-32.5 104.5q0 49 11 101l66 315h179l-64 -303q-4 -16 -6.5 -36t-2.5 -36q0 -20 9 -30t23 -10q26 0 47.5 36t35.5 104l59 275h178l-117 -553h-142l4 72h-4q-50 -82 -140 -82zM263 606l1 11q32 31 65.5 71.5t59.5 77.5h201l-1 -7
q-11 -13 -35.5 -34t-54 -44.5t-58 -43.5t-46.5 -31h-132z" />
    <glyph glyph-name="ucircumflex" unicode="&#xfb;" horiz-adv-x="574" 
d="M173 -10q-71 0 -103.5 42.5t-32.5 104.5q0 49 11 101l66 315h179l-64 -303q-4 -16 -6.5 -36t-2.5 -36q0 -20 9 -30t23 -10q26 0 47.5 36t35.5 104l59 275h178l-117 -553h-142l4 72h-4q-50 -82 -140 -82zM142 606v11q34 32 72.5 73t67.5 76h191q8 -21 20.5 -48t27.5 -53.5
t28 -46.5l-1 -12h-119q-14 14 -32.5 37t-32.5 41q-26 -22 -50.5 -42t-48.5 -36h-123z" />
    <glyph glyph-name="udieresis" unicode="&#xfc;" horiz-adv-x="574" 
d="M173 -10q-71 0 -103.5 42.5t-32.5 104.5q0 49 11 101l66 315h179l-64 -303q-4 -16 -6.5 -36t-2.5 -36q0 -20 9 -30t23 -10q26 0 47.5 36t35.5 104l59 275h178l-117 -553h-142l4 72h-4q-50 -82 -140 -82zM463 614q-34 0 -54.5 13t-20.5 47q0 44 24.5 68.5t70.5 24.5
q29 0 51.5 -12.5t22.5 -46.5q0 -42 -23.5 -68t-70.5 -26zM243 614q-34 0 -54.5 13t-20.5 47q0 44 24.5 68.5t70.5 24.5q29 0 51.5 -12.5t22.5 -46.5q0 -42 -23.5 -68t-70.5 -26z" />
    <glyph glyph-name="yacute" unicode="&#xfd;" horiz-adv-x="512" 
d="M13 -240q-27 0 -45 2.5t-30 6.5l11 147q11 -3 23 -5t26 -2q35 0 56.5 15.5t38.5 47.5l18 35l-63 546h180l12 -240q2 -25 1.5 -48t-1.5 -45h4q6 23 15.5 50.5t16.5 44.5l102 238h190l-313 -620q-41 -83 -96 -128t-146 -45zM227 606l1 11q32 31 65.5 71.5t59.5 77.5h201
l-1 -7q-11 -13 -35.5 -34t-54 -44.5t-58 -43.5t-46.5 -31h-132z" />
    <glyph glyph-name="thorn" unicode="&#xfe;" horiz-adv-x="563" 
d="M-48 -240l212 1000h178l-31 -144q-10 -44 -20.5 -75t-12.5 -36h4q20 25 45.5 41.5t62.5 16.5q64 0 103 -48.5t39 -141.5q0 -66 -16 -133t-46.5 -124t-74.5 -91.5t-100 -34.5q-36 0 -63.5 19t-44.5 51h-3q-3 -35 -8 -68t-14 -79l-32 -153h-178zM259 137q19 0 35.5 21
t29 53.5t19.5 70t7 70.5q0 65 -35 65q-21 0 -38 -20.5t-29.5 -52.5t-19.5 -67q-8 -43 -8 -76q0 -30 10 -47t29 -17z" />
    <glyph glyph-name="ydieresis" unicode="&#xff;" horiz-adv-x="512" 
d="M13 -240q-27 0 -45 2.5t-30 6.5l11 147q11 -3 23 -5t26 -2q35 0 56.5 15.5t38.5 47.5l18 35l-63 546h180l12 -240q2 -25 1.5 -48t-1.5 -45h4q6 23 15.5 50.5t16.5 44.5l102 238h190l-313 -620q-41 -83 -96 -128t-146 -45zM429 614q-34 0 -54.5 13t-20.5 47
q0 44 24.5 68.5t70.5 24.5q29 0 51.5 -12.5t22.5 -46.5q0 -42 -23.5 -68t-70.5 -26zM209 614q-34 0 -54.5 13t-20.5 47q0 44 24.5 68.5t70.5 24.5q29 0 51.5 -12.5t22.5 -46.5q0 -42 -23.5 -68t-70.5 -26z" />
    <glyph glyph-name="Amacron" unicode="&#x100;" horiz-adv-x="623" 
d="M-59 0l343 715h234l42 -715h-183l-2 136h-183l-58 -136h-193zM256 285h119l-2 198q0 24 0.5 47.5t1.5 47.5h-3q-7 -24 -14 -46t-17 -45zM257 777l25 115h309l-24 -115h-310z" />
    <glyph glyph-name="amacron" unicode="&#x101;" horiz-adv-x="563" 
d="M173 -10q-60 0 -101 46t-41 148q0 41 9 91.5t27.5 101t46.5 93t66 68t87 25.5q41 0 70 -19.5t48 -57.5h3l26 67h147l-117 -553h-144l2 62h-4q-23 -32 -51.5 -52t-73.5 -20zM248 136q22 0 39 21t29 53t18 64q6 27 8 45t2 33q0 30 -9 47t-28 17t-36 -21t-29.5 -54
t-20 -70.5t-7.5 -69.5q0 -65 34 -65zM193 608l25 115h309l-24 -115h-310z" />
    <glyph glyph-name="Abreve" unicode="&#x102;" horiz-adv-x="623" 
d="M-59 0l343 715h234l42 -715h-183l-2 136h-183l-58 -136h-193zM256 285h119l-2 198q0 24 0.5 47.5t1.5 47.5h-3q-7 -24 -14 -46t-17 -45zM421 777q-80 0 -119 39t-39 102q0 20 5 40h103q0 -31 16 -48t48 -17q28 0 51.5 13t35.5 52h104q-15 -89 -66 -135t-139 -46z" />
    <glyph glyph-name="abreve" unicode="&#x103;" horiz-adv-x="563" 
d="M173 -10q-60 0 -101 46t-41 148q0 41 9 91.5t27.5 101t46.5 93t66 68t87 25.5q41 0 70 -19.5t48 -57.5h3l26 67h147l-117 -553h-144l2 62h-4q-23 -32 -51.5 -52t-73.5 -20zM248 136q22 0 39 21t29 53t18 64q6 27 8 45t2 33q0 30 -9 47t-28 17t-36 -21t-29.5 -54
t-20 -70.5t-7.5 -69.5q0 -65 34 -65zM356 608q-80 0 -119 39t-39 102q0 20 5 40h103q0 -31 16 -48t48 -17q28 0 51.5 13t35.5 52h104q-15 -89 -66 -135t-139 -46z" />
    <glyph glyph-name="Aogonek" unicode="&#x104;" horiz-adv-x="623" 
d="M-59 0l343 715h234l42 -715h-183l-2 136h-183l-58 -136h-193zM256 285h119l-2 198q0 24 0.5 47.5t1.5 47.5h-3q-7 -24 -14 -46t-17 -45zM402 -250q-56 0 -84 28t-28 69q0 49 30 86t75 67h112q-37 -34 -59.5 -60.5t-23.5 -56.5q0 -10 6 -16.5t17 -6.5q13 0 26 3t26 8
l-8 -108q-21 -7 -41.5 -10t-47.5 -3z" />
    <glyph glyph-name="aogonek" unicode="&#x105;" horiz-adv-x="563" 
d="M173 -10q-60 0 -101 46t-41 148q0 41 9 91.5t27.5 101t46.5 93t66 68t87 25.5q41 0 70 -19.5t48 -57.5h3l26 67h147l-117 -553h-144l2 62h-4q-23 -32 -51.5 -52t-73.5 -20zM248 136q22 0 39 21t29 53t18 64q6 27 8 45t2 33q0 30 -9 47t-28 17t-36 -21t-29.5 -54
t-20 -70.5t-7.5 -69.5q0 -65 34 -65zM313 -250q-56 0 -84 28t-28 69q0 49 30 86t75 67h112q-37 -34 -59.5 -60.5t-23.5 -56.5q0 -10 6 -16.5t17 -6.5q13 0 26 3t26 8l-8 -108q-21 -7 -41.5 -10t-47.5 -3z" />
    <glyph glyph-name="Cacute" unicode="&#x106;" horiz-adv-x="572" 
d="M279 -10q-118 0 -176 71.5t-58 188.5q0 66 14 133.5t42 129t71 109t101.5 75.5t131.5 28q121 0 212 -60l-75 -142q-38 24 -69.5 35.5t-65.5 11.5q-42 0 -75 -30t-55 -78t-33.5 -102t-11.5 -101q0 -59 22.5 -87t63.5 -28q40 0 78 11t83 31v-155q-47 -22 -98 -31.5
t-102 -9.5zM324 768l1 11q32 31 65.5 71.5t59.5 77.5h201l-1 -7q-11 -13 -35.5 -34t-54 -44.5t-58 -43.5t-46.5 -31h-132z" />
    <glyph glyph-name="cacute" unicode="&#x107;" horiz-adv-x="465" 
d="M221 -10q-81 0 -134.5 51t-53.5 158q0 69 18.5 134.5t54.5 117t89.5 82t123.5 30.5q48 0 87.5 -10t77.5 -30l-62 -135q-21 12 -47 20.5t-50 8.5q-30 0 -51 -21t-34.5 -53.5t-20 -66.5t-6.5 -60q0 -43 13.5 -61t39.5 -18q30 0 61 11.5t66 32.5v-145q-35 -20 -77 -33
t-95 -13zM234 606l1 11q32 31 65.5 71.5t59.5 77.5h201l-1 -7q-11 -13 -35.5 -34t-54 -44.5t-58 -43.5t-46.5 -31h-132z" />
    <glyph glyph-name="Ccircumflex" unicode="&#x108;" horiz-adv-x="572" 
d="M279 -10q-118 0 -176 71.5t-58 188.5q0 66 14 133.5t42 129t71 109t101.5 75.5t131.5 28q121 0 212 -60l-75 -142q-38 24 -69.5 35.5t-65.5 11.5q-42 0 -75 -30t-55 -78t-33.5 -102t-11.5 -101q0 -59 22.5 -87t63.5 -28q40 0 78 11t83 31v-155q-47 -22 -98 -31.5
t-102 -9.5zM208 768v11q34 32 72.5 73t67.5 76h191q8 -21 20.5 -48t27.5 -53.5t28 -46.5l-1 -12h-119q-14 14 -32.5 37t-32.5 41q-26 -22 -50.5 -42t-48.5 -36h-123z" />
    <glyph glyph-name="ccircumflex" unicode="&#x109;" horiz-adv-x="465" 
d="M221 -10q-81 0 -134.5 51t-53.5 158q0 69 18.5 134.5t54.5 117t89.5 82t123.5 30.5q48 0 87.5 -10t77.5 -30l-62 -135q-21 12 -47 20.5t-50 8.5q-30 0 -51 -21t-34.5 -53.5t-20 -66.5t-6.5 -60q0 -43 13.5 -61t39.5 -18q30 0 61 11.5t66 32.5v-145q-35 -20 -77 -33
t-95 -13zM111 606v11q34 32 72.5 73t67.5 76h191q8 -21 20.5 -48t27.5 -53.5t28 -46.5l-1 -12h-119q-14 14 -32.5 37t-32.5 41q-26 -22 -50.5 -42t-48.5 -36h-123z" />
    <glyph glyph-name="Cdot" unicode="&#x10a;" horiz-adv-x="572" 
d="M279 -10q-118 0 -176 71.5t-58 188.5q0 66 14 133.5t42 129t71 109t101.5 75.5t131.5 28q121 0 212 -60l-75 -142q-38 24 -69.5 35.5t-65.5 11.5q-42 0 -75 -30t-55 -78t-33.5 -102t-11.5 -101q0 -59 22.5 -87t63.5 -28q40 0 78 11t83 31v-155q-47 -22 -98 -31.5
t-102 -9.5zM420 768q-39 0 -63 16t-24 53q0 49 27.5 75.5t79.5 26.5q36 0 61.5 -15t25.5 -55q0 -43 -24.5 -72t-82.5 -29z" />
    <glyph glyph-name="cdot" unicode="&#x10b;" horiz-adv-x="465" 
d="M221 -10q-81 0 -134.5 51t-53.5 158q0 69 18.5 134.5t54.5 117t89.5 82t123.5 30.5q48 0 87.5 -10t77.5 -30l-62 -135q-21 12 -47 20.5t-50 8.5q-30 0 -51 -21t-34.5 -53.5t-20 -66.5t-6.5 -60q0 -43 13.5 -61t39.5 -18q30 0 61 11.5t66 32.5v-145q-35 -20 -77 -33
t-95 -13zM325 606q-39 0 -63 16t-24 53q0 49 27.5 75.5t79.5 26.5q36 0 61.5 -15t25.5 -55q0 -43 -24.5 -72t-82.5 -29z" />
    <glyph glyph-name="Ccaron" unicode="&#x10c;" horiz-adv-x="572" 
d="M279 -10q-118 0 -176 71.5t-58 188.5q0 66 14 133.5t42 129t71 109t101.5 75.5t131.5 28q121 0 212 -60l-75 -142q-38 24 -69.5 35.5t-65.5 11.5q-42 0 -75 -30t-55 -78t-33.5 -102t-11.5 -101q0 -59 22.5 -87t63.5 -28q40 0 78 11t83 31v-155q-47 -22 -98 -31.5
t-102 -9.5zM319 768q-13 33 -34.5 75t-41.5 73l1 12h119q14 -14 32.5 -37t31.5 -41q25 22 50 42t50 36h123l-1 -11q-21 -19 -47.5 -46.5t-51 -55t-40.5 -47.5h-191z" />
    <glyph glyph-name="ccaron" unicode="&#x10d;" horiz-adv-x="465" 
d="M221 -10q-81 0 -134.5 51t-53.5 158q0 69 18.5 134.5t54.5 117t89.5 82t123.5 30.5q48 0 87.5 -10t77.5 -30l-62 -135q-21 12 -47 20.5t-50 8.5q-30 0 -51 -21t-34.5 -53.5t-20 -66.5t-6.5 -60q0 -43 13.5 -61t39.5 -18q30 0 61 11.5t66 32.5v-145q-35 -20 -77 -33
t-95 -13zM221 606q-13 33 -34.5 75t-41.5 73l1 12h119q14 -14 32.5 -37t31.5 -41q25 22 50 42t50 36h123l-1 -11q-21 -19 -47.5 -46.5t-51 -55t-40.5 -47.5h-191z" />
    <glyph glyph-name="Dcaron" unicode="&#x10e;" horiz-adv-x="632" 
d="M8 0l151 714h189q125 0 195 -66t70 -188q0 -96 -25.5 -179.5t-75 -146.5t-122.5 -98.5t-169 -35.5h-213zM223 154h26q43 0 76 25.5t55.5 68t34 94.5t11.5 105q0 57 -23 85.5t-66 28.5h-28zM299 768q-13 33 -34.5 75t-41.5 73l1 12h119q14 -14 32.5 -37t31.5 -41
q25 22 50 42t50 36h123l-1 -11q-21 -19 -47.5 -46.5t-51 -55t-40.5 -47.5h-191z" />
    <glyph glyph-name="dcaron" unicode="&#x10f;" horiz-adv-x="686" 
d="M173 -10q-60 0 -101 46t-41 148q0 41 9 91t27 101t46 93t65.5 68t84.5 26q41 0 67 -18t46 -52h4q1 17 4 50.5t9 60.5l33 156h179l-161 -760h-144l2 59h-4q-23 -30 -50.5 -49.5t-74.5 -19.5zM248 136q22 0 40 22t30.5 56t19 71t6.5 67t-9 47t-27 17q-20 0 -37.5 -22
t-30 -56.5t-19.5 -71t-7 -65.5q0 -65 34 -65zM616 600v12q14 34 28 74t24 74h167v-10q-23 -40 -49 -76t-56 -74h-114z" />
    <glyph glyph-name="Dcroat" unicode="&#x110;" horiz-adv-x="632" 
d="M8 0l61 287h-63l31 145h63l59 282h193q126 0 193.5 -66.5t67.5 -187.5q0 -98 -24.5 -181.5t-73.5 -146t-121 -97.5t-166 -35h-220zM223 154h26q43 0 76 26t55.5 69t34 95.5t11.5 106.5t-23 82t-66 28h-28l-27 -129h78l-31 -145h-78z" />
    <glyph glyph-name="dcroat" unicode="&#x111;" horiz-adv-x="561" 
d="M173 -10q-60 0 -101 46t-41 148q0 55 14.5 115.5t43 113t69.5 85.5t94 33q40 0 69 -17.5t49 -52.5h4q1 14 3.5 46t7.5 59l1 5h-101l24 117h102l15 72h179l-15 -72h68l-25 -117h-68l-121 -571h-144l2 59h-4q-23 -30 -48.5 -49.5t-76.5 -19.5zM248 136q21 0 37.5 17.5
t28 45.5t17.5 60t6 61q0 30 -10 47t-29 17q-21 0 -36.5 -20t-26 -50t-16 -61t-5.5 -52q0 -65 34 -65z" />
    <glyph glyph-name="Emacron" unicode="&#x112;" horiz-adv-x="510" 
d="M8 0l151 714h388l-32 -151h-205l-25 -118h191l-33 -151h-191l-30 -141h206l-32 -153h-388zM206 768l25 115h309l-24 -115h-310z" />
    <glyph glyph-name="emacron" unicode="&#x113;" horiz-adv-x="536" 
d="M238 -10q-98 0 -152 55t-54 152q0 67 18 132t55 118t94.5 84.5t136.5 31.5q84 0 134 -41.5t50 -108.5q0 -95 -72.5 -147.5t-214.5 -52.5h-22q-1 -5 -1 -9v-8q0 -38 18.5 -55.5t55.5 -17.5q40 0 74 11.5t77 33.5v-128q-44 -25 -89.5 -37.5t-107.5 -12.5zM232 330h10
q64 0 87.5 22t23.5 48q0 15 -10 25.5t-29 10.5q-28 0 -51 -31.5t-31 -74.5zM183 606l25 115h309l-24 -115h-310z" />
    <glyph glyph-name="Ebreve" unicode="&#x114;" horiz-adv-x="510" 
d="M8 0l151 714h388l-32 -151h-205l-25 -118h191l-33 -151h-191l-30 -141h206l-32 -153h-388zM373 768q-80 0 -119 39t-39 102q0 20 5 40h103q0 -31 16 -48t48 -17q28 0 51.5 13t35.5 52h104q-15 -89 -66 -135t-139 -46z" />
    <glyph glyph-name="ebreve" unicode="&#x115;" horiz-adv-x="536" 
d="M238 -10q-98 0 -152 55t-54 152q0 67 18 132t55 118t94.5 84.5t136.5 31.5q84 0 134 -41.5t50 -108.5q0 -95 -72.5 -147.5t-214.5 -52.5h-22q-1 -5 -1 -9v-8q0 -38 18.5 -55.5t55.5 -17.5q40 0 74 11.5t77 33.5v-128q-44 -25 -89.5 -37.5t-107.5 -12.5zM232 330h10
q64 0 87.5 22t23.5 48q0 15 -10 25.5t-29 10.5q-28 0 -51 -31.5t-31 -74.5zM353 606q-80 0 -119 39t-39 102q0 20 5 40h103q0 -31 16 -48t48 -17q28 0 51.5 13t35.5 52h104q-15 -89 -66 -135t-139 -46z" />
    <glyph glyph-name="Edotaccent" unicode="&#x116;" horiz-adv-x="510" 
d="M8 0l151 714h388l-32 -151h-205l-25 -118h191l-33 -151h-191l-30 -141h206l-32 -153h-388zM367 763q-39 0 -63 16t-24 53q0 49 27.5 75.5t79.5 26.5q36 0 61.5 -15t25.5 -55q0 -43 -24.5 -72t-82.5 -29z" />
    <glyph glyph-name="edotaccent" unicode="&#x117;" horiz-adv-x="536" 
d="M238 -10q-98 0 -152 55t-54 152q0 67 18 132t55 118t94.5 84.5t136.5 31.5q84 0 134 -41.5t50 -108.5q0 -95 -72.5 -147.5t-214.5 -52.5h-22q-1 -5 -1 -9v-8q0 -38 18.5 -55.5t55.5 -17.5q40 0 74 11.5t77 33.5v-128q-44 -25 -89.5 -37.5t-107.5 -12.5zM232 330h10
q64 0 87.5 22t23.5 48q0 15 -10 25.5t-29 10.5q-28 0 -51 -31.5t-31 -74.5zM346 606q-39 0 -63 16t-24 53q0 49 27.5 75.5t79.5 26.5q36 0 61.5 -15t25.5 -55q0 -43 -24.5 -72t-82.5 -29z" />
    <glyph glyph-name="Eogonek" unicode="&#x118;" horiz-adv-x="510" 
d="M8 0l151 714h388l-32 -151h-205l-25 -118h191l-33 -151h-191l-30 -141h206l-32 -153h-388zM265 -250q-56 0 -84 28t-28 69q0 49 30 86t75 67h112q-37 -34 -59.5 -60.5t-23.5 -56.5q0 -10 6 -16.5t17 -6.5q13 0 26 3t26 8l-8 -108q-21 -7 -41.5 -10t-47.5 -3z" />
    <glyph glyph-name="eogonek" unicode="&#x119;" horiz-adv-x="536" 
d="M238 -10q-98 0 -152 55t-54 152q0 67 18 132t55 118t94.5 84.5t136.5 31.5q84 0 134 -41.5t50 -108.5q0 -95 -72.5 -147.5t-214.5 -52.5h-22q-1 -5 -1 -9v-8q0 -38 18.5 -55.5t55.5 -17.5q40 0 74 11.5t77 33.5v-128q-19 -10 -36 -18q-53 -42 -80 -75t-28 -62
q0 -22 23 -22q13 0 26 2.5t27 7.5l-9 -107q-39 -14 -89 -14q-55 0 -83.5 28t-28.5 69q0 45 25 79t63 62h-7zM232 330h10q64 0 87.5 22t23.5 48q0 15 -10 25.5t-29 10.5q-28 0 -51 -31.5t-31 -74.5z" />
    <glyph glyph-name="Ecaron" unicode="&#x11a;" horiz-adv-x="510" 
d="M8 0l151 714h388l-32 -151h-205l-25 -118h191l-33 -151h-191l-30 -141h206l-32 -153h-388zM267 768q-13 33 -34.5 75t-41.5 73l1 12h119q14 -14 32.5 -37t31.5 -41q25 22 50 42t50 36h123l-1 -11q-21 -19 -47.5 -46.5t-51 -55t-40.5 -47.5h-191z" />
    <glyph glyph-name="ecaron" unicode="&#x11b;" horiz-adv-x="536" 
d="M238 -10q-98 0 -152 55t-54 152q0 67 18 132t55 118t94.5 84.5t136.5 31.5q84 0 134 -41.5t50 -108.5q0 -95 -72.5 -147.5t-214.5 -52.5h-22q-1 -5 -1 -9v-8q0 -38 18.5 -55.5t55.5 -17.5q40 0 74 11.5t77 33.5v-128q-44 -25 -89.5 -37.5t-107.5 -12.5zM232 330h10
q64 0 87.5 22t23.5 48q0 15 -10 25.5t-29 10.5q-28 0 -51 -31.5t-31 -74.5zM243 606q-13 33 -34.5 75t-41.5 73l1 12h119q14 -14 32.5 -37t31.5 -41q25 22 50 42t50 36h123l-1 -11q-21 -19 -47.5 -46.5t-51 -55t-40.5 -47.5h-191z" />
    <glyph glyph-name="Gcircumflex" unicode="&#x11c;" horiz-adv-x="643" 
d="M296 -10q-118 0 -184 68t-66 198q0 85 24 168.5t73 151.5t124.5 108.5t178.5 40.5q58 0 111 -13.5t91 -36.5l-72 -147q-29 18 -64 30t-74 12q-54 0 -93 -30t-64 -77t-37 -100t-12 -99q0 -62 22 -90.5t64 -28.5q16 0 28 1.5t29 4.5l26 121h-96l31 146h275l-82 -386
q-53 -19 -111 -30.5t-122 -11.5zM235 768v11q34 32 72.5 73t67.5 76h191q8 -21 20.5 -48t27.5 -53.5t28 -46.5l-1 -12h-119q-14 14 -32.5 37t-32.5 41q-26 -22 -50.5 -42t-48.5 -36h-123z" />
    <glyph glyph-name="gcircumflex" unicode="&#x11d;" horiz-adv-x="563" 
d="M170 -240q-57 0 -98 9t-74 23v150q34 -19 78.5 -30.5t88.5 -11.5q43 0 67.5 21t32.5 55l5 20q2 12 6 26.5t9 28.5h-4q-22 -28 -48.5 -43t-68.5 -15q-58 0 -95.5 44t-37.5 143q0 42 9 93t27.5 102t47 93.5t67 68.5t87.5 26q45 0 70 -18.5t47 -58.5h3l25 67h147l-121 -572
q-18 -83 -56.5 -131t-93 -69t-120.5 -21zM249 137q22 0 39.5 23t30 58t19 72t6.5 66q0 27 -9 43.5t-28 16.5q-20 0 -37 -22t-29.5 -56t-19.5 -70.5t-7 -65.5q0 -65 35 -65zM140 608v11q34 32 72.5 73t67.5 76h191q8 -21 20.5 -48t27.5 -53.5t28 -46.5l-1 -12h-119
q-14 14 -32.5 37t-32.5 41q-26 -22 -50.5 -42t-48.5 -36h-123z" />
    <glyph glyph-name="Gbreve" unicode="&#x11e;" horiz-adv-x="643" 
d="M296 -10q-118 0 -184 68t-66 198q0 85 24 168.5t73 151.5t124.5 108.5t178.5 40.5q58 0 111 -13.5t91 -36.5l-72 -147q-29 18 -64 30t-74 12q-54 0 -93 -30t-64 -77t-37 -100t-12 -99q0 -62 22 -90.5t64 -28.5q16 0 28 1.5t29 4.5l26 121h-96l31 146h275l-82 -386
q-53 -19 -111 -30.5t-122 -11.5zM455 768q-80 0 -119 39t-39 102q0 20 5 40h103q0 -31 16 -48t48 -17q28 0 51.5 13t35.5 52h104q-15 -89 -66 -135t-139 -46z" />
    <glyph glyph-name="gbreve" unicode="&#x11f;" horiz-adv-x="563" 
d="M170 -240q-57 0 -98 9t-74 23v150q34 -19 78.5 -30.5t88.5 -11.5q43 0 67.5 21t32.5 55l5 20q2 12 6 26.5t9 28.5h-4q-22 -28 -48.5 -43t-68.5 -15q-58 0 -95.5 44t-37.5 143q0 42 9 93t27.5 102t47 93.5t67 68.5t87.5 26q45 0 70 -18.5t47 -58.5h3l25 67h147l-121 -572
q-18 -83 -56.5 -131t-93 -69t-120.5 -21zM249 137q22 0 39.5 23t30 58t19 72t6.5 66q0 27 -9 43.5t-28 16.5q-20 0 -37 -22t-29.5 -56t-19.5 -70.5t-7 -65.5q0 -65 35 -65zM352 608q-80 0 -119 39t-39 102q0 20 5 40h103q0 -31 16 -48t48 -17q28 0 51.5 13t35.5 52h104
q-15 -89 -66 -135t-139 -46z" />
    <glyph glyph-name="Gdot" unicode="&#x120;" horiz-adv-x="643" 
d="M296 -10q-118 0 -184 68t-66 198q0 85 24 168.5t73 151.5t124.5 108.5t178.5 40.5q58 0 111 -13.5t91 -36.5l-72 -147q-29 18 -64 30t-74 12q-54 0 -93 -30t-64 -77t-37 -100t-12 -99q0 -62 22 -90.5t64 -28.5q16 0 28 1.5t29 4.5l26 121h-96l31 146h275l-82 -386
q-53 -19 -111 -30.5t-122 -11.5zM448 768q-39 0 -63 16t-24 53q0 49 27.5 75.5t79.5 26.5q36 0 61.5 -15t25.5 -55q0 -43 -24.5 -72t-82.5 -29z" />
    <glyph glyph-name="gdot" unicode="&#x121;" horiz-adv-x="563" 
d="M170 -240q-57 0 -98 9t-74 23v150q34 -19 78.5 -30.5t88.5 -11.5q43 0 67.5 21t32.5 55l5 20q2 12 6 26.5t9 28.5h-4q-22 -28 -48.5 -43t-68.5 -15q-58 0 -95.5 44t-37.5 143q0 42 9 93t27.5 102t47 93.5t67 68.5t87.5 26q45 0 70 -18.5t47 -58.5h3l25 67h147l-121 -572
q-18 -83 -56.5 -131t-93 -69t-120.5 -21zM249 137q22 0 39.5 23t30 58t19 72t6.5 66q0 27 -9 43.5t-28 16.5q-20 0 -37 -22t-29.5 -56t-19.5 -70.5t-7 -65.5q0 -65 35 -65zM350 606q-39 0 -63 16t-24 53q0 49 27.5 75.5t79.5 26.5q36 0 61.5 -15t25.5 -55q0 -43 -24.5 -72
t-82.5 -29z" />
    <glyph glyph-name="uni0122" unicode="&#x122;" horiz-adv-x="643" 
d="M296 -10q-118 0 -184 68t-66 198q0 85 24 168.5t73 151.5t124.5 108.5t178.5 40.5q58 0 111 -13.5t91 -36.5l-72 -147q-29 18 -64 30t-74 12q-54 0 -93 -30t-64 -77t-37 -100t-12 -99q0 -62 22 -90.5t64 -28.5q16 0 28 1.5t29 4.5l26 121h-96l31 146h275l-82 -386
q-53 -19 -111 -30.5t-122 -11.5zM165 -221v13q12 32 27 73t24 74h167v-10q-21 -38 -48.5 -76.5t-56.5 -73.5h-113z" />
    <glyph glyph-name="uni0123" unicode="&#x123;" horiz-adv-x="563" 
d="M170 -240q-57 0 -98 9t-74 23v150q34 -19 78.5 -30.5t88.5 -11.5q43 0 67.5 21t32.5 55l5 20q2 12 6 26.5t9 28.5h-4q-22 -28 -48.5 -43t-68.5 -15q-58 0 -95.5 44t-37.5 143q0 42 9 93t27.5 102t47 93.5t67 68.5t87.5 26q45 0 70 -18.5t47 -58.5h3l25 67h147l-121 -572
q-18 -83 -56.5 -131t-93 -69t-120.5 -21zM249 137q22 0 39.5 23t30 58t19 72t6.5 66q0 27 -9 43.5t-28 16.5q-20 0 -37 -22t-29.5 -56t-19.5 -70.5t-7 -65.5q0 -65 35 -65zM243 606v10q21 38 48 76t58 74h112l1 -12q-13 -32 -28 -75t-24 -73h-167z" />
    <glyph glyph-name="Hcircumflex" unicode="&#x124;" horiz-adv-x="659" 
d="M8 0l151 714h183l-56 -267h153l56 267h182l-152 -714h-182l62 294h-152l-63 -294h-182zM218 768v11q34 32 72.5 73t67.5 76h191q8 -21 20.5 -48t27.5 -53.5t28 -46.5l-1 -12h-119q-14 14 -32.5 37t-32.5 41q-26 -22 -50.5 -42t-48.5 -36h-123z" />
    <glyph glyph-name="hcircumflex" unicode="&#x125;" horiz-adv-x="574" 
d="M2 0l162 760h178l-28 -128q-7 -33 -18.5 -69t-21.5 -63h4q47 63 125 63q69 0 102 -43t33 -105q0 -24 -3 -50t-8 -49l-67 -316h-178l63 304q4 16 7 35t3 37t-9.5 28.5t-24.5 10.5q-23 0 -44 -28.5t-36 -101.5l-60 -285h-179zM50 819v11q34 32 72.5 73t67.5 76h191
q8 -21 20.5 -48t27.5 -53.5t28 -46.5l-1 -12h-119q-14 14 -32.5 37t-32.5 41q-26 -22 -50.5 -42t-48.5 -36h-123z" />
    <glyph glyph-name="Hbar" unicode="&#x126;" horiz-adv-x="659" 
d="M8 0l110 522h-71l23 114h72l17 78h183l-16 -78h152l17 78h182l-17 -78h73l-24 -114h-73l-111 -522h-182l62 293h-152l-63 -293h-182zM285 443h153l16 79h-154z" />
    <glyph glyph-name="hbar" unicode="&#x127;" horiz-adv-x="574" 
d="M2 0l121 571h-71l25 117h71l16 72h178l-15 -72h112l-25 -117h-112q-8 -33 -17.5 -61.5t-18.5 -49.5h4q47 63 125 63q69 0 101.5 -43t32.5 -105q0 -24 -2.5 -50t-7.5 -49l-59 -276h-178l55 264q4 16 6.5 35t2.5 37q0 20 -9 29.5t-23 9.5q-29 0 -48.5 -32.5t-32.5 -97.5
l-52 -245h-179z" />
    <glyph glyph-name="Itilde" unicode="&#x128;" horiz-adv-x="407" 
d="M-36 0l21 101l93 39l91 432l-76 41l21 101h355l-21 -101l-96 -41l-92 -432l78 -39l-21 -101h-353zM114 773q15 82 49.5 124.5t92.5 42.5q30 0 52 -12t41 -24t39 -12q32 0 48 49h91q-17 -93 -55.5 -130t-89.5 -37q-32 0 -55 12t-42 24t-38 12q-13 0 -25.5 -12.5
t-16.5 -36.5h-91z" />
    <glyph glyph-name="itilde" unicode="&#x129;" horiz-adv-x="298" 
d="M3 0l117 553h179l-118 -553h-178zM29 604q15 82 49.5 124.5t92.5 42.5q30 0 52 -12t41 -24t39 -12q32 0 48 49h91q-17 -93 -55.5 -130t-89.5 -37q-32 0 -55 12t-42 24t-38 12q-13 0 -25.5 -12.5t-16.5 -36.5h-91z" />
    <glyph glyph-name="Imacron" unicode="&#x12a;" horiz-adv-x="407" 
d="M-36 0l21 101l93 39l91 432l-76 41l21 101h355l-21 -101l-96 -41l-92 -432l78 -39l-21 -101h-353zM144 775l25 115h309l-24 -115h-310z" />
    <glyph glyph-name="imacron" unicode="&#x12b;" horiz-adv-x="298" 
d="M3 0l117 553h179l-118 -553h-178zM60 606l25 115h309l-24 -115h-310z" />
    <glyph glyph-name="Ibreve" unicode="&#x12c;" horiz-adv-x="407" 
d="M-36 0l21 101l93 39l91 432l-76 41l21 101h355l-21 -101l-96 -41l-92 -432l78 -39l-21 -101h-353zM308 775q-80 0 -119 39t-39 102q0 20 5 40h103q0 -31 16 -48t48 -17q28 0 51.5 13t35.5 52h104q-15 -89 -66 -135t-139 -46z" />
    <glyph glyph-name="ibreve" unicode="&#x12d;" horiz-adv-x="298" 
d="M3 0l117 553h179l-118 -553h-178zM227 606q-80 0 -119 39t-39 102q0 20 5 40h103q0 -31 16 -48t48 -17q28 0 51.5 13t35.5 52h104q-15 -89 -66 -135t-139 -46z" />
    <glyph glyph-name="Iogonek" unicode="&#x12e;" horiz-adv-x="407" 
d="M-36 0l21 101l93 39l91 432l-76 41l21 101h355l-21 -101l-96 -41l-92 -432l78 -39l-21 -101h-353zM152 -250q-56 0 -84 28t-28 69q0 49 30 86t75 67h112q-37 -34 -59.5 -60.5t-23.5 -56.5q0 -10 6 -16.5t17 -6.5q13 0 26 3t26 8l-8 -108q-21 -7 -41.5 -10t-47.5 -3z" />
    <glyph glyph-name="iogonek" unicode="&#x12f;" horiz-adv-x="298" 
d="M228 606q-38 0 -62 15.5t-24 50.5q0 45 27 75t80 30q37 0 61.5 -15.5t24.5 -50.5q0 -46 -27.5 -75.5t-79.5 -29.5zM3 0l117 553h179l-118 -553h-178zM64 -250q-56 0 -84 28t-28 69q0 49 30 86t75 67h112q-37 -34 -59.5 -60.5t-23.5 -56.5q0 -10 6 -16.5t17 -6.5
q13 0 26 3t26 8l-8 -108q-21 -7 -41.5 -10t-47.5 -3z" />
    <glyph glyph-name="Idotaccent" unicode="&#x130;" horiz-adv-x="407" 
d="M-36 0l21 101l93 39l91 432l-76 41l21 101h355l-21 -101l-96 -41l-92 -432l78 -39l-21 -101h-353zM307 775q-39 0 -63 16t-24 53q0 49 27.5 75.5t79.5 26.5q36 0 61.5 -15t25.5 -55q0 -43 -24.5 -72t-82.5 -29z" />
    <glyph glyph-name="dotlessi" unicode="&#x131;" horiz-adv-x="298" 
d="M3 0l117 553h179l-118 -553h-178z" />
    <glyph glyph-name="IJ" unicode="&#x132;" horiz-adv-x="744" 
d="M-36 0l21 101l93 39l91 432l-76 41l21 101h355l-21 -101l-96 -41l-92 -432l78 -39l-21 -101h-353zM348 -225q-28 0 -53 4t-47 10l11 152q16 -5 34 -9t39 -4q44 0 68.5 32.5t37.5 92.5l141 661h183l-146 -685q-20 -92 -54 -148t-86.5 -81t-127.5 -25z" />
    <glyph glyph-name="ij" unicode="&#x133;" horiz-adv-x="596" 
d="M228 606q-38 0 -62 15.5t-24 50.5q0 45 27 75t80 30q37 0 61.5 -15.5t24.5 -50.5q0 -46 -27.5 -75.5t-79.5 -29.5zM3 0l117 553h179l-118 -553h-178zM529 606q-39 0 -62.5 15.5t-23.5 50.5q0 45 27.5 75t79.5 30q37 0 61.5 -15.5t24.5 -50.5q0 -46 -27 -75.5t-80 -29.5z
M262 -240q-23 0 -48 3t-44 9v145q15 -5 28.5 -7t25.5 -2q28 0 47 16t27 54l122 575h178l-127 -599q-11 -54 -35 -98t-66 -70t-108 -26z" />
    <glyph glyph-name="Jcircumflex" unicode="&#x134;" horiz-adv-x="337" 
d="M-59 -225q-28 0 -53 4t-47 10l11 152q16 -5 34 -9t39 -4q44 0 68.5 32.5t37.5 92.5l141 661h183l-146 -685q-20 -92 -54 -148t-86.5 -81t-127.5 -25zM62 768v11q34 32 72.5 73t67.5 76h191q8 -21 20.5 -48t27.5 -53.5t28 -46.5l-1 -12h-119q-14 14 -32.5 37t-32.5 41
q-26 -22 -50.5 -42t-48.5 -36h-123z" />
    <glyph glyph-name="jcircumflex" unicode="&#x135;" horiz-adv-x="298" 
d="M-36 -240q-23 0 -48 3t-44 9v145q15 -5 28.5 -7t25.5 -2q28 0 47 16t27 54l122 575h178l-127 -599q-11 -54 -35 -98t-66 -70t-108 -26zM7 606v11q34 32 72.5 73t67.5 76h191q8 -21 20.5 -48t27.5 -53.5t28 -46.5l-1 -12h-119q-14 14 -32.5 37t-32.5 41q-26 -22 -50.5 -42
t-48.5 -36h-123z" />
    <glyph glyph-name="uni0136" unicode="&#x136;" horiz-adv-x="611" 
d="M8 0l151 714h183l-64 -298l58 88l151 210h209l-253 -332l110 -382h-203l-67 274l-40 -24l-53 -250h-182zM126 -221v13q12 32 27 73t24 74h167v-10q-21 -38 -48.5 -76.5t-56.5 -73.5h-113z" />
    <glyph glyph-name="uni0137" unicode="&#x137;" horiz-adv-x="568" 
d="M2 0l160 760h179l-67 -313q-6 -27 -14.5 -58.5t-15.5 -52.5h3l175 217h201l-220 -246l114 -307h-200l-59 189l-45 -29l-32 -160h-179zM101 -221v13q12 32 27 73t24 74h167v-10q-21 -38 -48.5 -76.5t-56.5 -73.5h-113z" />
    <glyph glyph-name="kgreenlandic" unicode="&#x138;" horiz-adv-x="568" 
d="M2 0l117 553h178l-23 -106q-6 -28 -14 -56t-17 -52h3l174 214h202l-219 -246l114 -307h-200l-59 189l-45 -29l-32 -160h-179z" />
    <glyph glyph-name="Lacute" unicode="&#x139;" horiz-adv-x="480" 
d="M8 0l151 714h183l-120 -562h210l-32 -152h-392zM188 768l1 11q32 31 65.5 71.5t59.5 77.5h201l-1 -7q-11 -13 -35.5 -34t-54 -44.5t-58 -43.5t-46.5 -31h-132z" />
    <glyph glyph-name="lacute" unicode="&#x13a;" horiz-adv-x="298" 
d="M2 0l162 760h178l-161 -760h-179zM168 808l1 11q32 31 65.5 71.5t59.5 77.5h201l-1 -7q-11 -13 -35.5 -34t-54 -44.5t-58 -43.5t-46.5 -31h-132z" />
    <glyph glyph-name="uni013B" unicode="&#x13b;" horiz-adv-x="480" 
d="M8 0l151 714h183l-120 -562h210l-32 -152h-392zM67 -221v13q12 32 27 73t24 74h167v-10q-21 -38 -48.5 -76.5t-56.5 -73.5h-113z" />
    <glyph glyph-name="uni013C" unicode="&#x13c;" horiz-adv-x="298" 
d="M2 0l162 760h178l-161 -760h-179zM-51 -221v13q12 32 27 73t24 74h167v-10q-21 -38 -48.5 -76.5t-56.5 -73.5h-113z" />
    <glyph glyph-name="Lcaron" unicode="&#x13d;" horiz-adv-x="480" 
d="M8 0l151 714h183l-120 -562h210l-32 -152h-392zM358 553v12q14 34 28 74t24 74h167v-10q-23 -40 -49 -76t-56 -74h-114z" />
    <glyph glyph-name="lcaron" unicode="&#x13e;" horiz-adv-x="419" 
d="M2 0l162 760h178l-161 -760h-179zM350 600v12q14 34 28 74t24 74h167v-10q-23 -40 -49 -76t-56 -74h-114z" />
    <glyph glyph-name="Ldot" unicode="&#x13f;" horiz-adv-x="480" 
d="M8 0l151 714h183l-120 -562h210l-32 -152h-392zM407 289q-39 0 -63 16t-24 53q0 49 27.5 75.5t79.5 26.5q36 0 61.5 -15t25.5 -55q0 -43 -24.5 -72t-82.5 -29z" />
    <glyph glyph-name="ldot" unicode="&#x140;" horiz-adv-x="487" 
d="M2 0l162 760h178l-161 -760h-179zM400 258q-39 0 -63 16t-24 53q0 49 27.5 75.5t79.5 26.5q36 0 61.5 -15t25.5 -55q0 -43 -24.5 -72t-82.5 -29z" />
    <glyph glyph-name="Lslash" unicode="&#x141;" horiz-adv-x="495" 
d="M23 0l49 234l-34 -19l-63 109l132 80l67 310h182l-42 -194l77 45l65 -109l-178 -107l-41 -197h209l-32 -152h-391z" />
    <glyph glyph-name="lslash" unicode="&#x142;" horiz-adv-x="336" 
d="M22 0l50 235l-41 -19l-49 108l120 58l81 378h178l-62 -294l41 19l52 -107l-125 -59l-67 -319h-178z" />
    <glyph glyph-name="Nacute" unicode="&#x143;" horiz-adv-x="722" 
d="M8 0l151 714h209l116 -454h3q3 24 7.5 54t10 60t9.5 53l61 287h165l-151 -714h-208l-117 472h-3q-3 -20 -7 -53t-9 -68.5t-11 -62.5l-61 -288h-165zM378 768l1 11q32 31 65.5 71.5t59.5 77.5h201l-1 -7q-11 -13 -35.5 -34t-54 -44.5t-58 -43.5t-46.5 -31h-132z" />
    <glyph glyph-name="nacute" unicode="&#x144;" horiz-adv-x="574" 
d="M2 0l118 553h142l-4 -72h3q51 82 140 82q65 0 101 -39.5t36 -107.5q0 -23 -3 -48.5t-8 -51.5l-67 -316h-178l63 304q4 16 7 36t3 36q0 39 -33 39q-27 0 -48 -36t-35 -103l-58 -276h-179zM270 606l1 11q32 31 65.5 71.5t59.5 77.5h201l-1 -7q-11 -13 -35.5 -34t-54 -44.5
t-58 -43.5t-46.5 -31h-132z" />
    <glyph glyph-name="uni0145" unicode="&#x145;" horiz-adv-x="722" 
d="M8 0l151 714h209l116 -454h3q3 24 7.5 54t10 60t9.5 53l61 287h165l-151 -714h-208l-117 472h-3q-3 -20 -7 -53t-9 -68.5t-11 -62.5l-61 -288h-165zM164 -221v13q12 32 27 73t24 74h167v-10q-21 -38 -48.5 -76.5t-56.5 -73.5h-113z" />
    <glyph glyph-name="uni0146" unicode="&#x146;" horiz-adv-x="574" 
d="M2 0l118 553h142l-4 -72h3q51 82 140 82q65 0 101 -39.5t36 -107.5q0 -23 -3 -48.5t-8 -51.5l-67 -316h-178l63 304q4 16 7 36t3 36q0 39 -33 39q-27 0 -48 -36t-35 -103l-58 -276h-179zM91 -221v13q12 32 27 73t24 74h167v-10q-21 -38 -48.5 -76.5t-56.5 -73.5h-113z
" />
    <glyph glyph-name="Ncaron" unicode="&#x147;" horiz-adv-x="722" 
d="M8 0l151 714h209l116 -454h3q3 24 7.5 54t10 60t9.5 53l61 287h165l-151 -714h-208l-117 472h-3q-3 -20 -7 -53t-9 -68.5t-11 -62.5l-61 -288h-165zM369 768q-13 33 -34.5 75t-41.5 73l1 12h119q14 -14 32.5 -37t31.5 -41q25 22 50 42t50 36h123l-1 -11
q-21 -19 -47.5 -46.5t-51 -55t-40.5 -47.5h-191z" />
    <glyph glyph-name="ncaron" unicode="&#x148;" horiz-adv-x="574" 
d="M2 0l118 553h142l-4 -72h3q51 82 140 82q65 0 101 -39.5t36 -107.5q0 -23 -3 -48.5t-8 -51.5l-67 -316h-178l63 304q4 16 7 36t3 36q0 39 -33 39q-27 0 -48 -36t-35 -103l-58 -276h-179zM263 606q-13 33 -34.5 75t-41.5 73l1 12h119q14 -14 32.5 -37t31.5 -41
q25 22 50 42t50 36h123l-1 -11q-21 -19 -47.5 -46.5t-51 -55t-40.5 -47.5h-191z" />
    <glyph glyph-name="napostrophe" unicode="&#x149;" horiz-adv-x="685" 
d="M113 0l118 553h142l-4 -72h3q51 82 140 82q65 0 101 -39.5t36 -107.5q0 -23 -3 -48.5t-8 -51.5l-67 -316h-178l63 304q4 16 7 36t3 36q0 39 -33 39q-27 0 -48 -36t-35 -103l-58 -276h-179zM-15 454q25 63 49 131t44 129h165l3 -11q-24 -61 -56.5 -127t-66.5 -122h-138z
" />
    <glyph glyph-name="Eng" unicode="&#x14a;" horiz-adv-x="722" 
d="M326 -225q-50 0 -95 14l12 149q17 -6 35 -10t43 -4q35 0 62 19.5t38 60.5l-154 479h-4q-1 -19 -5.5 -52t-10 -69.5t-11.5 -63.5l-63 -298h-165l151 714h204l129 -403h4q4 36 12 82t16 80l51 241h165l-148 -700q-16 -77 -47.5 -130.5t-84 -81t-134.5 -27.5z" />
    <glyph glyph-name="eng" unicode="&#x14b;" horiz-adv-x="574" 
d="M240 -240q-26 0 -50.5 3.5t-40.5 8.5v145q15 -5 28.5 -7t24.5 -2q29 0 48 16t27 54l68 326q4 16 7 36t3 36q0 39 -33 39q-27 0 -47.5 -35.5t-33.5 -95.5l-60 -284h-179l118 553h142l-4 -72h3q51 82 140 82q65 0 101 -39.5t36 -107.5q0 -23 -3 -48.5t-8 -51.5l-77 -362
q-19 -88 -67.5 -141t-142.5 -53z" />
    <glyph glyph-name="Omacron" unicode="&#x14c;" horiz-adv-x="677" 
d="M295 -10q-125 0 -187.5 69t-62.5 194q0 67 14.5 134.5t44 128t73.5 107.5t103 74.5t133 27.5q123 0 184 -70t61 -193q0 -63 -13.5 -129.5t-41.5 -127.5t-71 -109.5t-102 -77t-135 -28.5zM310 145q36 0 65.5 28.5t51 75.5t33.5 103t12 111q0 52 -19.5 80t-55.5 28
q-38 0 -68.5 -30t-52 -78.5t-33 -104t-11.5 -105.5q0 -57 19.5 -82.5t58.5 -25.5zM277 768l25 115h309l-24 -115h-310z" />
    <glyph glyph-name="omacron" unicode="&#x14d;" horiz-adv-x="560" 
d="M232 -10q-95 0 -147 54t-52 151q0 65 18 130t54 119t92.5 86.5t132.5 32.5q94 0 146 -54t52 -151q0 -66 -18 -131.5t-55 -119t-92.5 -85.5t-130.5 -32zM252 129q20 0 37.5 22t30.5 57.5t20 76t7 77.5q0 62 -39 62q-21 0 -38 -22t-29.5 -57.5t-19.5 -76t-7 -77.5
q0 -62 38 -62zM184 606l25 115h309l-24 -115h-310z" />
    <glyph glyph-name="Obreve" unicode="&#x14e;" horiz-adv-x="677" 
d="M295 -10q-125 0 -187.5 69t-62.5 194q0 67 14.5 134.5t44 128t73.5 107.5t103 74.5t133 27.5q123 0 184 -70t61 -193q0 -63 -13.5 -129.5t-41.5 -127.5t-71 -109.5t-102 -77t-135 -28.5zM310 145q36 0 65.5 28.5t51 75.5t33.5 103t12 111q0 52 -19.5 80t-55.5 28
q-38 0 -68.5 -30t-52 -78.5t-33 -104t-11.5 -105.5q0 -57 19.5 -82.5t58.5 -25.5zM445 768q-80 0 -119 39t-39 102q0 20 5 40h103q0 -31 16 -48t48 -17q28 0 51.5 13t35.5 52h104q-15 -89 -66 -135t-139 -46z" />
    <glyph glyph-name="obreve" unicode="&#x14f;" horiz-adv-x="560" 
d="M232 -10q-95 0 -147 54t-52 151q0 65 18 130t54 119t92.5 86.5t132.5 32.5q94 0 146 -54t52 -151q0 -66 -18 -131.5t-55 -119t-92.5 -85.5t-130.5 -32zM252 129q20 0 37.5 22t30.5 57.5t20 76t7 77.5q0 62 -39 62q-21 0 -38 -22t-29.5 -57.5t-19.5 -76t-7 -77.5
q0 -62 38 -62zM353 606q-80 0 -119 39t-39 102q0 20 5 40h103q0 -31 16 -48t48 -17q28 0 51.5 13t35.5 52h104q-15 -89 -66 -135t-139 -46z" />
    <glyph glyph-name="Ohungarumlaut" unicode="&#x150;" horiz-adv-x="677" 
d="M295 -10q-125 0 -187.5 69t-62.5 194q0 67 14.5 134.5t44 128t73.5 107.5t103 74.5t133 27.5q123 0 184 -70t61 -193q0 -63 -13.5 -129.5t-41.5 -127.5t-71 -109.5t-102 -77t-135 -28.5zM310 145q36 0 65.5 28.5t51 75.5t33.5 103t12 111q0 52 -19.5 80t-55.5 28
q-38 0 -68.5 -30t-52 -78.5t-33 -104t-11.5 -105.5q0 -57 19.5 -82.5t58.5 -25.5zM484 768l1 13q26 38 54.5 78.5t44.5 68.5h168v-9q-9 -13 -29.5 -33t-46.5 -42t-52.5 -42t-45.5 -34h-94zM275 768l1 13q28 38 56.5 78.5t45.5 68.5h167v-9q-8 -13 -28.5 -33t-47.5 -41.5
t-54 -41.5t-48 -35h-92z" />
    <glyph glyph-name="ohungarumlaut" unicode="&#x151;" horiz-adv-x="560" 
d="M232 -10q-95 0 -147 54t-52 151q0 65 18 130t54 119t92.5 86.5t132.5 32.5q94 0 146 -54t52 -151q0 -66 -18 -131.5t-55 -119t-92.5 -85.5t-130.5 -32zM252 129q20 0 37.5 22t30.5 57.5t20 76t7 77.5q0 62 -39 62q-21 0 -38 -22t-29.5 -57.5t-19.5 -76t-7 -77.5
q0 -62 38 -62zM390 606l1 13q26 38 54.5 78.5t44.5 68.5h168v-9q-9 -13 -29.5 -33t-46.5 -42t-52.5 -42t-45.5 -34h-94zM181 606l1 13q28 38 56.5 78.5t45.5 68.5h167v-9q-8 -13 -28.5 -33t-47.5 -41.5t-54 -41.5t-48 -35h-92z" />
    <glyph glyph-name="OE" unicode="&#x152;" horiz-adv-x="846" 
d="M280 -10q-79 0 -131 32t-78 88.5t-26 129.5q0 62 12.5 129.5t39 131t69 114t102.5 80.5t140 30q25 0 49 -3.5t42 -7.5h384l-32 -152h-205l-25 -117h191l-34 -152h-190l-30 -139h206l-32 -154h-366q-19 -4 -41 -7t-45 -3zM303 147q44 0 77 15l82 389q-25 20 -62 20
q-36 0 -66.5 -29.5t-53.5 -77.5t-35.5 -105t-12.5 -112q0 -53 18.5 -76.5t52.5 -23.5z" />
    <glyph glyph-name="oe" unicode="&#x153;" horiz-adv-x="820" 
d="M226 -10q-91 0 -142 54t-51 151q0 63 17 127.5t52.5 119t89.5 88t127 33.5q49 0 79.5 -15.5t51.5 -44.5q32 28 75 44t95 16q84 0 134 -41.5t50 -108.5q0 -95 -72.5 -147.5t-214.5 -52.5h-22q0 -5 -0.5 -9t-0.5 -8q0 -38 18.5 -55.5t55.5 -17.5q40 0 77 12.5t74 32.5v-128
q-43 -23 -89 -36.5t-108 -13.5q-50 0 -84 14.5t-56 42.5q-28 -27 -67 -42t-89 -15zM517 330h10q64 0 87 22t23 48q0 15 -10 25.5t-29 10.5q-20 0 -38 -17t-29.5 -42t-13.5 -47zM252 129q20 0 37.5 22t30.5 57.5t20 76t7 77.5q0 62 -39 62q-20 0 -37 -22t-30 -57t-20 -76
t-7 -78q0 -62 38 -62z" />
    <glyph glyph-name="Racute" unicode="&#x154;" horiz-adv-x="597" 
d="M8 0l151 714h179q239 0 239 -186q0 -64 -20 -109.5t-51.5 -75t-65.5 -44.5l110 -299h-200l-78 262h-26l-56 -262h-182zM276 403h21q40 0 67 29.5t27 79.5q0 26 -14 42t-46 16h-20zM295 768l1 11q32 31 65.5 71.5t59.5 77.5h201l-1 -7q-11 -13 -35.5 -34t-54 -44.5
t-58 -43.5t-46.5 -31h-132z" />
    <glyph glyph-name="racute" unicode="&#x155;" horiz-adv-x="406" 
d="M3 0l117 553h141l-6 -88h4q31 55 65.5 76.5t85.5 21.5q22 0 42 -5l-45 -183q-23 10 -56 10q-43 0 -72.5 -31t-43.5 -98l-54 -256h-178zM202 606l1 11q32 31 65.5 71.5t59.5 77.5h201l-1 -7q-11 -13 -35.5 -34t-54 -44.5t-58 -43.5t-46.5 -31h-132z" />
    <glyph glyph-name="uni0156" unicode="&#x156;" horiz-adv-x="597" 
d="M8 0l151 714h179q239 0 239 -186q0 -64 -20 -109.5t-51.5 -75t-65.5 -44.5l110 -299h-200l-78 262h-26l-56 -262h-182zM276 403h21q40 0 67 29.5t27 79.5q0 26 -14 42t-46 16h-20zM116 -221v13q12 32 27 73t24 74h167v-10q-21 -38 -48.5 -76.5t-56.5 -73.5h-113z" />
    <glyph glyph-name="uni0157" unicode="&#x157;" horiz-adv-x="406" 
d="M3 0l117 553h141l-6 -88h4q31 55 65.5 76.5t85.5 21.5q22 0 42 -5l-45 -183q-23 10 -56 10q-43 0 -72.5 -31t-43.5 -98l-54 -256h-178zM-46 -221v13q12 32 27 73t24 74h167v-10q-21 -38 -48.5 -76.5t-56.5 -73.5h-113z" />
    <glyph glyph-name="Rcaron" unicode="&#x158;" horiz-adv-x="597" 
d="M8 0l151 714h179q239 0 239 -186q0 -64 -20 -109.5t-51.5 -75t-65.5 -44.5l110 -299h-200l-78 262h-26l-56 -262h-182zM276 403h21q40 0 67 29.5t27 79.5q0 26 -14 42t-46 16h-20zM290 768q-13 33 -34.5 75t-41.5 73l1 12h119q14 -14 32.5 -37t31.5 -41q25 22 50 42
t50 36h123l-1 -11q-21 -19 -47.5 -46.5t-51 -55t-40.5 -47.5h-191z" />
    <glyph glyph-name="rcaron" unicode="&#x159;" horiz-adv-x="406" 
d="M3 0l117 553h141l-6 -88h4q31 55 65.5 76.5t85.5 21.5q22 0 42 -5l-45 -183q-23 10 -56 10q-43 0 -72.5 -31t-43.5 -98l-54 -256h-178zM196 606q-13 33 -34.5 75t-41.5 73l1 12h119q14 -14 32.5 -37t31.5 -41q25 22 50 42t50 36h123l-1 -11q-21 -19 -47.5 -46.5t-51 -55
t-40.5 -47.5h-191z" />
    <glyph glyph-name="Sacute" unicode="&#x15a;" horiz-adv-x="507" 
d="M186 -10q-53 0 -98.5 11.5t-80.5 35.5l13 171q34 -24 81.5 -42.5t88.5 -18.5q31 0 51.5 14t20.5 47q0 26 -19 47t-53 49q-48 40 -74.5 85t-26.5 109t30 115.5t85.5 81t134.5 29.5q51 0 101.5 -13.5t92.5 -39.5l-69 -147q-32 20 -65.5 33t-61.5 13q-34 0 -48.5 -17
t-14.5 -40q0 -21 14 -42t59 -55q55 -41 78.5 -86.5t23.5 -105.5q0 -68 -30 -120.5t-88.5 -83t-144.5 -30.5zM257 768l1 11q32 31 65.5 71.5t59.5 77.5h201l-1 -7q-11 -13 -35.5 -34t-54 -44.5t-58 -43.5t-46.5 -31h-132z" />
    <glyph glyph-name="sacute" unicode="&#x15b;" horiz-adv-x="460" 
d="M172 -10q-54 0 -93 8t-70 24v150q39 -23 76 -33t72 -10q19 0 39.5 7t20.5 28q0 15 -11.5 30t-54.5 42q-49 32 -68.5 67.5t-19.5 81.5q0 77 52 127.5t159 50.5q52 0 97 -13t82 -38l-60 -122q-26 20 -58.5 32t-55.5 12q-34 0 -34 -32q0 -14 12.5 -25.5t46.5 -32.5
q49 -28 73 -64.5t24 -90.5q0 -94 -61.5 -146.5t-167.5 -52.5zM199 606l1 11q32 31 65.5 71.5t59.5 77.5h201l-1 -7q-11 -13 -35.5 -34t-54 -44.5t-58 -43.5t-46.5 -31h-132z" />
    <glyph glyph-name="Scircumflex" unicode="&#x15c;" horiz-adv-x="507" 
d="M186 -10q-53 0 -98.5 11.5t-80.5 35.5l13 171q34 -24 81.5 -42.5t88.5 -18.5q31 0 51.5 14t20.5 47q0 26 -19 47t-53 49q-48 40 -74.5 85t-26.5 109t30 115.5t85.5 81t134.5 29.5q51 0 101.5 -13.5t92.5 -39.5l-69 -147q-32 20 -65.5 33t-61.5 13q-34 0 -48.5 -17
t-14.5 -40q0 -21 14 -42t59 -55q55 -41 78.5 -86.5t23.5 -105.5q0 -68 -30 -120.5t-88.5 -83t-144.5 -30.5zM145 768v11q34 32 72.5 73t67.5 76h191q8 -21 20.5 -48t27.5 -53.5t28 -46.5l-1 -12h-119q-14 14 -32.5 37t-32.5 41q-26 -22 -50.5 -42t-48.5 -36h-123z" />
    <glyph glyph-name="scircumflex" unicode="&#x15d;" horiz-adv-x="460" 
d="M172 -10q-54 0 -93 8t-70 24v150q39 -23 76 -33t72 -10q19 0 39.5 7t20.5 28q0 15 -11.5 30t-54.5 42q-49 32 -68.5 67.5t-19.5 81.5q0 77 52 127.5t159 50.5q52 0 97 -13t82 -38l-60 -122q-26 20 -58.5 32t-55.5 12q-34 0 -34 -32q0 -14 12.5 -25.5t46.5 -32.5
q49 -28 73 -64.5t24 -90.5q0 -94 -61.5 -146.5t-167.5 -52.5zM75 606v11q34 32 72.5 73t67.5 76h191q8 -21 20.5 -48t27.5 -53.5t28 -46.5l-1 -12h-119q-14 14 -32.5 37t-32.5 41q-26 -22 -50.5 -42t-48.5 -36h-123z" />
    <glyph glyph-name="Scedilla" unicode="&#x15e;" horiz-adv-x="507" 
d="M186 -10q-53 0 -98.5 11.5t-80.5 35.5l13 171q34 -24 81.5 -42.5t88.5 -18.5q31 0 51.5 14t20.5 47q0 26 -19 47t-53 49q-48 40 -74.5 85t-26.5 109t30 115.5t85.5 81t134.5 29.5q51 0 101.5 -13.5t92.5 -39.5l-69 -147q-32 20 -65.5 33t-61.5 13q-34 0 -48.5 -17
t-14.5 -40q0 -21 14 -42t59 -55q55 -41 78.5 -86.5t23.5 -105.5q0 -68 -30 -120.5t-88.5 -83t-144.5 -30.5zM149 -240q-54 0 -90 13v95q15 -4 36 -7.5t32 -3.5q35 0 35 28q0 13 -12.5 25t-50.5 18l41 72h91l-15 -25q35 -7 58 -28t23 -62q0 -64 -40 -94.5t-108 -30.5z" />
    <glyph glyph-name="scedilla" unicode="&#x15f;" horiz-adv-x="460" 
d="M172 -10q-54 0 -93 8t-70 24v150q39 -23 76 -33t72 -10q19 0 39.5 7t20.5 28q0 15 -11.5 30t-54.5 42q-49 32 -68.5 67.5t-19.5 81.5q0 77 52 127.5t159 50.5q52 0 97 -13t82 -38l-60 -122q-26 20 -58.5 32t-55.5 12q-34 0 -34 -32q0 -14 12.5 -25.5t46.5 -32.5
q49 -28 73 -64.5t24 -90.5q0 -94 -61.5 -146.5t-167.5 -52.5zM125 -240q-54 0 -90 13v95q15 -4 36 -7.5t32 -3.5q35 0 35 28q0 13 -12.5 25t-50.5 18l41 72h91l-15 -25q35 -7 58 -28t23 -62q0 -64 -40 -94.5t-108 -30.5z" />
    <glyph glyph-name="Scaron" unicode="&#x160;" horiz-adv-x="507" 
d="M186 -10q-53 0 -98.5 11.5t-80.5 35.5l13 171q34 -24 81.5 -42.5t88.5 -18.5q31 0 51.5 14t20.5 47q0 26 -19 47t-53 49q-48 40 -74.5 85t-26.5 109t30 115.5t85.5 81t134.5 29.5q51 0 101.5 -13.5t92.5 -39.5l-69 -147q-32 20 -65.5 33t-61.5 13q-34 0 -48.5 -17
t-14.5 -40q0 -21 14 -42t59 -55q55 -41 78.5 -86.5t23.5 -105.5q0 -68 -30 -120.5t-88.5 -83t-144.5 -30.5zM257 768q-13 33 -34.5 75t-41.5 73l1 12h119q14 -14 32.5 -37t31.5 -41q25 22 50 42t50 36h123l-1 -11q-21 -19 -47.5 -46.5t-51 -55t-40.5 -47.5h-191z" />
    <glyph glyph-name="scaron" unicode="&#x161;" horiz-adv-x="460" 
d="M172 -10q-54 0 -93 8t-70 24v150q39 -23 76 -33t72 -10q19 0 39.5 7t20.5 28q0 15 -11.5 30t-54.5 42q-49 32 -68.5 67.5t-19.5 81.5q0 77 52 127.5t159 50.5q52 0 97 -13t82 -38l-60 -122q-26 20 -58.5 32t-55.5 12q-34 0 -34 -32q0 -14 12.5 -25.5t46.5 -32.5
q49 -28 73 -64.5t24 -90.5q0 -94 -61.5 -146.5t-167.5 -52.5zM187 606q-13 33 -34.5 75t-41.5 73l1 12h119q14 -14 32.5 -37t31.5 -41q25 22 50 42t50 36h123l-1 -11q-21 -19 -47.5 -46.5t-51 -55t-40.5 -47.5h-191z" />
    <glyph glyph-name="uni0162" unicode="&#x162;" horiz-adv-x="507" 
d="M100 0l117 560h-140l33 154h464l-34 -154h-141l-117 -560h-182zM152 -240q-54 0 -90 13v95q15 -4 36 -7.5t32 -3.5q35 0 35 28q0 13 -12.5 25t-50.5 18l41 72h91l-15 -25q35 -7 58 -28t23 -62q0 -64 -40 -94.5t-108 -30.5z" />
    <glyph glyph-name="uni0163" unicode="&#x163;" horiz-adv-x="415" 
d="M184 -10q-70 0 -103 33.5t-33 98.5q0 19 3.5 43t8.5 47l42 202h-66l19 90l95 43l63 117h121l-24 -111h124l-30 -139h-124l-44 -205q-2 -11 -4 -22.5t-2 -18.5q0 -30 29 -30q33 0 79 20v-137q-62 -31 -154 -31zM136 -240q-54 0 -90 13v95q15 -4 36 -7.5t32 -3.5
q35 0 35 28q0 13 -12.5 25t-50.5 18l41 72h91l-15 -25q35 -7 58 -28t23 -62q0 -64 -40 -94.5t-108 -30.5z" />
    <glyph glyph-name="Tcaron" unicode="&#x164;" horiz-adv-x="507" 
d="M100 0l117 560h-140l33 154h464l-34 -154h-141l-117 -560h-182zM260 768q-13 33 -34.5 75t-41.5 73l1 12h119q14 -14 32.5 -37t31.5 -41q25 22 50 42t50 36h123l-1 -11q-21 -19 -47.5 -46.5t-51 -55t-40.5 -47.5h-191z" />
    <glyph glyph-name="tcaron" unicode="&#x165;" horiz-adv-x="434" 
d="M184 -10q-70 0 -103 33.5t-33 98.5q0 19 3.5 43t8.5 47l42 202h-66l19 90l95 43l63 117h121l-24 -111h124l-30 -139h-124l-44 -205q-2 -11 -4 -22.5t-2 -18.5q0 -30 29 -30q33 0 79 20v-137q-62 -31 -154 -31zM365 600v12q14 34 28 74t24 74h167v-10q-23 -40 -49 -76
t-56 -74h-114z" />
    <glyph glyph-name="Tbar" unicode="&#x166;" horiz-adv-x="507" 
d="M100 0l56 272h-89l31 145h89l30 143h-140l33 154h464l-34 -154h-141l-30 -143h91l-31 -145h-90l-57 -272h-182z" />
    <glyph glyph-name="tbar" unicode="&#x167;" horiz-adv-x="415" 
d="M185 -10q-70 0 -104.5 31t-34.5 96q0 16 2 34.5t6 38.5l6 27h-51l25 117h51l17 80h-66l19 90l95 43l62 116h122l-24 -110h124l-30 -139h-124l-17 -80h107l-25 -117h-108l-3 -17q-2 -12 -4 -21t-2 -17q0 -16 8 -20.5t22 -4.5q12 0 34 5t44 14v-136q-29 -15 -68 -22.5
t-83 -7.5z" />
    <glyph glyph-name="Utilde" unicode="&#x168;" horiz-adv-x="643" 
d="M269 -10q-102 0 -160 54t-58 141q0 35 8 73l98 456h182l-97 -454q-3 -14 -5 -28.5t-2 -26.5q0 -59 54 -59q38 0 60.5 27t36.5 94l96 447h182l-100 -469q-26 -124 -94 -189.5t-201 -65.5zM230 766q15 82 49.5 124.5t92.5 42.5q30 0 52 -12t41 -24t39 -12q32 0 48 49h91
q-17 -93 -55.5 -130t-89.5 -37q-32 0 -55 12t-42 24t-38 12q-13 0 -25.5 -12.5t-16.5 -36.5h-91z" />
    <glyph glyph-name="utilde" unicode="&#x169;" horiz-adv-x="574" 
d="M173 -10q-71 0 -103.5 42.5t-32.5 104.5q0 49 11 101l66 315h179l-64 -303q-4 -16 -6.5 -36t-2.5 -36q0 -20 9 -30t23 -10q26 0 47.5 36t35.5 104l59 275h178l-117 -553h-142l4 72h-4q-50 -82 -140 -82zM164 604q15 82 49.5 124.5t92.5 42.5q30 0 52 -12t41 -24t39 -12
q32 0 48 49h91q-17 -93 -55.5 -130t-89.5 -37q-32 0 -55 12t-42 24t-38 12q-13 0 -25.5 -12.5t-16.5 -36.5h-91z" />
    <glyph glyph-name="Umacron" unicode="&#x16a;" horiz-adv-x="643" 
d="M269 -10q-102 0 -160 54t-58 141q0 35 8 73l98 456h182l-97 -454q-3 -14 -5 -28.5t-2 -26.5q0 -59 54 -59q38 0 60.5 27t36.5 94l96 447h182l-100 -469q-26 -124 -94 -189.5t-201 -65.5zM256 768l25 115h309l-24 -115h-310z" />
    <glyph glyph-name="umacron" unicode="&#x16b;" horiz-adv-x="574" 
d="M173 -10q-71 0 -103.5 42.5t-32.5 104.5q0 49 11 101l66 315h179l-64 -303q-4 -16 -6.5 -36t-2.5 -36q0 -20 9 -30t23 -10q26 0 47.5 36t35.5 104l59 275h178l-117 -553h-142l4 72h-4q-50 -82 -140 -82zM191 606l25 115h309l-24 -115h-310z" />
    <glyph glyph-name="Ubreve" unicode="&#x16c;" horiz-adv-x="643" 
d="M269 -10q-102 0 -160 54t-58 141q0 35 8 73l98 456h182l-97 -454q-3 -14 -5 -28.5t-2 -26.5q0 -59 54 -59q38 0 60.5 27t36.5 94l96 447h182l-100 -469q-26 -124 -94 -189.5t-201 -65.5zM426 768q-80 0 -119 39t-39 102q0 20 5 40h103q0 -31 16 -48t48 -17q28 0 51.5 13
t35.5 52h104q-15 -89 -66 -135t-139 -46z" />
    <glyph glyph-name="ubreve" unicode="&#x16d;" horiz-adv-x="574" 
d="M173 -10q-71 0 -103.5 42.5t-32.5 104.5q0 49 11 101l66 315h179l-64 -303q-4 -16 -6.5 -36t-2.5 -36q0 -20 9 -30t23 -10q26 0 47.5 36t35.5 104l59 275h178l-117 -553h-142l4 72h-4q-50 -82 -140 -82zM361 606q-80 0 -119 39t-39 102q0 20 5 40h103q0 -31 16 -48
t48 -17q28 0 51.5 13t35.5 52h104q-15 -89 -66 -135t-139 -46z" />
    <glyph glyph-name="Uring" unicode="&#x16e;" horiz-adv-x="643" 
d="M269 -10q-102 0 -160 54t-58 141q0 35 8 73l98 456h182l-97 -454q-3 -14 -5 -28.5t-2 -26.5q0 -59 54 -59q38 0 60.5 27t36.5 94l96 447h182l-100 -469q-26 -124 -94 -189.5t-201 -65.5zM424 766q-58 0 -93.5 33.5t-35.5 89.5q0 57 35.5 90t93.5 33q53 0 90.5 -33
t37.5 -88q0 -57 -36 -91t-92 -34zM424 847q18 0 30.5 11.5t12.5 30.5t-12.5 31t-30.5 12q-19 0 -31.5 -12t-12.5 -31t11 -30.5t33 -11.5z" />
    <glyph glyph-name="uring" unicode="&#x16f;" horiz-adv-x="574" 
d="M173 -10q-71 0 -103.5 42.5t-32.5 104.5q0 49 11 101l66 315h179l-64 -303q-4 -16 -6.5 -36t-2.5 -36q0 -20 9 -30t23 -10q26 0 47.5 36t35.5 104l59 275h178l-117 -553h-142l4 72h-4q-50 -82 -140 -82zM365 604q-58 0 -93.5 33.5t-35.5 89.5q0 57 35.5 90t93.5 33
q53 0 90.5 -33t37.5 -88q0 -57 -36 -91t-92 -34zM365 685q18 0 30.5 11.5t12.5 30.5t-12.5 31t-30.5 12q-19 0 -31.5 -12t-12.5 -31t11 -30.5t33 -11.5z" />
    <glyph glyph-name="Uhungarumlaut" unicode="&#x170;" horiz-adv-x="643" 
d="M269 -10q-102 0 -160 54t-58 141q0 35 8 73l98 456h182l-97 -454q-3 -14 -5 -28.5t-2 -26.5q0 -59 54 -59q38 0 60.5 27t36.5 94l96 447h182l-100 -469q-26 -124 -94 -189.5t-201 -65.5zM464 768l1 13q26 38 54.5 78.5t44.5 68.5h168v-9q-9 -13 -29.5 -33t-46.5 -42
t-52.5 -42t-45.5 -34h-94zM255 768l1 13q28 38 56.5 78.5t45.5 68.5h167v-9q-8 -13 -28.5 -33t-47.5 -41.5t-54 -41.5t-48 -35h-92z" />
    <glyph glyph-name="uhungarumlaut" unicode="&#x171;" horiz-adv-x="574" 
d="M173 -10q-71 0 -103.5 42.5t-32.5 104.5q0 49 11 101l66 315h179l-64 -303q-4 -16 -6.5 -36t-2.5 -36q0 -20 9 -30t23 -10q26 0 47.5 36t35.5 104l59 275h178l-117 -553h-142l4 72h-4q-50 -82 -140 -82zM395 606l1 13q26 38 54.5 78.5t44.5 68.5h168v-9q-9 -13 -29.5 -33
t-46.5 -42t-52.5 -42t-45.5 -34h-94zM186 606l1 13q28 38 56.5 78.5t45.5 68.5h167v-9q-8 -13 -28.5 -33t-47.5 -41.5t-54 -41.5t-48 -35h-92z" />
    <glyph glyph-name="Uogonek" unicode="&#x172;" horiz-adv-x="643" 
d="M269 -10q-102 0 -160 54t-58 141q0 35 8 73l98 456h182l-97 -454q-3 -14 -5 -28.5t-2 -26.5q0 -59 54 -59q38 0 60.5 27t36.5 94l96 447h182l-100 -469q-26 -124 -94 -189.5t-201 -65.5zM251 -250q-56 0 -84 28t-28 69q0 49 30 86t75 67h112q-37 -34 -59.5 -60.5
t-23.5 -56.5q0 -10 6 -16.5t17 -6.5q13 0 26 3t26 8l-8 -108q-21 -7 -41.5 -10t-47.5 -3z" />
    <glyph glyph-name="uogonek" unicode="&#x173;" horiz-adv-x="574" 
d="M173 -10q-71 0 -103.5 42.5t-32.5 104.5q0 49 11 101l66 315h179l-64 -303q-4 -16 -6.5 -36t-2.5 -36q0 -20 9 -30t23 -10q26 0 47.5 36t35.5 104l59 275h178l-117 -553h-142l4 72h-4q-50 -82 -140 -82zM328 -250q-56 0 -84 28t-28 69q0 49 30 86t75 67h112
q-37 -34 -59.5 -60.5t-23.5 -56.5q0 -10 6 -16.5t17 -6.5q13 0 26 3t26 8l-8 -108q-21 -7 -41.5 -10t-47.5 -3z" />
    <glyph glyph-name="Wcircumflex" unicode="&#x174;" horiz-adv-x="865" 
d="M86 0l-5 714h174l-9 -335q-2 -42 -4.5 -82.5t-5.5 -69.5h3q11 31 25 68t29 71l148 348h154l-4 -354q-1 -30 -2 -67t-4 -71h3q10 34 26 80t32 86l126 326h181l-296 -714h-212l1 266q0 32 2 68t5 71h-3q-13 -37 -26 -73.5t-29 -71.5l-106 -260h-203zM318 768v11
q34 32 72.5 73t67.5 76h191q8 -21 20.5 -48t27.5 -53.5t28 -46.5l-1 -12h-119q-14 14 -32.5 37t-32.5 41q-26 -22 -50.5 -42t-48.5 -36h-123z" />
    <glyph glyph-name="wcircumflex" unicode="&#x175;" horiz-adv-x="770" 
d="M70 0l-15 553h170l-4 -234q-1 -29 -3 -58t-5 -54h4q6 24 14.5 50t16.5 50l92 246h193l-13 -241q-2 -21 -3.5 -49.5t-4.5 -59.5h4q9 31 18 59t20 57l94 234h177l-248 -553h-198l11 230q2 32 4.5 73t5.5 75h-4q-9 -34 -21 -70t-22 -62l-92 -246h-191zM237 606v11
q34 32 72.5 73t67.5 76h191q8 -21 20.5 -48t27.5 -53.5t28 -46.5l-1 -12h-119q-14 14 -32.5 37t-32.5 41q-26 -22 -50.5 -42t-48.5 -36h-123z" />
    <glyph glyph-name="Ycircumflex" unicode="&#x176;" horiz-adv-x="562" 
d="M125 0l57 274l-97 440h188l35 -252l139 252h201l-283 -438l-58 -276h-182zM158 768v11q34 32 72.5 73t67.5 76h191q8 -21 20.5 -48t27.5 -53.5t28 -46.5l-1 -12h-119q-14 14 -32.5 37t-32.5 41q-26 -22 -50.5 -42t-48.5 -36h-123z" />
    <glyph glyph-name="ycircumflex" unicode="&#x177;" horiz-adv-x="512" 
d="M13 -240q-27 0 -45 2.5t-30 6.5l11 147q11 -3 23 -5t26 -2q35 0 56.5 15.5t38.5 47.5l18 35l-63 546h180l12 -240q2 -25 1.5 -48t-1.5 -45h4q6 23 15.5 50.5t16.5 44.5l102 238h190l-313 -620q-41 -83 -96 -128t-146 -45zM106 606v11q34 32 72.5 73t67.5 76h191
q8 -21 20.5 -48t27.5 -53.5t28 -46.5l-1 -12h-119q-14 14 -32.5 37t-32.5 41q-26 -22 -50.5 -42t-48.5 -36h-123z" />
    <glyph glyph-name="Ydieresis" unicode="&#x178;" horiz-adv-x="562" 
d="M125 0l57 274l-97 440h188l35 -252l139 252h201l-283 -438l-58 -276h-182zM480 776q-34 0 -54.5 13t-20.5 47q0 44 24.5 68.5t70.5 24.5q29 0 51.5 -12.5t22.5 -46.5q0 -42 -23.5 -68t-70.5 -26zM260 776q-34 0 -54.5 13t-20.5 47q0 44 24.5 68.5t70.5 24.5
q29 0 51.5 -12.5t22.5 -46.5q0 -42 -23.5 -68t-70.5 -26z" />
    <glyph glyph-name="Zacute" unicode="&#x179;" horiz-adv-x="502" 
d="M-43 0l24 118l324 444h-222l32 152h448l-25 -119l-327 -443h245l-32 -152h-467zM260 768l1 11q32 31 65.5 71.5t59.5 77.5h201l-1 -7q-11 -13 -35.5 -34t-54 -44.5t-58 -43.5t-46.5 -31h-132z" />
    <glyph glyph-name="zacute" unicode="&#x17a;" horiz-adv-x="451" 
d="M-28 0l21 103l241 308h-165l31 142h375l-24 -113l-236 -298h179l-31 -142h-391zM204 606l1 11q32 31 65.5 71.5t59.5 77.5h201l-1 -7q-11 -13 -35.5 -34t-54 -44.5t-58 -43.5t-46.5 -31h-132z" />
    <glyph glyph-name="Zdotaccent" unicode="&#x17b;" horiz-adv-x="502" 
d="M-43 0l24 118l324 444h-222l32 152h448l-25 -119l-327 -443h245l-32 -152h-467zM360 768q-39 0 -63 16t-24 53q0 49 27.5 75.5t79.5 26.5q36 0 61.5 -15t25.5 -55q0 -43 -24.5 -72t-82.5 -29z" />
    <glyph glyph-name="zdotaccent" unicode="&#x17c;" horiz-adv-x="451" 
d="M-28 0l21 103l241 308h-165l31 142h375l-24 -113l-236 -298h179l-31 -142h-391zM297 606q-39 0 -63 16t-24 53q0 49 27.5 75.5t79.5 26.5q36 0 61.5 -15t25.5 -55q0 -43 -24.5 -72t-82.5 -29z" />
    <glyph glyph-name="Zcaron" unicode="&#x17d;" horiz-adv-x="502" 
d="M-43 0l24 118l324 444h-222l32 152h448l-25 -119l-327 -443h245l-32 -152h-467zM259 768q-13 33 -34.5 75t-41.5 73l1 12h119q14 -14 32.5 -37t31.5 -41q25 22 50 42t50 36h123l-1 -11q-21 -19 -47.5 -46.5t-51 -55t-40.5 -47.5h-191z" />
    <glyph glyph-name="zcaron" unicode="&#x17e;" horiz-adv-x="451" 
d="M-28 0l21 103l241 308h-165l31 142h375l-24 -113l-236 -298h179l-31 -142h-391zM195 606q-13 33 -34.5 75t-41.5 73l1 12h119q14 -14 32.5 -37t31.5 -41q25 22 50 42t50 36h123l-1 -11q-21 -19 -47.5 -46.5t-51 -55t-40.5 -47.5h-191z" />
    <glyph glyph-name="longs" unicode="&#x17f;" horiz-adv-x="342" 
d="M-23 -240q-23 0 -48 3t-43 9v145q11 -4 26.5 -6.5t27.5 -2.5q34 0 49 15.5t22 47.5l132 614q18 87 65 133.5t130 46.5q74 0 132 -28l-53 -132q-26 14 -52 14q-39 0 -50 -59l-131 -613q-12 -57 -36 -99t-65.5 -65t-105.5 -23z" />
    <glyph glyph-name="uni0180" unicode="&#x180;" horiz-adv-x="563" 
d="M295 -10q-40 0 -68 16.5t-53 53.5h-3l-26 -60h-143l123 582h-62l24 114h63l14 64h178l-14 -64h120l-24 -114h-121q-9 -36 -17.5 -60.5t-10.5 -30.5h4q22 27 46 44t65 17q59 0 100 -45t41 -142q0 -45 -9.5 -96t-28 -100.5t-47 -90t-66.5 -64.5t-85 -24zM257 136
q18 0 34.5 20t29 52.5t20 69t7.5 69.5q0 26 -9 41.5t-27 15.5q-21 0 -38 -20t-29 -52t-18.5 -68.5t-6.5 -68.5q0 -26 9.5 -42.5t27.5 -16.5z" />
    <glyph glyph-name="uni0181" unicode="&#x181;" horiz-adv-x="736" 
d="M154 0l122 577h-17q-30 0 -45.5 -16t-15.5 -42q0 -8 2 -17t4 -15h-133q-3 8 -4.5 20.5t-1.5 25.5q0 81 52.5 131t156.5 50h253q97 0 151.5 -38.5t54.5 -111.5q0 -144 -139 -188v-5q40 -14 63 -48.5t23 -80.5q0 -78 -36 -132t-98 -82t-139 -28h-253zM429 439h32
q44 0 63 24.5t19 59.5q0 48 -56 48h-28zM368 146h37q43 0 66.5 27t23.5 66q0 31 -14 46t-48 15h-32z" />
    <glyph glyph-name="uni0182" unicode="&#x182;" horiz-adv-x="562" 
d="M8 0l151 714h397l-32 -153h-215l-23 -108h15q110 0 165 -53t55 -139q0 -71 -31 -130.5t-94.5 -95t-163.5 -35.5h-224zM222 148h29q41 0 63 27.5t22 73.5q0 25 -15 41t-43 16h-23z" />
    <glyph glyph-name="uni0183" unicode="&#x183;" horiz-adv-x="561" 
d="M293 -10q-43 0 -71 20t-48 51h-3l-26 -61h-142l161 760h410l-27 -127h-232l-6 -27q-4 -16 -11.5 -45t-20.5 -67h3q22 27 48 43t63 16q57 0 98 -45.5t41 -140.5q0 -45 -9.5 -96.5t-28.5 -101t-47.5 -90t-66.5 -65t-85 -24.5zM256 135q17 0 33.5 20.5t29.5 52t21 67t8 65.5
q0 66 -35 66q-23 0 -40.5 -21t-29 -54t-17.5 -69t-6 -66t10.5 -45.5t25.5 -15.5z" />
    <glyph glyph-name="uni0184" unicode="&#x184;" horiz-adv-x="600" 
d="M271 -10q-66 0 -116 22t-78 62t-28 95q0 39 9 86l99 459h182l-54 -257h42q83 0 134 -25t74.5 -69t23.5 -102q0 -83 -36 -144t-101 -94t-151 -33zM286 139q34 0 60.5 26.5t26.5 76.5q0 28 -15.5 47.5t-62.5 19.5h-41l-20 -95q-2 -8 -2.5 -16.5t-0.5 -14.5q0 -18 14 -31
t41 -13z" />
    <glyph glyph-name="uni0185" unicode="&#x185;" horiz-adv-x="563" 
d="M252 -10q-94 0 -147 49t-53 143q0 28 4 58.5t11 60.5l97 459h178l-28 -132q-8 -36 -18.5 -68.5t-18.5 -57.5h3q22 28 46.5 44.5t65.5 16.5q59 0 98.5 -45.5t39.5 -148.5q0 -41 -8.5 -91.5t-28 -101t-52 -93t-79 -68t-110.5 -25.5zM257 136q20 0 37 22.5t29.5 56.5
t19.5 71t7 67q0 63 -36 63q-22 0 -39.5 -22t-29.5 -56.5t-18.5 -72t-6.5 -67.5q0 -62 37 -62z" />
    <glyph glyph-name="uni0186" unicode="&#x186;" horiz-adv-x="572" 
d="M327 724q118 0 176 -71.5t58 -188.5q0 -66 -14 -133.5t-42 -129t-71 -109t-101.5 -75.5t-131.5 -28q-121 0 -212 60l75 142q38 -24 69.5 -35.5t65.5 -11.5q42 0 75 30t55 78t33.5 102t11.5 101q0 59 -22.5 87t-63.5 28q-40 0 -78 -11t-83 -31v155q47 22 98 31.5t102 9.5z
" />
    <glyph glyph-name="uni0187" unicode="&#x187;" horiz-adv-x="572" 
d="M279 -10q-118 0 -176 71.5t-58 188.5q0 66 14 133.5t42 129t71 109t101.5 75.5t131.5 28q22 0 38 -2l32 -4l3 11q22 80 63.5 114.5t105.5 34.5q30 0 47.5 -5.5t30.5 -10.5v-138q-13 5 -26 7.5t-28 2.5q-22 0 -35.5 -15t-22.5 -49l-38 -152q-44 25 -85.5 38t-78.5 13
q-44 0 -77.5 -30t-56 -78t-34 -102t-11.5 -101q0 -59 22.5 -87t63.5 -28q40 0 78 11t83 31v-155q-47 -22 -98 -31.5t-102 -9.5z" />
    <glyph glyph-name="uni0188" unicode="&#x188;" horiz-adv-x="465" 
d="M221 -10q-81 0 -134.5 51t-53.5 158q0 69 18.5 134.5t54 117t87.5 82t120 30.5q16 0 27 -4l5 27q19 93 58 136t111 43q23 0 42 -4.5t32 -10.5v-137q-8 3 -18 6t-26 3q-19 0 -33 -11.5t-20 -37.5l-40 -192q-22 16 -50.5 26t-56.5 10q-34 0 -59 -19t-41 -49.5t-23.5 -65.5
t-7.5 -67q0 -43 13.5 -61t39.5 -18q30 0 61 11.5t66 32.5v-145q-35 -20 -77 -33t-95 -13z" />
    <glyph glyph-name="uni0189" unicode="&#x189;" horiz-adv-x="632" 
d="M8 0l61 287h-63l31 145h63l59 282h193q126 0 193.5 -66.5t67.5 -187.5q0 -98 -24.5 -181.5t-73.5 -146t-121 -97.5t-166 -35h-220zM223 154h26q43 0 76 26t55.5 69t34 95.5t11.5 106.5t-23 82t-66 28h-28l-27 -129h78l-31 -145h-78z" />
    <glyph glyph-name="uni018A" unicode="&#x18a;" horiz-adv-x="772" 
d="M148 0l120 568h-19q-31 0 -48.5 -15.5t-17.5 -52.5q0 -18 4 -30h-136q-6 14 -6 40q0 100 58.5 152t161.5 52h223q125 0 195 -66t70 -188q0 -96 -25.5 -179.5t-75 -146.5t-122.5 -98.5t-169 -35.5h-213zM363 154h25q43 0 76 25.5t56 68t34.5 94.5t11.5 105q0 114 -90 114
h-27z" />
    <glyph glyph-name="uni018B" unicode="&#x18b;" horiz-adv-x="562" 
d="M250 0q-84 0 -136 25.5t-76 70.5t-24 104q0 78 39 137.5t105 93t149 33.5h39l19 100h-232l32 150h415l-151 -714h-179zM262 148h16l36 167h-14q-49 0 -75.5 -28.5t-26.5 -75.5q0 -63 64 -63z" />
    <glyph glyph-name="uni018C" unicode="&#x18c;" horiz-adv-x="560" 
d="M175 -10q-65 0 -104.5 48.5t-39.5 144.5q0 59 15.5 123.5t45.5 120.5t72.5 91t97.5 35q78 0 116 -60h3q0 19 2 45t6 48l7 37h-223l29 137h403l-162 -760h-143l2 59h-4q-24 -33 -52 -51t-71 -18zM247 136q24 0 42 24t30.5 59t18.5 70.5t6 59.5q0 60 -41 60
q-19 0 -35.5 -21t-28.5 -53t-18.5 -68t-6.5 -66q0 -31 8.5 -48t24.5 -17z" />
    <glyph glyph-name="uni018D" unicode="&#x18d;" horiz-adv-x="552" 
d="M320 564q111 0 161 -53t50 -139q0 -95 -55.5 -163t-147.5 -101q25 -26 43 -60.5t18 -80.5q0 -59 -31 -99t-83 -60t-116 -20q-65 0 -115 14t-93 41l75 131q39 -27 74.5 -38.5t60.5 -11.5q28 0 39.5 12.5t11.5 29.5q0 22 -20.5 44.5t-57.5 58.5q-48 46 -70 95t-22 106
q0 84 31.5 150.5t93.5 105t153 38.5zM308 425q-24 0 -43.5 -22.5t-30.5 -55.5t-11 -67q0 -31 10.5 -53.5t24.5 -35.5q26 13 47 40.5t33 62t12 67.5q0 29 -10.5 46.5t-31.5 17.5z" />
    <glyph glyph-name="uni018E" unicode="&#x18e;" horiz-adv-x="510" 
d="M-3 0l31 151h206l31 150h-191l34 151h191l23 109h-206l32 153h388l-151 -714h-388z" />
    <glyph glyph-name="uni018F" unicode="&#x18f;" horiz-adv-x="603" 
d="M214 -10q-94 0 -147.5 50t-53.5 135q0 123 96 185.5t262 62.5h24q1 10 1.5 19.5t0.5 17.5q0 62 -27 86.5t-67 24.5q-44 0 -85 -12.5t-89 -35.5v154q46 25 100.5 36.5t107.5 11.5q125 0 186 -71.5t61 -188.5q0 -88 -23.5 -172.5t-70.5 -153t-116 -109t-160 -40.5zM237 140
q29 0 55.5 20.5t46 53t29.5 70.5h-32q-69 0 -108 -25.5t-39 -66.5q0 -24 12.5 -38t35.5 -14z" />
    <glyph glyph-name="uni0190" unicode="&#x190;" horiz-adv-x="579" 
d="M271 -10q-123 0 -191 48t-68 142q0 85 59.5 136t166.5 61v4q-62 10 -100 44.5t-38 95.5q0 54 24.5 92.5t65 63t88.5 36t95 11.5q88 0 147.5 -22t103.5 -56l-83 -125q-32 27 -70.5 41.5t-82.5 14.5q-59 0 -82.5 -19.5t-23.5 -48.5q0 -33 33 -49.5t120 -16.5h43l-31 -142
h-50q-95 0 -146.5 -24t-51.5 -74q0 -37 32 -52t86 -15q43 0 92.5 10.5t94.5 31.5v-147q-46 -19 -101.5 -30t-131.5 -11z" />
    <glyph glyph-name="uni0191" unicode="&#x191;" horiz-adv-x="510" 
d="M-21 -240q-29 0 -51.5 4.5t-35.5 9.5v138q11 -4 24.5 -6.5t25.5 -2.5q28 0 41 17t18 43l158 751h385l-32 -151h-202l-30 -142h187l-32 -152h-189l-64 -312q-21 -101 -66.5 -149t-136.5 -48z" />
    <glyph glyph-name="florin" unicode="&#x192;" horiz-adv-x="541" 
d="M62 -240q-27 0 -52.5 4t-41.5 10v145q16 -7 32 -9.5t26 -2.5q25 0 42 14t23 46l85 399h-67l18 93l79 44l10 43q23 98 71.5 138t128.5 40q36 0 65.5 -7t60.5 -21l-52 -131q-16 7 -29 11t-28 4q-19 0 -27.5 -12t-12.5 -26l-8 -36h94l-31 -140h-93l-89 -415
q-12 -55 -35.5 -98t-64 -68t-104.5 -25z" />
    <glyph glyph-name="uni0193" unicode="&#x193;" horiz-adv-x="643" 
d="M296 -10q-118 0 -184 68t-66 198q0 85 24 168.5t73 151.5t124.5 108.5t178.5 40.5q14 0 29.5 -1.5t30.5 -2.5l5 16q20 76 63.5 109t104.5 33q27 0 45 -5.5t31 -10.5v-138q-13 5 -25.5 7.5t-27.5 2.5q-22 0 -36 -15t-22 -49l-38 -146q-87 45 -160 45q-57 0 -98 -30
t-66.5 -77t-37.5 -100t-12 -99q0 -62 22 -90.5t64 -28.5q16 0 28 1.5t29 4.5l26 121h-96l31 146h275l-82 -386q-53 -19 -111 -30.5t-122 -11.5z" />
    <glyph glyph-name="uni0194" unicode="&#x194;" horiz-adv-x="581" 
d="M221 -251q-71 0 -111.5 37.5t-40.5 102.5q0 49 31 119t86 144l-101 562h180l36 -254q2 -14 4.5 -39.5t3.5 -53t0 -47.5q10 31 22.5 67.5t28.5 68.5l128 258h188l-305 -559q16 -53 24 -107t8 -95q0 -97 -45.5 -150.5t-136.5 -53.5zM226 -149q22 0 32 25.5t10 59.5
q0 20 -4 45.5t-9 44.5q-29 -41 -41.5 -81t-12.5 -58q0 -36 25 -36z" />
    <glyph glyph-name="uni0195" unicode="&#x195;" horiz-adv-x="851" 
d="M524 -9q-199 0 -199 170q0 21 3 46t7 44l13 63q3 12 5 27.5t2 31.5q0 17 -7 29.5t-27 12.5q-25 0 -41 -23.5t-26 -57.5t-17 -66l-56 -268h-178l161 760h178l-28 -134q-10 -44 -20.5 -74t-19.5 -56h4q28 40 62.5 53t70.5 13q59 0 94 -40t35 -109q0 -31 -8 -69l-19 -91
q-4 -17 -6.5 -34.5t-2.5 -30.5q0 -50 33 -50q25 0 45 26t35 97l59 292h176l-62 -306q-28 -131 -88 -193.5t-178 -62.5z" />
    <glyph glyph-name="uni0196" unicode="&#x196;" horiz-adv-x="369" 
d="M176 -10q-67 0 -104 28t-37 96q0 16 3 37.5t7 40.5l114 522h181l-111 -514q-2 -10 -3.5 -18.5t-1.5 -16.5q0 -24 24 -24q14 0 33 4t38 12v-137q-30 -15 -67 -22.5t-76 -7.5z" />
    <glyph glyph-name="uni0197" unicode="&#x197;" horiz-adv-x="407" 
d="M-36 0l21 101l93 39l31 148h-84l31 141h83l30 143l-76 41l21 101h355l-21 -101l-96 -41l-31 -143h86l-32 -141h-84l-31 -148l78 -39l-21 -101h-353z" />
    <glyph glyph-name="uni0198" unicode="&#x198;" horiz-adv-x="611" 
d="M8 0l151 714h183l-64 -298l64 103l68 99q28 41 54.5 65t58.5 34t76 10q23 0 41 -5t31 -11v-144q-7 5 -19 8t-28 3q-20 0 -36 -12.5t-28 -29.5l-117 -154l110 -382h-203l-67 274l-40 -24l-53 -250h-182z" />
    <glyph glyph-name="uni0199" unicode="&#x199;" horiz-adv-x="568" 
d="M2 0l127 601q17 85 61.5 126.5t122.5 41.5q29 0 51 -5.5t32 -9.5l1 -137q-6 3 -17 6.5t-25 3.5q-19 0 -33.5 -12.5t-19.5 -38.5l-28 -129q-6 -27 -15 -58t-16 -52h3l176 216h201l-220 -246l114 -307h-200l-59 189l-45 -29l-32 -160h-179z" />
    <glyph glyph-name="uni019A" unicode="&#x19a;" horiz-adv-x="298" 
d="M2 0l62 291h-70l30 136h69l71 333h178l-71 -333h72l-30 -136h-70l-62 -291h-179z" />
    <glyph glyph-name="uni019B" unicode="&#x19b;" horiz-adv-x="563" 
d="M420 -10q-52 0 -82 20.5t-44.5 57t-20.5 85.5l-5 34q-2 17 -3.5 40t-0.5 38q-7 -19 -15.5 -41.5t-18.5 -42.5l-94 -181h-190l280 490v11l-78 -19l-24 102l85 21q-6 12 -15.5 17t-20.5 5t-22 -2t-23 -5l-14 134q50 13 106 13q69 0 107 -31t55 -88l87 22l23 -102l-92 -23
l33 -304q8 -63 20.5 -82.5t34.5 -19.5q8 0 15 1t20 5v-140q-19 -6 -45 -10.5t-58 -4.5z" />
    <glyph glyph-name="uni019C" unicode="&#x19c;" horiz-adv-x="943" 
d="M197 -10q-69 0 -110.5 40t-41.5 118q0 20 2.5 43t7.5 46l102 477h181l-96 -460q-8 -35 -8 -61q0 -25 11 -37.5t30 -12.5q29 0 48.5 19.5t32.5 52.5t21 72l90 427h182l-94 -444q-5 -20 -8 -40t-3 -38q0 -49 44 -49q30 0 50 20.5t32 55t22 77.5l88 418h181l-151 -714h-152
l8 86h-5q-23 -43 -61.5 -69.5t-94.5 -26.5q-55 0 -91 22.5t-49 75.5h-5q-32 -52 -74 -75t-89 -23z" />
    <glyph glyph-name="uni019D" unicode="&#x19d;" horiz-adv-x="722" 
d="M-21 -240q-29 0 -50 4.5t-37 9.5v138q9 -3 23 -6t26 -3q28 0 40.5 14.5t18.5 42.5l159 754h209l116 -454h3q3 24 7.5 54t10 60t9.5 53l61 287h165l-151 -714h-208l-117 472h-3q-3 -20 -7 -53t-9 -68.5t-11 -62.5l-69 -327q-21 -103 -64 -152t-122 -49z" />
    <glyph glyph-name="uni019E" unicode="&#x19e;" horiz-adv-x="574" 
d="M232 -240l113 544q4 16 7 36t3 36q0 39 -33 39q-32 0 -50 -33t-33 -106l-58 -276h-179l118 553h142l-4 -72h3q51 82 140 82q65 0 101 -39.5t36 -107.5q0 -23 -3 -48.5t-8 -51.5l-117 -556h-178z" />
    <glyph glyph-name="uni019F" unicode="&#x19f;" horiz-adv-x="683" 
d="M291 -10q-127 0 -190 69t-63 194q0 85 23.5 169t70 152.5t116 109.5t161.5 41q125 0 186.5 -70t61.5 -193q0 -85 -22.5 -169t-68 -152.5t-114.5 -109.5t-161 -41zM251 438h227q1 8 1 15v13q0 52 -21.5 82t-62.5 30q-49 0 -85 -40t-59 -100zM305 138q37 0 65.5 21.5
t48.5 57t33 77.5h-233q-3 -22 -3 -41q0 -61 23 -88t66 -27z" />
    <glyph glyph-name="Ohorn" unicode="&#x1a0;" horiz-adv-x="727" 
d="M295 -10q-125 0 -187.5 69t-62.5 194q0 85 23 169t69 152.5t115 109.5t161 41q70 0 120 -23.5t80 -66.5q14 18 29.5 51.5t21.5 73.5h172l5 -12q-25 -87 -72.5 -143t-115.5 -85q2 -14 3.5 -28t1.5 -30q0 -86 -22.5 -169.5t-68 -152t-113.5 -109.5t-159 -41zM310 145
q36 0 65.5 29t51 76.5t33.5 103t12 109.5q0 52 -19.5 80t-55.5 28q-37 0 -67.5 -29.5t-52 -77.5t-33.5 -103.5t-12 -107.5q0 -57 19.5 -82.5t58.5 -25.5z" />
    <glyph glyph-name="ohorn" unicode="&#x1a1;" horiz-adv-x="647" 
d="M232 -10q-95 0 -147 54t-52 151q0 71 19 137t56.5 118t93 82.5t128.5 30.5q54 0 94 -18.5t66 -52.5q35 18 52.5 59.5t23.5 83.5h167l5 -11q-23 -92 -70.5 -151.5t-140.5 -85.5q0 -7 0.5 -14t0.5 -15q0 -71 -19 -137t-57 -118t-93 -82.5t-127 -30.5zM252 129q20 0 37 22
t30 57t20.5 75.5t7.5 78.5q0 62 -39 62q-20 0 -37.5 -22.5t-30 -58t-19.5 -76t-7 -76.5q0 -62 38 -62z" />
    <glyph glyph-name="uni01A2" unicode="&#x1a2;" horiz-adv-x="1006" 
d="M295 -10q-125 0 -187.5 69t-62.5 194q0 67 14.5 134.5t44 128t73.5 107.5t103 74.5t133 27.5q67 0 116 -22.5t80 -64.5q45 46 91 66.5t105 20.5q48 0 88.5 -20.5t65.5 -58.5t25 -92q0 -26 -4 -49t-9 -45l-97 -460h-178l93 442q5 18 7.5 36t2.5 31q0 64 -69 64
q-21 0 -42.5 -8.5t-37.5 -24.5q4 -18 6 -37.5t2 -40.5q0 -63 -13.5 -129.5t-41.5 -127.5t-71 -109.5t-102 -77t-135 -28.5zM310 145q36 0 65.5 28.5t51 75.5t33.5 103t12 111q0 52 -19.5 80t-55.5 28q-38 0 -68.5 -30t-52 -78.5t-33 -104t-11.5 -105.5q0 -57 19.5 -82.5
t58.5 -25.5z" />
    <glyph glyph-name="uni01A3" unicode="&#x1a3;" horiz-adv-x="870" 
d="M528 -240l111 533q5 19 7.5 37t2.5 33q0 29 -14.5 42t-40.5 13q-20 0 -37 -8t-31 -20q1 -8 1.5 -15.5t0.5 -16.5q0 -66 -18 -131.5t-55 -119t-92.5 -85.5t-130.5 -32q-95 0 -147 54t-52 151q0 65 18 130t54 119t92.5 86.5t132.5 32.5q57 0 99 -21t66 -59q43 45 80.5 62
t85.5 17q80 0 125.5 -42t45.5 -119q0 -20 -4 -46.5t-8 -47.5l-115 -547h-177zM252 129q20 0 37.5 22t30.5 57.5t20 76t7 77.5q0 62 -39 62q-21 0 -38 -22t-29.5 -57.5t-19.5 -76t-7 -77.5q0 -62 38 -62z" />
    <glyph glyph-name="uni01A4" unicode="&#x1a4;" horiz-adv-x="712" 
d="M149 0l120 568h-19q-67 0 -67 -64q0 -23 4 -34h-136q-2 8 -4 19t-2 28q0 91 57.5 144t162.5 53h214q85 0 137 -26t75.5 -71t23.5 -101q0 -80 -34.5 -143t-100.5 -99.5t-159 -36.5h-41l-49 -237h-182zM413 389h24q43 0 68.5 32.5t25.5 82.5q0 26 -14 42t-45 16h-22z" />
    <glyph glyph-name="uni01A5" unicode="&#x1a5;" horiz-adv-x="563" 
d="M-48 -240l178 841q18 84 62 126t121 42q29 0 51 -5.5t32 -9.5v-137q-5 3 -16 6.5t-25 3.5q-19 0 -32.5 -10.5t-19.5 -33.5l-4 -15q-6 -24 -13 -42t-11 -27h4q23 31 49 47.5t62 16.5q64 0 103 -48.5t39 -141.5q0 -66 -16 -133t-46.5 -124t-74.5 -91.5t-100 -34.5
q-36 0 -63.5 19t-44.5 51h-3q-3 -35 -8 -68t-14 -79l-32 -153h-178zM259 137q19 0 35.5 21t29 53.5t19.5 70t7 70.5q0 65 -35 65q-22 0 -39.5 -22.5t-30 -56.5t-19 -71t-6.5 -66q0 -30 10 -47t29 -17z" />
    <glyph glyph-name="uni01A6" unicode="&#x1a6;" horiz-adv-x="586" 
d="M320 -100l-81 263h-15l-34 -163h-182l151 714h182l-21 -100h7q81 0 129 -25t69 -68t21 -97q0 -60 -20.5 -105.5t-52.5 -75.5t-67 -46l113 -297h-199zM255 308h12q41 0 66 27t25 74q0 27 -14.5 43t-46.5 16h-9z" />
    <glyph glyph-name="uni01A7" unicode="&#x1a7;" horiz-adv-x="514" 
d="M229 -10q-109 0 -161 53t-52 134q0 65 24 112t65.5 80t93.5 57q36 15 69 29t54 31.5t21 42.5q0 42 -52 42q-31 0 -63.5 -10.5t-84.5 -33.5l-38 143q59 28 107 41t104 13q95 0 149.5 -49t54.5 -132q0 -67 -26 -110.5t-73 -75t-111 -61.5q-29 -13 -55.5 -27t-43 -32
t-16.5 -42q0 -53 60 -53q44 0 86.5 13.5t100.5 37.5v-153q-51 -24 -104.5 -37t-108.5 -13z" />
    <glyph glyph-name="uni01A8" unicode="&#x1a8;" horiz-adv-x="462" 
d="M211 -10q-101 0 -151.5 41t-50.5 116q0 42 14.5 76.5t51 63.5t101.5 55q42 17 64 27.5t30.5 19t8.5 19.5q0 23 -39 23q-35 0 -71 -13.5t-67 -27.5l-34 125q55 26 100.5 36.5t92.5 10.5q96 0 143.5 -39t47.5 -110q0 -70 -39 -112.5t-120 -74.5q-62 -24 -85.5 -38.5
t-23.5 -32.5t13 -25t37 -7q34 0 73 9.5t87 31.5v-134q-48 -21 -91 -30.5t-92 -9.5z" />
    <glyph glyph-name="uni01A9" unicode="&#x1a9;" horiz-adv-x="514" 
d="M-29 0l28 137l228 236l-127 207l28 134h426l-32 -152h-214l118 -196l-203 -214h236l-32 -152h-456z" />
    <glyph glyph-name="uni01AA" unicode="&#x1aa;" horiz-adv-x="377" 
d="M150 -239q-69 0 -105 28.5t-36 92.5q0 21 4.5 48.5t9.5 49.5l114 537h3q-59 0 -93.5 29t-34.5 82q0 58 40 97t121 39q79 0 117 -37t38 -108q0 -18 -2 -44t-10 -59l-113 -530q-3 -15 -6 -28.5t-3 -21.5q0 -12 6.5 -20t23.5 -8q16 0 34.5 5t30.5 12v-135q-26 -13 -62.5 -21
t-76.5 -8zM146 600h9l5 23q1 6 1.5 11.5t0.5 12.5q0 13 -8 20.5t-21 7.5q-17 0 -26.5 -11.5t-9.5 -27.5q0 -36 49 -36z" />
    <glyph glyph-name="uni01AB" unicode="&#x1ab;" horiz-adv-x="415" 
d="M129 -240q-29 0 -47 4t-36 10v129q10 -5 27 -7.5t30 -2.5q29 0 43.5 18.5t19.5 46.5l7 35q-66 5 -95.5 36.5t-29.5 92.5q0 19 3.5 43t8.5 47l42 202h-66l19 90l95 43l63 117h121l-24 -111h124l-30 -139h-124l-44 -205q-2 -11 -4 -22.5t-2 -18.5q0 -30 38 -30q20 0 43.5 4
t47.5 11l-50 -235q-9 -42 -29.5 -78t-57.5 -58t-93 -22z" />
    <glyph glyph-name="uni01AC" unicode="&#x1ac;" horiz-adv-x="566" 
d="M159 0l119 563h-27q-36 0 -52 -17.5t-16 -49.5q0 -18 4 -29h-136q-3 7 -4.5 19t-1.5 24q0 95 55.5 149.5t164.5 54.5h368l-34 -154h-141l-117 -560h-182z" />
    <glyph glyph-name="uni01AD" unicode="&#x1ad;" horiz-adv-x="415" 
d="M184 -10q-70 0 -103 33.5t-33 98.5q0 19 3.5 43t8.5 47l42 202h-66l19 90l75 35l8 38q22 98 71 143t134 45q31 0 55 -4.5t39 -10.5v-138q-11 4 -29 8t-34 4q-29 0 -42 -15.5t-19 -42.5l-3 -13h124l-30 -139h-124l-44 -205q-2 -11 -4 -22.5t-2 -18.5q0 -30 29 -30
q33 0 79 20v-137q-62 -31 -154 -31z" />
    <glyph glyph-name="uni01AE" unicode="&#x1ae;" horiz-adv-x="507" 
d="M242 -236q-76 0 -117 34t-41 95q0 36 13 97l120 570h-140l33 154h464l-34 -154h-141l-120 -571q-2 -13 -5 -26.5t-3 -24.5q0 -20 9.5 -26.5t22.5 -6.5q15 0 28 3.5t20 6.5v-136q-14 -5 -45 -10t-64 -5z" />
    <glyph glyph-name="Uhorn" unicode="&#x1af;" horiz-adv-x="753" 
d="M259 -10q-65 0 -112 25.5t-71.5 70t-24.5 101.5q0 33 8 71l98 456h182l-97 -454q-3 -14 -5 -28.5t-2 -26.5q0 -59 52 -59q37 0 61 27t38 94l96 447h182l-19 -92q36 11 53.5 49t23.5 89h172l4 -12q-18 -63 -51 -116.5t-88 -86.5t-139 -34l-56 -266q-26 -125 -99 -190
t-206 -65z" />
    <glyph glyph-name="uhorn" unicode="&#x1b0;" horiz-adv-x="708" 
d="M173 -10q-71 0 -103.5 42.5t-32.5 104.5q0 49 11 101l66 315h179l-64 -303q-4 -16 -6.5 -36t-2.5 -36q0 -20 9 -30t23 -10q26 0 47.5 36t35.5 104l59 275h178l-12 -55q40 12 54 48.5t22 87.5h172l5 -12q-17 -60 -49 -113t-86.5 -87t-141.5 -37l-81 -385h-142l4 72h-4
q-50 -82 -140 -82z" />
    <glyph glyph-name="uni01B1" unicode="&#x1b1;" horiz-adv-x="700" 
d="M327 -11q-87 0 -148.5 31t-94.5 87t-33 132q0 114 51.5 197.5t146.5 123.5h-168l33 154h295l-38 -175q-41 -26 -71 -70.5t-46 -97.5t-16 -106q0 -61 26.5 -91.5t73.5 -30.5q45 0 75 26t48 66t25.5 84.5t7.5 80.5q0 48 -13 82.5t-37 56.5l38 175h294l-32 -154h-168
q40 -29 69 -81.5t29 -126.5q0 -105 -43 -187t-121 -129t-183 -47z" />
    <glyph glyph-name="uni01B2" unicode="&#x1b2;" horiz-adv-x="643" 
d="M269 -10q-102 0 -160 54t-58 141q0 35 8 73l98 456h182l-97 -454q-3 -15 -5 -29t-2 -26q0 -59 54 -59q38 0 60.5 27.5t36.5 93.5l53 241q2 11 3.5 21t1.5 19q0 29 -24 29q-16 0 -34 -9v139q51 18 110 18q51 0 80.5 -18.5t41.5 -48t12 -62.5q0 -22 -3 -45t-8 -50l-55 -256
q-26 -125 -94 -190t-201 -65z" />
    <glyph glyph-name="uni01B3" unicode="&#x1b3;" horiz-adv-x="594" 
d="M157 0l58 274l-44 212q-9 39 -17.5 58.5t-18 25.5t-23.5 6q-6 0 -17 -2.5t-18 -6.5v141q15 5 44 11t54 6q72 0 102.5 -37t40.5 -99l22 -127l139 252h201l-282 -438l-59 -276h-182z" />
    <glyph glyph-name="uni01B4" unicode="&#x1b4;" horiz-adv-x="547" 
d="M13 -240q-27 0 -45 2.5t-30 6.5l11 147q11 -3 23 -5t26 -2q35 0 56.5 15.5t38.5 47.5l18 35l-63 546h180l13 -253q2 -32 0 -80h4q6 23 12.5 48t19.5 53l40 88q18 40 42.5 75t60.5 56.5t87 21.5q23 0 45 -3.5t41 -9.5l-17 -143q-19 7 -33 7q-28 0 -44.5 -16t-32.5 -48
l-211 -416q-41 -81 -96 -127t-146 -46z" />
    <glyph glyph-name="uni01B5" unicode="&#x1b5;" horiz-adv-x="502" 
d="M-43 0l24 118l118 163h-71l32 144h144l101 137h-222l32 152h448l-25 -119l-126 -170h79l-32 -144h-154l-94 -129h245l-32 -152h-467z" />
    <glyph glyph-name="uni01B6" unicode="&#x1b6;" horiz-adv-x="451" 
d="M-28 0l21 103l91 118h-56l25 117h123l58 73h-165l31 142h375l-24 -113l-81 -102h60l-26 -117h-127l-62 -79h179l-31 -142h-391z" />
    <glyph glyph-name="uni01B7" unicode="&#x1b7;" horiz-adv-x="543" 
d="M189 -10q-58 0 -108 9.5t-82 29.5v160q33 -23 81 -36t92 -13q58 0 96.5 20t38.5 76q0 36 -27.5 51t-89.5 15h-69l25 112l156 148h-193l31 152h420l-24 -119l-185 -176q73 -17 107.5 -64t34.5 -121q0 -72 -34 -127t-101.5 -86t-168.5 -31z" />
    <glyph glyph-name="uni01B8" unicode="&#x1b8;" horiz-adv-x="538" 
d="M278 -10q-122 0 -188 52.5t-66 144.5q0 75 29.5 124.5t82 76.5t121.5 35l-132 167l27 124h435l-32 -152h-215l119 -153l-26 -115h-65q-72 0 -115 -18t-43 -70q0 -33 27 -49.5t69 -16.5q45 0 87 10.5t88 32.5l-1 -154q-44 -19 -94 -29t-108 -10z" />
    <glyph glyph-name="uni01B9" unicode="&#x1b9;" horiz-adv-x="526" 
d="M239 -240q-120 0 -187.5 59.5t-67.5 161.5q0 111 72 182t194 87l-138 180l25 122h431l-32 -138h-225l128 -167l-26 -126h-52q-86 0 -138 -32.5t-52 -98.5q0 -41 27.5 -62.5t70.5 -21.5q38 0 82.5 14t90.5 40v-155q-50 -23 -96 -34t-107 -11z" />
    <glyph glyph-name="uni01BA" unicode="&#x1ba;" horiz-adv-x="522" 
d="M154 -240q-85 0 -139 39t-54 120q0 86 56.5 136t154.5 61q61 6 80 16.5t19 29.5q0 17 -20.5 25t-74.5 8h-67l26 116l124 105h-179l31 136h400l-25 -110l-152 -129q58 -17 87 -52t29 -93q0 -81 -56.5 -130.5t-192.5 -61.5q-40 -5 -63 -15t-23 -33q0 -35 70 -35
q59 0 110.5 12t85.5 23v-131q-38 -14 -99 -25.5t-128 -11.5z" />
    <glyph glyph-name="uni01BB" unicode="&#x1bb;" horiz-adv-x="531" 
d="M-32 0l25 119l182 188h-132l26 120h221q32 37 52 71t20 63q0 31 -15 44.5t-38 13.5q-31 0 -62 -18.5t-78 -58.5l-78 117q54 50 114 79t141 29q62 0 106.5 -23t67.5 -62.5t23 -89.5q0 -47 -18.5 -91t-42.5 -74h53l-26 -120h-132l-147 -155v-5h234l-32 -147h-464z" />
    <glyph glyph-name="uni01BC" unicode="&#x1bc;" horiz-adv-x="545" 
d="M179 -10q-55 0 -102.5 10t-81.5 31v157q19 -14 49.5 -24.5t64.5 -17t64 -6.5q64 0 103.5 26t39.5 78q0 34 -26 50t-81 16h-109l57 255h-70l33 149h459l-32 -149h-214l-27 -115h6q59 0 102 -25.5t66 -69.5t23 -100q0 -94 -43 -152.5t-116.5 -85.5t-164.5 -27z" />
    <glyph glyph-name="uni01BD" unicode="&#x1bd;" horiz-adv-x="519" 
d="M184 -10q-50 0 -102.5 10t-86.5 27v143q33 -19 81.5 -30.5t86.5 -11.5q63 0 92.5 13t29.5 36q0 22 -23 30.5t-78 8.5h-97l45 202h-77l29 134h445l-29 -134h-204l-20 -89h10q50 0 91 -13.5t65.5 -44t24.5 -80.5q0 -95 -69 -148t-214 -53z" />
    <glyph glyph-name="uni01BE" unicode="&#x1be;" horiz-adv-x="457" 
d="M167 -10q-49 0 -91.5 8t-70.5 24v150q30 -18 68 -30.5t74 -12.5q35 0 50.5 9.5t15.5 28.5q0 27 -50 68q-22 19 -40.5 44t-18.5 69q0 11 1 23t4 25l3 18h-80l19 90l94 43l64 117h121l-24 -111h124l-31 -139h-121l-3 -12q-1 -5 -1.5 -11.5t-0.5 -11.5q0 -24 26 -42
q42 -31 70 -65t28 -92q0 -47 -23 -90.5t-73.5 -71.5t-133.5 -28z" />
    <glyph glyph-name="uni01BF" unicode="&#x1bf;" horiz-adv-x="564" 
d="M-49 -240l169 793h143l-5 -65h4q26 38 54 56t75 18q61 0 101 -46t40 -138q0 -66 -21 -131t-64.5 -120.5t-111 -94t-160.5 -51.5l-46 -221h-178zM209 130q41 12 73 43.5t50 77.5t18 101q0 66 -33 66q-28 0 -46.5 -41t-35.5 -120z" />
    <glyph glyph-name="uni01C0" unicode="&#x1c0;" horiz-adv-x="331" 
d="M42 0l161 764h131l-161 -764h-131z" />
    <glyph glyph-name="uni01C1" unicode="&#x1c1;" horiz-adv-x="577" 
d="M42 0l161 764h131l-161 -764h-131zM288 0l161 764h131l-161 -764h-131z" />
    <glyph glyph-name="uni01C2" unicode="&#x1c2;" horiz-adv-x="482" 
d="M114 0l51 237h-138l25 117h138l17 79h-138l25 118h138l45 213h133l-46 -213h140l-25 -118h-140l-17 -79h140l-25 -117h-139l-51 -237h-133z" />
    <glyph glyph-name="uni01C3" unicode="&#x1c3;" horiz-adv-x="288" 
d="M59 252l76 462h199l-123 -462h-152zM88 -12q-47 0 -66.5 20.5t-19.5 51.5q0 47 29 81.5t88 34.5q39 0 60.5 -19t21.5 -54q0 -55 -32.5 -85t-80.5 -30z" />
    <glyph glyph-name="uni01C4" unicode="&#x1c4;" horiz-adv-x="1134" 
d="M8 0l151 714h189q125 0 195 -66t70 -188q0 -96 -25.5 -179.5t-75 -146.5t-122.5 -98.5t-169 -35.5h-213zM223 154h26q43 0 76 25.5t55.5 68t34 94.5t11.5 105q0 57 -23 85.5t-66 28.5h-28zM589 0l24 118l324 444h-222l32 152h448l-25 -119l-327 -443h245l-32 -152h-467z
M891 773q-13 33 -34.5 75t-41.5 73l1 12h119q14 -14 32.5 -37t31.5 -41q25 22 50 42t50 36h123l-1 -11q-21 -19 -47.5 -46.5t-51 -55t-40.5 -47.5h-191z" />
    <glyph glyph-name="uni01C5" unicode="&#x1c5;" horiz-adv-x="1094" 
d="M8 0l151 714h189q125 0 195 -66t70 -188q0 -96 -25.5 -179.5t-75 -146.5t-122.5 -98.5t-169 -35.5h-213zM223 154h26q43 0 76 25.5t55.5 68t34 94.5t11.5 105q0 57 -23 85.5t-66 28.5h-28zM604 0l21 103l241 308h-165l31 142h375l-24 -113l-236 -298h179l-31 -142h-391z
M832 606q-13 33 -34.5 75t-41.5 73l1 12h119q14 -14 32.5 -37t31.5 -41q25 22 50 42t50 36h123l-1 -11q-21 -19 -47.5 -46.5t-51 -55t-40.5 -47.5h-191z" />
    <glyph glyph-name="uni01C6" unicode="&#x1c6;" horiz-adv-x="1023" 
d="M173 -10q-60 0 -101 46t-41 148q0 41 9 91t27 101t46 93t65.5 68t84.5 26q41 0 67 -18t46 -52h4q1 17 4 50.5t9 60.5l33 156h179l-161 -760h-144l2 59h-4q-23 -30 -50.5 -49.5t-74.5 -19.5zM248 136q22 0 40 22t30.5 56t19 71t6.5 67t-9 47t-27 17q-20 0 -37.5 -22
t-30 -56.5t-19.5 -71t-7 -65.5q0 -65 34 -65zM533 0l21 103l241 308h-165l31 142h375l-24 -113l-236 -298h179l-31 -142h-391zM757 606q-13 33 -34.5 75t-41.5 73l1 12h119q14 -14 32.5 -37t31.5 -41q25 22 50 42t50 36h123l-1 -11q-21 -19 -47.5 -46.5t-51 -55t-40.5 -47.5
h-191z" />
    <glyph glyph-name="uni01C7" unicode="&#x1c7;" horiz-adv-x="818" 
d="M8 0l151 714h183l-120 -562h210l-32 -152h-392zM421 -225q-28 0 -53 4t-47 10l11 152q16 -5 34 -9t39 -4q44 0 68.5 32.5t37.5 92.5l141 661h183l-146 -685q-20 -92 -54 -148t-86.5 -81t-127.5 -25z" />
    <glyph glyph-name="uni01C8" unicode="&#x1c8;" horiz-adv-x="779" 
d="M8 0l151 714h183l-120 -562h210l-32 -152h-392zM711 606q-39 0 -62.5 15.5t-23.5 50.5q0 45 27.5 75t79.5 30q37 0 61.5 -15.5t24.5 -50.5q0 -46 -27 -75.5t-80 -29.5zM444 -240q-23 0 -48 3t-44 9v145q15 -5 28.5 -7t25.5 -2q28 0 47 16t27 54l122 575h178l-127 -599
q-11 -54 -35 -98t-66 -70t-108 -26z" />
    <glyph glyph-name="uni01C9" unicode="&#x1c9;" horiz-adv-x="596" 
d="M2 0l162 760h178l-161 -760h-179zM529 606q-39 0 -62.5 15.5t-23.5 50.5q0 45 27.5 75t79.5 30q37 0 61.5 -15.5t24.5 -50.5q0 -46 -27 -75.5t-80 -29.5zM262 -240q-23 0 -48 3t-44 9v145q15 -5 28.5 -7t25.5 -2q28 0 47 16t27 54l122 575h178l-127 -599q-11 -54 -35 -98
t-66 -70t-108 -26z" />
    <glyph glyph-name="uni01CA" unicode="&#x1ca;" horiz-adv-x="1059" 
d="M8 0l151 714h209l116 -454h3q3 24 7.5 54t10 60t9.5 53l61 287h165l-151 -714h-208l-117 472h-3q-3 -20 -7 -53t-9 -68.5t-11 -62.5l-61 -288h-165zM663 -225q-28 0 -53 4t-47 10l11 152q16 -5 34 -9t39 -4q44 0 68.5 32.5t37.5 92.5l141 661h183l-146 -685
q-20 -92 -54 -148t-86.5 -81t-127.5 -25z" />
    <glyph glyph-name="uni01CB" unicode="&#x1cb;" horiz-adv-x="1020" 
d="M8 0l151 714h209l116 -454h3q3 24 7.5 54t10 60t9.5 53l61 287h165l-151 -714h-208l-117 472h-3q-3 -20 -7 -53t-9 -68.5t-11 -62.5l-61 -288h-165zM953 606q-39 0 -62.5 15.5t-23.5 50.5q0 45 27.5 75t79.5 30q37 0 61.5 -15.5t24.5 -50.5q0 -46 -27 -75.5t-80 -29.5z
M686 -240q-23 0 -48 3t-44 9v145q15 -5 28.5 -7t25.5 -2q28 0 47 16t27 54l122 575h178l-127 -599q-11 -54 -35 -98t-66 -70t-108 -26z" />
    <glyph glyph-name="uni01CC" unicode="&#x1cc;" horiz-adv-x="872" 
d="M2 0l118 553h142l-4 -72h3q51 82 140 82q65 0 101 -39.5t36 -107.5q0 -23 -3 -48.5t-8 -51.5l-67 -316h-178l63 304q4 16 7 36t3 36q0 39 -33 39q-27 0 -48 -36t-35 -103l-58 -276h-179zM805 606q-39 0 -62.5 15.5t-23.5 50.5q0 45 27.5 75t79.5 30q37 0 61.5 -15.5
t24.5 -50.5q0 -46 -27 -75.5t-80 -29.5zM538 -240q-23 0 -48 3t-44 9v145q15 -5 28.5 -7t25.5 -2q28 0 47 16t27 54l122 575h178l-127 -599q-11 -54 -35 -98t-66 -70t-108 -26z" />
    <glyph glyph-name="uni01CD" unicode="&#x1cd;" horiz-adv-x="623" 
d="M-59 0l343 715h234l42 -715h-183l-2 136h-183l-58 -136h-193zM256 285h119l-2 198q0 24 0.5 47.5t1.5 47.5h-3q-7 -24 -14 -46t-17 -45zM315 768q-13 33 -34.5 75t-41.5 73l1 12h119q14 -14 32.5 -37t31.5 -41q25 22 50 42t50 36h123l-1 -11q-21 -19 -47.5 -46.5t-51 -55
t-40.5 -47.5h-191z" />
    <glyph glyph-name="uni01CE" unicode="&#x1ce;" horiz-adv-x="563" 
d="M173 -10q-60 0 -101 46t-41 148q0 41 9 91.5t27.5 101t46.5 93t66 68t87 25.5q41 0 70 -19.5t48 -57.5h3l26 67h147l-117 -553h-144l2 62h-4q-23 -32 -51.5 -52t-73.5 -20zM248 136q22 0 39 21t29 53t18 64q6 27 8 45t2 33q0 30 -9 47t-28 17t-36 -21t-29.5 -54
t-20 -70.5t-7.5 -69.5q0 -65 34 -65zM253 606q-13 33 -34.5 75t-41.5 73l1 12h119q14 -14 32.5 -37t31.5 -41q25 22 50 42t50 36h123l-1 -11q-21 -19 -47.5 -46.5t-51 -55t-40.5 -47.5h-191z" />
    <glyph glyph-name="uni01CF" unicode="&#x1cf;" horiz-adv-x="407" 
d="M-36 0l21 101l93 39l91 432l-76 41l21 101h355l-21 -101l-96 -41l-92 -432l78 -39l-21 -101h-353zM202 767q-13 33 -34.5 75t-41.5 73l1 12h119q14 -14 32.5 -37t31.5 -41q25 22 50 42t50 36h123l-1 -11q-21 -19 -47.5 -46.5t-51 -55t-40.5 -47.5h-191z" />
    <glyph glyph-name="uni01D0" unicode="&#x1d0;" horiz-adv-x="298" 
d="M3 0l117 553h179l-118 -553h-178zM120 606q-13 33 -34.5 75t-41.5 73l1 12h119q14 -14 32.5 -37t31.5 -41q25 22 50 42t50 36h123l-1 -11q-21 -19 -47.5 -46.5t-51 -55t-40.5 -47.5h-191z" />
    <glyph glyph-name="uni01D1" unicode="&#x1d1;" horiz-adv-x="677" 
d="M295 -10q-125 0 -187.5 69t-62.5 194q0 67 14.5 134.5t44 128t73.5 107.5t103 74.5t133 27.5q123 0 184 -70t61 -193q0 -63 -13.5 -129.5t-41.5 -127.5t-71 -109.5t-102 -77t-135 -28.5zM310 145q36 0 65.5 28.5t51 75.5t33.5 103t12 111q0 52 -19.5 80t-55.5 28
q-38 0 -68.5 -30t-52 -78.5t-33 -104t-11.5 -105.5q0 -57 19.5 -82.5t58.5 -25.5zM340 767q-13 33 -34.5 75t-41.5 73l1 12h119q14 -14 32.5 -37t31.5 -41q25 22 50 42t50 36h123l-1 -11q-21 -19 -47.5 -46.5t-51 -55t-40.5 -47.5h-191z" />
    <glyph glyph-name="uni01D2" unicode="&#x1d2;" horiz-adv-x="560" 
d="M232 -10q-95 0 -147 54t-52 151q0 65 18 130t54 119t92.5 86.5t132.5 32.5q94 0 146 -54t52 -151q0 -66 -18 -131.5t-55 -119t-92.5 -85.5t-130.5 -32zM252 129q20 0 37.5 22t30.5 57.5t20 76t7 77.5q0 62 -39 62q-21 0 -38 -22t-29.5 -57.5t-19.5 -76t-7 -77.5
q0 -62 38 -62zM247 598q-13 33 -34.5 75t-41.5 73l1 12h119q14 -14 32.5 -37t31.5 -41q25 22 50 42t50 36h123l-1 -11q-21 -19 -47.5 -46.5t-51 -55t-40.5 -47.5h-191z" />
    <glyph glyph-name="uni01D3" unicode="&#x1d3;" horiz-adv-x="643" 
d="M269 -10q-102 0 -160 54t-58 141q0 35 8 73l98 456h182l-97 -454q-3 -14 -5 -28.5t-2 -26.5q0 -59 54 -59q38 0 60.5 27t36.5 94l96 447h182l-100 -469q-26 -124 -94 -189.5t-201 -65.5zM320 767q-13 33 -34.5 75t-41.5 73l1 12h119q14 -14 32.5 -37t31.5 -41
q25 22 50 42t50 36h123l-1 -11q-21 -19 -47.5 -46.5t-51 -55t-40.5 -47.5h-191z" />
    <glyph glyph-name="uni01D4" unicode="&#x1d4;" horiz-adv-x="574" 
d="M173 -10q-71 0 -103.5 42.5t-32.5 104.5q0 49 11 101l66 315h179l-64 -303q-4 -16 -6.5 -36t-2.5 -36q0 -20 9 -30t23 -10q26 0 47.5 36t35.5 104l59 275h178l-117 -553h-142l4 72h-4q-50 -82 -140 -82zM252 598q-13 33 -34.5 75t-41.5 73l1 12h119q14 -14 32.5 -37
t31.5 -41q25 22 50 42t50 36h123l-1 -11q-21 -19 -47.5 -46.5t-51 -55t-40.5 -47.5h-191z" />
    <glyph glyph-name="uni01D5" unicode="&#x1d5;" horiz-adv-x="643" 
d="M269 -10q-102 0 -160 54t-58 141q0 35 8 73l98 456h182l-97 -454q-3 -14 -5 -28.5t-2 -26.5q0 -59 54 -59q38 0 60.5 27t36.5 94l96 447h182l-100 -469q-26 -124 -94 -189.5t-201 -65.5zM297 946l23 108h309l-22 -108h-310zM324 771q-31 0 -49.5 11.5t-18.5 41.5
q0 43 24 64t64 21q26 0 45.5 -10.5t19.5 -40.5q0 -39 -20.5 -63t-64.5 -24zM533 771q-31 0 -49.5 11.5t-18.5 41.5q0 43 23.5 64t63.5 21q26 0 46 -10.5t20 -40.5q0 -38 -21 -62.5t-64 -24.5z" />
    <glyph glyph-name="uni01D6" unicode="&#x1d6;" horiz-adv-x="574" 
d="M173 -10q-71 0 -103.5 42.5t-32.5 104.5q0 49 11 101l66 315h179l-64 -303q-4 -16 -6.5 -36t-2.5 -36q0 -20 9 -30t23 -10q26 0 47.5 36t35.5 104l59 275h178l-117 -553h-142l4 72h-4q-50 -82 -140 -82zM230 777l23 108h309l-22 -108h-310zM257 602q-31 0 -49.5 11.5
t-18.5 41.5q0 43 24 64t64 21q26 0 45.5 -10.5t19.5 -40.5q0 -39 -20.5 -63t-64.5 -24zM466 602q-31 0 -49.5 11.5t-18.5 41.5q0 43 23.5 64t63.5 21q26 0 46 -10.5t20 -40.5q0 -38 -21 -62.5t-64 -24.5z" />
    <glyph glyph-name="uni01D7" unicode="&#x1d7;" horiz-adv-x="643" 
d="M269 -10q-102 0 -160 54t-58 141q0 35 8 73l98 456h182l-97 -454q-3 -14 -5 -28.5t-2 -26.5q0 -59 54 -59q38 0 60.5 27t36.5 94l96 447h182l-100 -469q-26 -124 -94 -189.5t-201 -65.5zM373 918l1 10q27 30 55.5 64t51.5 69h188v-7q-10 -12 -31.5 -31t-48.5 -39.5
t-51.5 -38t-40.5 -27.5h-124zM322 762q-30 0 -48 11.5t-18 40.5q0 41 23 61.5t63 20.5q25 0 45 -10.5t20 -39.5q0 -37 -20.5 -60.5t-64.5 -23.5zM529 762q-31 0 -49 11.5t-18 40.5q0 41 23 61.5t63 20.5q26 0 45.5 -10.5t19.5 -39.5q0 -37 -20.5 -60.5t-63.5 -23.5z" />
    <glyph glyph-name="uni01D8" unicode="&#x1d8;" horiz-adv-x="574" 
d="M173 -10q-71 0 -103.5 42.5t-32.5 104.5q0 49 11 101l66 315h179l-64 -303q-4 -16 -6.5 -36t-2.5 -36q0 -20 9 -30t23 -10q26 0 47.5 36t35.5 104l59 275h178l-117 -553h-142l4 72h-4q-50 -82 -140 -82zM305 748l1 10q27 30 55.5 64t51.5 69h188v-7q-10 -12 -31.5 -31
t-48.5 -39.5t-51.5 -38t-40.5 -27.5h-124zM254 592q-30 0 -48 11.5t-18 40.5q0 41 23 61.5t63 20.5q25 0 45 -10.5t20 -39.5q0 -37 -20.5 -60.5t-64.5 -23.5zM461 592q-31 0 -49 11.5t-18 40.5q0 41 23 61.5t63 20.5q26 0 45.5 -10.5t19.5 -39.5q0 -37 -20.5 -60.5
t-63.5 -23.5z" />
    <glyph glyph-name="uni01D9" unicode="&#x1d9;" horiz-adv-x="643" 
d="M269 -10q-102 0 -160 54t-58 141q0 35 8 73l98 456h182l-97 -454q-3 -14 -5 -28.5t-2 -26.5q0 -59 54 -59q38 0 60.5 27t36.5 94l96 447h182l-100 -469q-26 -124 -94 -189.5t-201 -65.5zM360 938q-13 28 -34.5 63.5t-40.5 63.5l1 11h118q14 -12 33 -32.5t32 -36.5
q26 20 50.5 37.5t49.5 31.5h123l-1 -10q-22 -17 -48 -40.5t-50.5 -47t-40.5 -40.5h-192zM324 772q-31 0 -49.5 11.5t-18.5 41.5q0 43 24 64t64 21q26 0 45.5 -10.5t19.5 -41.5q0 -38 -20.5 -62t-64.5 -24zM533 772q-31 0 -49.5 11.5t-18.5 41.5q0 43 23.5 64t63.5 21
q26 0 46 -10.5t20 -41.5q0 -38 -21 -62t-64 -24z" />
    <glyph glyph-name="uni01DA" unicode="&#x1da;" horiz-adv-x="574" 
d="M173 -10q-71 0 -103.5 42.5t-32.5 104.5q0 49 11 101l66 315h179l-64 -303q-4 -16 -6.5 -36t-2.5 -36q0 -20 9 -30t23 -10q26 0 47.5 36t35.5 104l59 275h178l-117 -553h-142l4 72h-4q-50 -82 -140 -82zM292 769q-13 28 -34.5 63.5t-40.5 63.5l1 11h118q14 -12 33 -32.5
t32 -36.5q26 20 50.5 37.5t49.5 31.5h123l-1 -10q-22 -17 -48 -40.5t-50.5 -47t-40.5 -40.5h-192zM256 603q-31 0 -49.5 11.5t-18.5 41.5q0 43 24 64t64 21q26 0 45.5 -10.5t19.5 -41.5q0 -38 -20.5 -62t-64.5 -24zM465 603q-31 0 -49.5 11.5t-18.5 41.5q0 43 23.5 64
t63.5 21q26 0 46 -10.5t20 -41.5q0 -38 -21 -62t-64 -24z" />
    <glyph glyph-name="uni01DB" unicode="&#x1db;" horiz-adv-x="643" 
d="M269 -10q-102 0 -160 54t-58 141q0 35 8 73l98 456h182l-97 -454q-3 -14 -5 -28.5t-2 -26.5q0 -59 54 -59q38 0 60.5 27t36.5 94l96 447h182l-100 -469q-26 -124 -94 -189.5t-201 -65.5zM401 924q-19 14 -42.5 39t-45 50.5t-31.5 42.5v11h184q10 -28 26 -64.5t33 -67.5
v-11h-124zM322 768q-30 0 -48 11.5t-18 40.5q0 41 23 61.5t63 20.5q25 0 45 -10.5t20 -39.5q0 -37 -20.5 -60.5t-64.5 -23.5zM529 768q-31 0 -49 11.5t-18 40.5q0 41 23 61.5t63 20.5q26 0 45.5 -10.5t19.5 -39.5q0 -37 -20.5 -60.5t-63.5 -23.5z" />
    <glyph glyph-name="uni01DC" unicode="&#x1dc;" horiz-adv-x="574" 
d="M173 -10q-71 0 -103.5 42.5t-32.5 104.5q0 49 11 101l66 315h179l-64 -303q-4 -16 -6.5 -36t-2.5 -36q0 -20 9 -30t23 -10q26 0 47.5 36t35.5 104l59 275h178l-117 -553h-142l4 72h-4q-50 -82 -140 -82zM333 755q-19 14 -42.5 39t-45 50.5t-31.5 42.5v11h184
q10 -28 26 -64.5t33 -67.5v-11h-124zM254 599q-30 0 -48 11.5t-18 40.5q0 41 23 61.5t63 20.5q25 0 45 -10.5t20 -39.5q0 -37 -20.5 -60.5t-64.5 -23.5zM461 599q-31 0 -49 11.5t-18 40.5q0 41 23 61.5t63 20.5q26 0 45.5 -10.5t19.5 -39.5q0 -37 -20.5 -60.5t-63.5 -23.5z
" />
    <glyph glyph-name="uni01DD" unicode="&#x1dd;" horiz-adv-x="536" 
d="M200 -10q-85 0 -135 41t-50 109q0 94 73 147t214 53h22q1 4 1 8v8q0 39 -18.5 56t-54.5 17q-40 0 -77 -12t-81 -36l11 135q43 22 87 34.5t106 12.5q98 0 151.5 -55t53.5 -152q0 -67 -18 -132t-55.5 -118t-94.5 -84.5t-135 -31.5zM222 117q28 0 50.5 31.5t30.5 74.5h-11
q-63 0 -86 -22t-23 -48q0 -16 9.5 -26t29.5 -10z" />
    <glyph glyph-name="uni01DE" unicode="&#x1de;" horiz-adv-x="623" 
d="M-59 0l343 715h234l42 -715h-183l-2 136h-183l-58 -136h-193zM256 285h119l-2 198q0 24 0.5 47.5t1.5 47.5h-3q-7 -24 -14 -46t-17 -45zM292 947l23 108h309l-22 -108h-310zM319 772q-31 0 -49.5 11.5t-18.5 41.5q0 43 24 64t64 21q26 0 45.5 -10.5t19.5 -40.5
q0 -39 -20.5 -63t-64.5 -24zM528 772q-31 0 -49.5 11.5t-18.5 41.5q0 43 23.5 64t63.5 21q26 0 46 -10.5t20 -40.5q0 -38 -21 -62.5t-64 -24.5z" />
    <glyph glyph-name="uni01DF" unicode="&#x1df;" horiz-adv-x="563" 
d="M173 -10q-60 0 -101 46t-41 148q0 41 9 91.5t27.5 101t46.5 93t66 68t87 25.5q41 0 70 -19.5t48 -57.5h3l26 67h147l-117 -553h-144l2 62h-4q-23 -32 -51.5 -52t-73.5 -20zM248 136q22 0 39 21t29 53t18 64q6 27 8 45t2 33q0 30 -9 47t-28 17t-36 -21t-29.5 -54
t-20 -70.5t-7.5 -69.5q0 -65 34 -65zM230 785l23 108h309l-22 -108h-310zM257 610q-31 0 -49.5 11.5t-18.5 41.5q0 43 24 64t64 21q26 0 45.5 -10.5t19.5 -40.5q0 -39 -20.5 -63t-64.5 -24zM466 610q-31 0 -49.5 11.5t-18.5 41.5q0 43 23.5 64t63.5 21q26 0 46 -10.5
t20 -40.5q0 -38 -21 -62.5t-64 -24.5z" />
    <glyph glyph-name="uni01E0" unicode="&#x1e0;" horiz-adv-x="623" 
d="M-59 0l343 715h234l42 -715h-183l-2 136h-183l-58 -136h-193zM256 285h119l-2 198q0 24 0.5 47.5t1.5 47.5h-3q-7 -24 -14 -46t-17 -45zM291 974l24 115h309l-24 -115h-309zM419 785q-33 0 -54 13.5t-21 49.5q0 45 24.5 68t67.5 23q30 0 53 -13t23 -50q0 -38 -21.5 -64.5
t-71.5 -26.5z" />
    <glyph glyph-name="uni01E1" unicode="&#x1e1;" horiz-adv-x="563" 
d="M173 -10q-60 0 -101 46t-41 148q0 41 9 91.5t27.5 101t46.5 93t66 68t87 25.5q41 0 70 -19.5t48 -57.5h3l26 67h147l-117 -553h-144l2 62h-4q-23 -32 -51.5 -52t-73.5 -20zM248 136q22 0 39 21t29 53t18 64q6 27 8 45t2 33q0 30 -9 47t-28 17t-36 -21t-29.5 -54
t-20 -70.5t-7.5 -69.5q0 -65 34 -65zM228 785l25 115h309l-24 -115h-310zM358 605q-32 0 -53 12.5t-21 45.5q0 41 24 62t67 21q29 0 51 -12t22 -46q0 -35 -20.5 -59t-69.5 -24z" />
    <glyph glyph-name="uni01E2" unicode="&#x1e2;" horiz-adv-x="851" 
d="M-61 0l410 714h539l-31 -151h-205l-24 -118h190l-33 -151h-191l-29 -141h205l-33 -153h-386l29 136h-171l-76 -136h-194zM296 291h117l57 272h-24zM419 775l25 115h309l-24 -115h-310z" />
    <glyph glyph-name="uni01E3" unicode="&#x1e3;" horiz-adv-x="812" 
d="M169 -10q-57 0 -97.5 46t-40.5 148q0 45 9.5 96.5t28 101.5t47 91t66.5 65.5t85 24.5q78 0 118 -70h3l21 60h104l-1 -39q22 20 53.5 34.5t71.5 14.5q73 0 116 -41.5t43 -108.5q0 -95 -72.5 -147.5t-213.5 -52.5h-22q-1 -5 -1 -9v-8q0 -38 18.5 -55.5t55.5 -17.5
q39 0 76 12.5t81 36.5l-11 -135q-39 -23 -78 -35t-95 -12q-41 0 -69.5 12t-44.5 34l-11 -36h-111l6 60h-4q-23 -31 -54 -50.5t-77 -19.5zM509 330h9q64 0 87.5 22t23.5 48q0 15 -9.5 25.5t-28.5 10.5q-22 0 -39 -17t-28 -42t-15 -47zM248 136q22 0 39.5 21.5t29 53.5
t17.5 63q6 27 7.5 45t1.5 33q0 30 -10 47t-28 17q-19 0 -35.5 -20t-29 -52.5t-19.5 -70t-7 -72.5q0 -65 34 -65zM318 606l25 115h309l-24 -115h-310z" />
    <glyph glyph-name="uni01E4" unicode="&#x1e4;" horiz-adv-x="643" 
d="M296 -10q-118 0 -184 68t-66 198q0 85 24 168.5t73 151.5t124.5 108.5t178.5 40.5q58 0 111 -13.5t91 -36.5l-72 -147q-29 18 -64 30t-74 12q-54 0 -93 -30t-64 -77t-37 -100t-12 -99q0 -68 21.5 -99.5t62.5 -31.5q16 0 28 1.5t29 5.5l7 36h-94l22 103h95l8 41h-96
l30 139h275l-39 -180h56l-22 -103h-55l-31 -144q-53 -19 -111 -30.5t-122 -11.5z" />
    <glyph glyph-name="uni01E5" unicode="&#x1e5;" horiz-adv-x="563" 
d="M170 -240q-57 0 -98 9t-74 23v134q33 -19 76.5 -30.5t87.5 -11.5q30 0 50.5 10.5t33.5 28.5h-110l18 86h119l8 37q2 11 6.5 25.5t8.5 29.5h-4q-22 -28 -48.5 -43.5t-68.5 -15.5q-58 0 -96 43.5t-38 142.5q0 39 8.5 84.5t26 89.5t44.5 80.5t64 58.5t85 22q45 0 70 -18.5
t47 -58.5h3l25 67h147l-115 -544h63l-18 -86h-68q-34 -90 -100.5 -126.5t-152.5 -36.5zM261 187q21 0 37 17t26 43t15 55t5 54q0 27 -9 43.5t-28 16.5q-18 0 -33.5 -16t-26 -41.5t-16.5 -54t-6 -53.5q0 -64 36 -64z" />
    <glyph glyph-name="uni01E6" unicode="&#x1e6;" horiz-adv-x="643" 
d="M296 -10q-118 0 -184 68t-66 198q0 85 24 168.5t73 151.5t124.5 108.5t178.5 40.5q58 0 111 -13.5t91 -36.5l-72 -147q-29 18 -64 30t-74 12q-54 0 -93 -30t-64 -77t-37 -100t-12 -99q0 -62 22 -90.5t64 -28.5q16 0 28 1.5t29 4.5l26 121h-96l31 146h275l-82 -386
q-53 -19 -111 -30.5t-122 -11.5zM348 773q-13 33 -34.5 75t-41.5 73l1 12h119q14 -14 32.5 -37t31.5 -41q25 22 50 42t50 36h123l-1 -11q-21 -19 -47.5 -46.5t-51 -55t-40.5 -47.5h-191z" />
    <glyph glyph-name="uni01E7" unicode="&#x1e7;" horiz-adv-x="563" 
d="M170 -240q-57 0 -98 9t-74 23v150q34 -19 78.5 -30.5t88.5 -11.5q43 0 67.5 21t32.5 55l5 20q2 12 6 26.5t9 28.5h-4q-22 -28 -48.5 -43t-68.5 -15q-58 0 -95.5 44t-37.5 143q0 42 9 93t27.5 102t47 93.5t67 68.5t87.5 26q45 0 70 -18.5t47 -58.5h3l25 67h147l-121 -572
q-18 -83 -56.5 -131t-93 -69t-120.5 -21zM249 137q22 0 39.5 23t30 58t19 72t6.5 66q0 27 -9 43.5t-28 16.5q-20 0 -37 -22t-29.5 -56t-19.5 -70.5t-7 -65.5q0 -65 35 -65zM245 606q-13 33 -34.5 75t-41.5 73l1 12h119q14 -14 32.5 -37t31.5 -41q25 22 50 42t50 36h123
l-1 -11q-21 -19 -47.5 -46.5t-51 -55t-40.5 -47.5h-191z" />
    <glyph glyph-name="uni01E8" unicode="&#x1e8;" horiz-adv-x="611" 
d="M8 0l151 714h183l-64 -298l58 88l151 210h209l-253 -332l110 -382h-203l-67 274l-40 -24l-53 -250h-182zM325 773q-13 33 -34.5 75t-41.5 73l1 12h119q14 -14 32.5 -37t31.5 -41q25 22 50 42t50 36h123l-1 -11q-21 -19 -47.5 -46.5t-51 -55t-40.5 -47.5h-191z" />
    <glyph glyph-name="uni01E9" unicode="&#x1e9;" horiz-adv-x="568" 
d="M2 0l160 760h179l-67 -313q-6 -27 -14.5 -58.5t-15.5 -52.5h3l175 217h201l-220 -246l114 -307h-200l-59 189l-45 -29l-32 -160h-179zM163 816q-13 33 -34.5 75t-41.5 73l1 12h119q14 -14 32.5 -37t31.5 -41q25 22 50 42t50 36h123l-1 -11q-21 -19 -47.5 -46.5t-51 -55
t-40.5 -47.5h-191z" />
    <glyph glyph-name="uni01EA" unicode="&#x1ea;" horiz-adv-x="677" 
d="M295 -10q-125 0 -187.5 69t-62.5 194q0 67 14.5 134.5t44 128t73.5 107.5t103 74.5t133 27.5q123 0 184 -70t61 -193q0 -63 -13.5 -129.5t-41.5 -127.5t-71 -109.5t-102 -77t-135 -28.5zM310 145q36 0 65.5 28.5t51 75.5t33.5 103t12 111q0 52 -19.5 80t-55.5 28
q-38 0 -68.5 -30t-52 -78.5t-33 -104t-11.5 -105.5q0 -57 19.5 -82.5t58.5 -25.5zM262 -250q-56 0 -84 28t-28 69q0 49 30 86t75 67h112q-37 -34 -59.5 -60.5t-23.5 -56.5q0 -10 6 -16.5t17 -6.5q13 0 26 3t26 8l-8 -108q-21 -7 -41.5 -10t-47.5 -3z" />
    <glyph glyph-name="uni01EB" unicode="&#x1eb;" horiz-adv-x="560" 
d="M232 -10q-95 0 -147 54t-52 151q0 65 18 130t54 119t92.5 86.5t132.5 32.5q94 0 146 -54t52 -151q0 -66 -18 -131.5t-55 -119t-92.5 -85.5t-130.5 -32zM252 129q20 0 37.5 22t30.5 57.5t20 76t7 77.5q0 62 -39 62q-21 0 -38 -22t-29.5 -57.5t-19.5 -76t-7 -77.5
q0 -62 38 -62zM193 -250q-56 0 -84 28t-28 69q0 49 30 86t75 67h112q-37 -34 -59.5 -60.5t-23.5 -56.5q0 -10 6 -16.5t17 -6.5q13 0 26 3t26 8l-8 -108q-21 -7 -41.5 -10t-47.5 -3z" />
    <glyph glyph-name="uni01EC" unicode="&#x1ec;" horiz-adv-x="677" 
d="M295 -10q-125 0 -187.5 69t-62.5 194q0 67 14.5 134.5t44 128t73.5 107.5t103 74.5t133 27.5q123 0 184 -70t61 -193q0 -63 -13.5 -129.5t-41.5 -127.5t-71 -109.5t-102 -77t-135 -28.5zM310 145q36 0 65.5 28.5t51 75.5t33.5 103t12 111q0 52 -19.5 80t-55.5 28
q-38 0 -68.5 -30t-52 -78.5t-33 -104t-11.5 -105.5q0 -57 19.5 -82.5t58.5 -25.5zM280 773l25 115h309l-24 -115h-310zM262 -250q-56 0 -84 28t-28 69q0 49 30 86t75 67h112q-37 -34 -59.5 -60.5t-23.5 -56.5q0 -10 6 -16.5t17 -6.5q13 0 26 3t26 8l-8 -108
q-21 -7 -41.5 -10t-47.5 -3z" />
    <glyph glyph-name="uni01ED" unicode="&#x1ed;" horiz-adv-x="560" 
d="M232 -10q-95 0 -147 54t-52 151q0 65 18 130t54 119t92.5 86.5t132.5 32.5q94 0 146 -54t52 -151q0 -66 -18 -131.5t-55 -119t-92.5 -85.5t-130.5 -32zM252 129q20 0 37.5 22t30.5 57.5t20 76t7 77.5q0 62 -39 62q-21 0 -38 -22t-29.5 -57.5t-19.5 -76t-7 -77.5
q0 -62 38 -62zM185 606l25 115h309l-24 -115h-310zM193 -250q-56 0 -84 28t-28 69q0 49 30 86t75 67h112q-37 -34 -59.5 -60.5t-23.5 -56.5q0 -10 6 -16.5t17 -6.5q13 0 26 3t26 8l-8 -108q-21 -7 -41.5 -10t-47.5 -3z" />
    <glyph glyph-name="uni01EE" unicode="&#x1ee;" horiz-adv-x="543" 
d="M189 -10q-58 0 -108 9.5t-82 29.5v160q33 -23 81 -36t92 -13q58 0 96.5 20t38.5 76q0 36 -27.5 51t-89.5 15h-69l25 112l156 148h-193l31 152h420l-24 -119l-185 -176q73 -17 107.5 -64t34.5 -121q0 -72 -34 -127t-101.5 -86t-168.5 -31zM250 776q-13 33 -34.5 75
t-41.5 73l1 12h119q14 -14 32.5 -37t31.5 -41q25 22 50 42t50 36h123l-1 -11q-21 -19 -47.5 -46.5t-51 -55t-40.5 -47.5h-191z" />
    <glyph glyph-name="uni01EF" unicode="&#x1ef;" horiz-adv-x="536" 
d="M137 -240q-111 0 -187 41v163q44 -29 95 -42.5t86 -13.5q62 0 98.5 34t36.5 99q0 24 -10.5 44.5t-37 32.5t-74.5 12h-59l27 130l162 154h-197l30 139h420l-23 -113l-205 -187q82 -23 115 -77.5t33 -131.5q0 -90 -39.5 -153.5t-109.5 -97t-161 -33.5zM204 606
q-13 33 -34.5 75t-41.5 73l1 12h119q14 -14 32.5 -37t31.5 -41q25 22 50 42t50 36h123l-1 -11q-21 -19 -47.5 -46.5t-51 -55t-40.5 -47.5h-191z" />
    <glyph glyph-name="uni01F0" unicode="&#x1f0;" horiz-adv-x="298" 
d="M-36 -240q-23 0 -48 3t-44 9v145q15 -5 28.5 -7t25.5 -2q28 0 47 16t27 54l122 575h178l-127 -599q-11 -54 -35 -98t-66 -70t-108 -26zM118 606q-13 33 -34.5 75t-41.5 73l1 12h119q14 -14 32.5 -37t31.5 -41q25 22 50 42t50 36h123l-1 -11q-21 -19 -47.5 -46.5t-51 -55
t-40.5 -47.5h-191z" />
    <glyph glyph-name="uni01F1" unicode="&#x1f1;" horiz-adv-x="1134" 
d="M8 0l151 714h189q125 0 195 -66t70 -188q0 -96 -25.5 -179.5t-75 -146.5t-122.5 -98.5t-169 -35.5h-213zM223 154h26q43 0 76 25.5t55.5 68t34 94.5t11.5 105q0 57 -23 85.5t-66 28.5h-28zM589 0l24 118l324 444h-222l32 152h448l-25 -119l-327 -443h245l-32 -152h-467z
" />
    <glyph glyph-name="uni01F2" unicode="&#x1f2;" horiz-adv-x="1083" 
d="M8 0l151 714h189q125 0 195 -66t70 -188q0 -96 -25.5 -179.5t-75 -146.5t-122.5 -98.5t-169 -35.5h-213zM223 154h26q43 0 76 25.5t55.5 68t34 94.5t11.5 105q0 57 -23 85.5t-66 28.5h-28zM604 0l21 103l241 308h-165l31 142h375l-24 -113l-236 -298h179l-31 -142h-391z
" />
    <glyph glyph-name="uni01F3" unicode="&#x1f3;" horiz-adv-x="1012" 
d="M173 -10q-60 0 -101 46t-41 148q0 41 9 91t27 101t46 93t65.5 68t84.5 26q41 0 67 -18t46 -52h4q1 17 4 50.5t9 60.5l33 156h179l-161 -760h-144l2 59h-4q-23 -30 -50.5 -49.5t-74.5 -19.5zM248 136q22 0 40 22t30.5 56t19 71t6.5 67t-9 47t-27 17q-20 0 -37.5 -22
t-30 -56.5t-19.5 -71t-7 -65.5q0 -65 34 -65zM533 0l21 103l241 308h-165l31 142h375l-24 -113l-236 -298h179l-31 -142h-391z" />
    <glyph glyph-name="uni01F4" unicode="&#x1f4;" horiz-adv-x="643" 
d="M296 -10q-118 0 -184 68t-66 198q0 85 24 168.5t73 151.5t124.5 108.5t178.5 40.5q58 0 111 -13.5t91 -36.5l-72 -147q-29 18 -64 30t-74 12q-54 0 -93 -30t-64 -77t-37 -100t-12 -99q0 -62 22 -90.5t64 -28.5q16 0 28 1.5t29 4.5l26 121h-96l31 146h275l-82 -386
q-53 -19 -111 -30.5t-122 -11.5zM352 773l1 11q32 31 65.5 71.5t59.5 77.5h201l-1 -7q-11 -13 -35.5 -34t-54 -44.5t-58 -43.5t-46.5 -31h-132z" />
    <glyph glyph-name="uni01F5" unicode="&#x1f5;" horiz-adv-x="563" 
d="M170 -240q-57 0 -98 9t-74 23v150q34 -19 78.5 -30.5t88.5 -11.5q43 0 67.5 21t32.5 55l5 20q2 12 6 26.5t9 28.5h-4q-22 -28 -48.5 -43t-68.5 -15q-58 0 -95.5 44t-37.5 143q0 42 9 93t27.5 102t47 93.5t67 68.5t87.5 26q45 0 70 -18.5t47 -58.5h3l25 67h147l-121 -572
q-18 -83 -56.5 -131t-93 -69t-120.5 -21zM249 137q22 0 39.5 23t30 58t19 72t6.5 66q0 27 -9 43.5t-28 16.5q-20 0 -37 -22t-29.5 -56t-19.5 -70.5t-7 -65.5q0 -65 35 -65zM246 606l1 11q32 31 65.5 71.5t59.5 77.5h201l-1 -7q-11 -13 -35.5 -34t-54 -44.5t-58 -43.5
t-46.5 -31h-132z" />
    <glyph glyph-name="uni01F6" unicode="&#x1f6;" horiz-adv-x="973" 
d="M616 -9q-107 0 -164 50t-57 137q0 23 2.5 44.5t7.5 43.5l6 29h-159l-62 -295h-182l151 714h182l-57 -269h160l56 269h183l-95 -450q-4 -16 -6.5 -34t-2.5 -32q0 -33 16.5 -47t40.5 -14q34 0 56.5 27.5t35.5 89.5l63 298h181l-60 -298q-26 -130 -96 -196.5t-200 -66.5z
" />
    <glyph glyph-name="uni01F7" unicode="&#x1f7;" horiz-adv-x="618" 
d="M-43 -240l203 953h148l-4 -74h3q26 35 61.5 59.5t88.5 24.5q85 0 130.5 -51t45.5 -140q0 -129 -55.5 -232t-154.5 -177.5t-230 -117.5l-53 -245h-183zM228 178q65 31 114 78.5t76.5 106.5t27.5 125q0 36 -16 56.5t-46 20.5q-44 0 -65.5 -34t-33.5 -87z" />
    <glyph glyph-name="uni01F8" unicode="&#x1f8;" horiz-adv-x="722" 
d="M8 0l151 714h209l116 -454h3q3 24 7.5 54t10 60t9.5 53l61 287h165l-151 -714h-208l-117 472h-3q-3 -20 -7 -53t-9 -68.5t-11 -62.5l-61 -288h-165zM428 773q-19 19 -41 45.5t-41.5 54.5t-30.5 50v10h188q6 -31 16 -69t27 -79v-12h-118z" />
    <glyph glyph-name="uni01F9" unicode="&#x1f9;" horiz-adv-x="574" 
d="M2 0l118 553h142l-4 -72h3q51 82 140 82q65 0 101 -39.5t36 -107.5q0 -23 -3 -48.5t-8 -51.5l-67 -316h-178l63 304q4 16 7 36t3 36q0 39 -33 39q-27 0 -48 -36t-35 -103l-58 -276h-179zM327 606q-19 19 -41 45.5t-41.5 54.5t-30.5 50v10h188q6 -31 16 -69t27 -79v-12
h-118z" />
    <glyph glyph-name="Aringacute" unicode="&#x1fa;" horiz-adv-x="623" 
d="M350 875l1 5q22 17 47.5 38.5t43.5 41.5h200v-3q-22 -17 -51 -33t-57 -29t-48 -20h-136zM-59 0l338 683q-6 19 -6 43q0 57 36 90t93 33q55 0 92 -33t37 -88q0 -21 -7.5 -40.5t-17.5 -31.5l54 -656h-183l-4 136h-181l-58 -136h-193zM402 684q18 0 31 11.5t13 30.5
t-12.5 31t-31.5 12t-31.5 -12t-12.5 -31t11 -30.5t33 -11.5zM256 285h116l-5 162q0 23 -0.5 48.5t0.5 53.5h-4q-5 -20 -12 -40t-12 -34z" />
    <glyph glyph-name="aringacute" unicode="&#x1fb;" horiz-adv-x="563" 
d="M315 863v6q22 18 50.5 44t46.5 47h201v-5q-21 -17 -52.5 -35.5t-62 -34t-48.5 -22.5h-135zM354 587q-58 0 -93.5 33t-35.5 89q0 57 35.5 90.5t93.5 33.5q54 0 90.5 -33t37.5 -89q0 -56 -36 -90t-92 -34zM354 667q18 0 30.5 11.5t12.5 30.5t-12.5 31t-30.5 12
q-19 0 -31.5 -12t-12.5 -31t11 -30.5t33 -11.5zM173 -10q-60 0 -101 46t-41 148q0 41 9 91.5t27.5 101t46.5 93t66 68t87 25.5q41 0 70 -19.5t48 -57.5h3l26 67h147l-117 -553h-144l2 62h-4q-23 -32 -51.5 -52t-73.5 -20zM248 136q22 0 39 21t29 53t18 64q6 27 8 45t2 33
q0 30 -9 47t-28 17t-36 -21t-29.5 -54t-20 -70.5t-7.5 -69.5q0 -65 34 -65z" />
    <glyph glyph-name="AEacute" unicode="&#x1fc;" horiz-adv-x="851" 
d="M-61 0l410 714h539l-31 -151h-205l-24 -118h190l-33 -151h-191l-29 -141h205l-33 -153h-386l29 136h-171l-76 -136h-194zM296 291h117l57 272h-24zM443 768l1 11q32 31 65.5 71.5t59.5 77.5h201l-1 -7q-11 -13 -35.5 -34t-54 -44.5t-58 -43.5t-46.5 -31h-132z" />
    <glyph glyph-name="aeacute" unicode="&#x1fd;" horiz-adv-x="812" 
d="M169 -10q-57 0 -97.5 46t-40.5 148q0 45 9.5 96.5t28 101.5t47 91t66.5 65.5t85 24.5q78 0 118 -70h3l21 60h104l-1 -39q22 20 53.5 34.5t71.5 14.5q73 0 116 -41.5t43 -108.5q0 -95 -72.5 -147.5t-213.5 -52.5h-22q-1 -5 -1 -9v-8q0 -38 18.5 -55.5t55.5 -17.5
q39 0 76 12.5t81 36.5l-11 -135q-39 -23 -78 -35t-95 -12q-41 0 -69.5 12t-44.5 34l-11 -36h-111l6 60h-4q-23 -31 -54 -50.5t-77 -19.5zM509 330h9q64 0 87.5 22t23.5 48q0 15 -9.5 25.5t-28.5 10.5q-22 0 -39 -17t-28 -42t-15 -47zM248 136q22 0 39.5 21.5t29 53.5
t17.5 63q6 27 7.5 45t1.5 33q0 30 -10 47t-28 17q-19 0 -35.5 -20t-29 -52.5t-19.5 -70t-7 -72.5q0 -65 34 -65zM379 606l1 11q32 31 65.5 71.5t59.5 77.5h201l-1 -7q-11 -13 -35.5 -34t-54 -44.5t-58 -43.5t-46.5 -31h-132z" />
    <glyph glyph-name="Oslashacute" unicode="&#x1fe;" horiz-adv-x="677" 
d="M110 -48l-76 52l57 76q-46 65 -46 173q0 67 14.5 134.5t43.5 128t72.5 107.5t101.5 74.5t130 27.5q42 0 76.5 -8.5t62.5 -22.5l43 57l75 -52l-50 -68q44 -65 44 -169q0 -63 -13.5 -129.5t-41.5 -127.5t-70.5 -109.5t-100.5 -77t-131 -28.5q-85 0 -141 30zM233 268
l209 283q-18 20 -48 20q-33 0 -61.5 -23t-49.5 -62t-33.5 -88t-14.5 -100q-1 -8 -1.5 -15t-0.5 -15zM310 145q44 0 79 38.5t55.5 100t23.5 131.5q1 7 1 13v12l-207 -279q19 -16 48 -16zM344 768l1 11q32 31 65.5 71.5t59.5 77.5h201l-1 -7q-11 -13 -35.5 -34t-54 -44.5
t-58 -43.5t-46.5 -31h-132z" />
    <glyph glyph-name="oslashacute" unicode="&#x1ff;" horiz-adv-x="573" 
d="M83 -58l-65 50l55 70q-40 52 -40 133q0 65 18.5 130t55.5 119t94 86.5t135 32.5q32 0 58 -6.5t49 -17.5l46 58l65 -49l-49 -63q17 -25 26.5 -56.5t9.5 -70.5q0 -66 -18.5 -131.5t-56 -119t-94 -85.5t-132.5 -32q-30 0 -55.5 6t-47.5 15zM202 223l150 193q-15 15 -35 15
q-27 0 -50.5 -24.5t-40 -66.5t-22.5 -95q-1 -5 -1.5 -10.5t-0.5 -11.5zM259 124q41 0 71.5 47t38.5 127q1 5 1.5 10.5t0.5 9.5l-144 -184q13 -10 32 -10zM275 606l1 11q32 31 65.5 71.5t59.5 77.5h201l-1 -7q-11 -13 -35.5 -34t-54 -44.5t-58 -43.5t-46.5 -31h-132z" />
    <glyph glyph-name="uni0200" unicode="&#x200;" horiz-adv-x="623" 
d="M-59 0l343 715h234l42 -715h-183l-2 136h-183l-58 -136h-193zM256 285h119l-2 198q0 24 0.5 47.5t1.5 47.5h-3q-7 -24 -14 -46t-17 -45zM462 773q-22 22 -45 48.5t-41 53t-27 48.5l1 10h160q5 -27 15 -65t25 -82l-1 -13h-87zM271 773q-20 21 -42.5 48t-41.5 54t-27 48v10
h161q5 -32 15.5 -71t24.5 -76l-1 -13h-89z" />
    <glyph glyph-name="uni0201" unicode="&#x201;" horiz-adv-x="563" 
d="M173 -10q-60 0 -101 46t-41 148q0 41 9 91.5t27.5 101t46.5 93t66 68t87 25.5q41 0 70 -19.5t48 -57.5h3l26 67h147l-117 -553h-144l2 62h-4q-23 -32 -51.5 -52t-73.5 -20zM248 136q22 0 39 21t29 53t18 64q6 27 8 45t2 33q0 30 -9 47t-28 17t-36 -21t-29.5 -54
t-20 -70.5t-7.5 -69.5q0 -65 34 -65zM403 606q-22 22 -45 48.5t-41 53t-27 48.5l1 10h160q5 -27 15 -65t25 -82l-1 -13h-87zM212 606q-20 21 -42.5 48t-41.5 54t-27 48v10h161q5 -32 15.5 -71t24.5 -76l-1 -13h-89z" />
    <glyph glyph-name="uni0202" unicode="&#x202;" horiz-adv-x="623" 
d="M-59 0l343 715h234l42 -715h-183l-2 136h-183l-58 -136h-193zM256 285h119l-2 198q0 24 0.5 47.5t1.5 47.5h-3q-7 -24 -14 -46t-17 -45zM239 773q15 88 65.5 134.5t139.5 46.5q79 0 118.5 -39t39.5 -102q0 -20 -5 -40h-103q0 31 -16.5 48t-47.5 17q-29 0 -52 -13t-35 -52
h-104z" />
    <glyph glyph-name="uni0203" unicode="&#x203;" horiz-adv-x="563" 
d="M173 -10q-60 0 -101 46t-41 148q0 41 9 91.5t27.5 101t46.5 93t66 68t87 25.5q41 0 70 -19.5t48 -57.5h3l26 67h147l-117 -553h-144l2 62h-4q-23 -32 -51.5 -52t-73.5 -20zM248 136q22 0 39 21t29 53t18 64q6 27 8 45t2 33q0 30 -9 47t-28 17t-36 -21t-29.5 -54
t-20 -70.5t-7.5 -69.5q0 -65 34 -65zM173 606q15 88 65.5 134.5t139.5 46.5q79 0 118.5 -39t39.5 -102q0 -20 -5 -40h-103q0 31 -16.5 48t-47.5 17q-29 0 -52 -13t-35 -52h-104z" />
    <glyph glyph-name="uni0204" unicode="&#x204;" horiz-adv-x="510" 
d="M8 0l151 714h388l-32 -151h-205l-25 -118h191l-33 -151h-191l-30 -141h206l-32 -153h-388zM419 773q-22 22 -45 48.5t-41 53t-27 48.5l1 10h160q5 -27 15 -65t25 -82l-1 -13h-87zM228 773q-20 21 -42.5 48t-41.5 54t-27 48v10h161q5 -32 15.5 -71t24.5 -76l-1 -13h-89z
" />
    <glyph glyph-name="uni0205" unicode="&#x205;" horiz-adv-x="536" 
d="M238 -10q-98 0 -152 55t-54 152q0 67 18 132t55 118t94.5 84.5t136.5 31.5q84 0 134 -41.5t50 -108.5q0 -95 -72.5 -147.5t-214.5 -52.5h-22q-1 -5 -1 -9v-8q0 -38 18.5 -55.5t55.5 -17.5q40 0 74 11.5t77 33.5v-128q-44 -25 -89.5 -37.5t-107.5 -12.5zM232 330h10
q64 0 87.5 22t23.5 48q0 15 -10 25.5t-29 10.5q-28 0 -51 -31.5t-31 -74.5zM385 606q-22 22 -45 48.5t-41 53t-27 48.5l1 10h160q5 -27 15 -65t25 -82l-1 -13h-87zM194 606q-20 21 -42.5 48t-41.5 54t-27 48v10h161q5 -32 15.5 -71t24.5 -76l-1 -13h-89z" />
    <glyph glyph-name="uni0206" unicode="&#x206;" horiz-adv-x="510" 
d="M8 0l151 714h388l-32 -151h-205l-25 -118h191l-33 -151h-191l-30 -141h206l-32 -153h-388zM193 773q15 88 65.5 134.5t139.5 46.5q79 0 118.5 -39t39.5 -102q0 -20 -5 -40h-103q0 31 -16.5 48t-47.5 17q-29 0 -52 -13t-35 -52h-104z" />
    <glyph glyph-name="uni0207" unicode="&#x207;" horiz-adv-x="536" 
d="M238 -10q-98 0 -152 55t-54 152q0 67 18 132t55 118t94.5 84.5t136.5 31.5q84 0 134 -41.5t50 -108.5q0 -95 -72.5 -147.5t-214.5 -52.5h-22q-1 -5 -1 -9v-8q0 -38 18.5 -55.5t55.5 -17.5q40 0 74 11.5t77 33.5v-128q-44 -25 -89.5 -37.5t-107.5 -12.5zM232 330h10
q64 0 87.5 22t23.5 48q0 15 -10 25.5t-29 10.5q-28 0 -51 -31.5t-31 -74.5zM156 606q15 88 65.5 134.5t139.5 46.5q79 0 118.5 -39t39.5 -102q0 -20 -5 -40h-103q0 31 -16.5 48t-47.5 17q-29 0 -52 -13t-35 -52h-104z" />
    <glyph glyph-name="uni0208" unicode="&#x208;" horiz-adv-x="407" 
d="M-36 0l21 101l93 39l91 432l-76 41l21 101h355l-21 -101l-96 -41l-92 -432l78 -39l-21 -101h-353zM352 773q-22 22 -45 48.5t-41 53t-27 48.5l1 10h160q5 -27 15 -65t25 -82l-1 -13h-87zM161 773q-20 21 -42.5 48t-41.5 54t-27 48v10h161q5 -32 15.5 -71t24.5 -76l-1 -13
h-89z" />
    <glyph glyph-name="uni0209" unicode="&#x209;" horiz-adv-x="298" 
d="M3 0l117 553h179l-118 -553h-178zM269 606q-22 22 -45 48.5t-41 53t-27 48.5l1 10h160q5 -27 15 -65t25 -82l-1 -13h-87zM78 606q-20 21 -42.5 48t-41.5 54t-27 48v10h161q5 -32 15.5 -71t24.5 -76l-1 -13h-89z" />
    <glyph glyph-name="uni020A" unicode="&#x20a;" horiz-adv-x="407" 
d="M-36 0l21 101l93 39l91 432l-76 41l21 101h355l-21 -101l-96 -41l-92 -432l78 -39l-21 -101h-353zM129 773q15 88 65.5 134.5t139.5 46.5q79 0 118.5 -39t39.5 -102q0 -20 -5 -40h-103q0 31 -16.5 48t-47.5 17q-29 0 -52 -13t-35 -52h-104z" />
    <glyph glyph-name="uni020B" unicode="&#x20b;" horiz-adv-x="298" 
d="M3 0l117 553h179l-118 -553h-178zM44 606q15 88 65.5 134.5t139.5 46.5q79 0 118.5 -39t39.5 -102q0 -20 -5 -40h-103q0 31 -16.5 48t-47.5 17q-29 0 -52 -13t-35 -52h-104z" />
    <glyph glyph-name="uni020C" unicode="&#x20c;" horiz-adv-x="677" 
d="M295 -10q-125 0 -187.5 69t-62.5 194q0 67 14.5 134.5t44 128t73.5 107.5t103 74.5t133 27.5q123 0 184 -70t61 -193q0 -63 -13.5 -129.5t-41.5 -127.5t-71 -109.5t-102 -77t-135 -28.5zM310 145q36 0 65.5 28.5t51 75.5t33.5 103t12 111q0 52 -19.5 80t-55.5 28
q-38 0 -68.5 -30t-52 -78.5t-33 -104t-11.5 -105.5q0 -57 19.5 -82.5t58.5 -25.5zM484 773q-22 22 -45 48.5t-41 53t-27 48.5l1 10h160q5 -27 15 -65t25 -82l-1 -13h-87zM293 773q-20 21 -42.5 48t-41.5 54t-27 48v10h161q5 -32 15.5 -71t24.5 -76l-1 -13h-89z" />
    <glyph glyph-name="uni020D" unicode="&#x20d;" horiz-adv-x="560" 
d="M232 -10q-95 0 -147 54t-52 151q0 65 18 130t54 119t92.5 86.5t132.5 32.5q94 0 146 -54t52 -151q0 -66 -18 -131.5t-55 -119t-92.5 -85.5t-130.5 -32zM252 129q20 0 37.5 22t30.5 57.5t20 76t7 77.5q0 62 -39 62q-21 0 -38 -22t-29.5 -57.5t-19.5 -76t-7 -77.5
q0 -62 38 -62zM396 606q-22 22 -45 48.5t-41 53t-27 48.5l1 10h160q5 -27 15 -65t25 -82l-1 -13h-87zM205 606q-20 21 -42.5 48t-41.5 54t-27 48v10h161q5 -32 15.5 -71t24.5 -76l-1 -13h-89z" />
    <glyph glyph-name="uni020E" unicode="&#x20e;" horiz-adv-x="677" 
d="M295 -10q-125 0 -187.5 69t-62.5 194q0 67 14.5 134.5t44 128t73.5 107.5t103 74.5t133 27.5q123 0 184 -70t61 -193q0 -63 -13.5 -129.5t-41.5 -127.5t-71 -109.5t-102 -77t-135 -28.5zM310 145q36 0 65.5 28.5t51 75.5t33.5 103t12 111q0 52 -19.5 80t-55.5 28
q-38 0 -68.5 -30t-52 -78.5t-33 -104t-11.5 -105.5q0 -57 19.5 -82.5t58.5 -25.5zM265 773q15 88 65.5 134.5t139.5 46.5q79 0 118.5 -39t39.5 -102q0 -20 -5 -40h-103q0 31 -16.5 48t-47.5 17q-29 0 -52 -13t-35 -52h-104z" />
    <glyph glyph-name="uni020F" unicode="&#x20f;" horiz-adv-x="560" 
d="M232 -10q-95 0 -147 54t-52 151q0 65 18 130t54 119t92.5 86.5t132.5 32.5q94 0 146 -54t52 -151q0 -66 -18 -131.5t-55 -119t-92.5 -85.5t-130.5 -32zM252 129q20 0 37.5 22t30.5 57.5t20 76t7 77.5q0 62 -39 62q-21 0 -38 -22t-29.5 -57.5t-19.5 -76t-7 -77.5
q0 -62 38 -62zM170 606q15 88 65.5 134.5t139.5 46.5q79 0 118.5 -39t39.5 -102q0 -20 -5 -40h-103q0 31 -16.5 48t-47.5 17q-29 0 -52 -13t-35 -52h-104z" />
    <glyph glyph-name="uni0210" unicode="&#x210;" horiz-adv-x="597" 
d="M8 0l151 714h179q239 0 239 -186q0 -64 -20 -109.5t-51.5 -75t-65.5 -44.5l110 -299h-200l-78 262h-26l-56 -262h-182zM276 403h21q40 0 67 29.5t27 79.5q0 26 -14 42t-46 16h-20zM442 773q-22 22 -45 48.5t-41 53t-27 48.5l1 10h160q5 -27 15 -65t25 -82l-1 -13h-87z
M251 773q-20 21 -42.5 48t-41.5 54t-27 48v10h161q5 -32 15.5 -71t24.5 -76l-1 -13h-89z" />
    <glyph glyph-name="uni0211" unicode="&#x211;" horiz-adv-x="406" 
d="M3 0l117 553h141l-6 -88h4q31 55 65.5 76.5t85.5 21.5q22 0 42 -5l-45 -183q-23 10 -56 10q-43 0 -72.5 -31t-43.5 -98l-54 -256h-178zM345 606q-22 22 -45 48.5t-41 53t-27 48.5l1 10h160q5 -27 15 -65t25 -82l-1 -13h-87zM154 606q-20 21 -42.5 48t-41.5 54t-27 48v10
h161q5 -32 15.5 -71t24.5 -76l-1 -13h-89z" />
    <glyph glyph-name="uni0212" unicode="&#x212;" horiz-adv-x="597" 
d="M8 0l151 714h179q239 0 239 -186q0 -64 -20 -109.5t-51.5 -75t-65.5 -44.5l110 -299h-200l-78 262h-26l-56 -262h-182zM276 403h21q40 0 67 29.5t27 79.5q0 26 -14 42t-46 16h-20zM223 773q15 88 65.5 134.5t139.5 46.5q79 0 118.5 -39t39.5 -102q0 -20 -5 -40h-103
q0 31 -16.5 48t-47.5 17q-29 0 -52 -13t-35 -52h-104z" />
    <glyph glyph-name="uni0213" unicode="&#x213;" horiz-adv-x="406" 
d="M3 0l117 553h141l-6 -88h4q31 55 65.5 76.5t85.5 21.5q22 0 42 -5l-45 -183q-23 10 -56 10q-43 0 -72.5 -31t-43.5 -98l-54 -256h-178zM120 606q15 88 65.5 134.5t139.5 46.5q79 0 118.5 -39t39.5 -102q0 -20 -5 -40h-103q0 31 -16.5 48t-47.5 17q-29 0 -52 -13t-35 -52
h-104z" />
    <glyph glyph-name="uni0214" unicode="&#x214;" horiz-adv-x="643" 
d="M269 -10q-102 0 -160 54t-58 141q0 35 8 73l98 456h182l-97 -454q-3 -14 -5 -28.5t-2 -26.5q0 -59 54 -59q38 0 60.5 27t36.5 94l96 447h182l-100 -469q-26 -124 -94 -189.5t-201 -65.5zM469 773q-22 22 -45 48.5t-41 53t-27 48.5l1 10h160q5 -27 15 -65t25 -82l-1 -13
h-87zM278 773q-20 21 -42.5 48t-41.5 54t-27 48v10h161q5 -32 15.5 -71t24.5 -76l-1 -13h-89z" />
    <glyph glyph-name="uni0215" unicode="&#x215;" horiz-adv-x="574" 
d="M173 -10q-71 0 -103.5 42.5t-32.5 104.5q0 49 11 101l66 315h179l-64 -303q-4 -16 -6.5 -36t-2.5 -36q0 -20 9 -30t23 -10q26 0 47.5 36t35.5 104l59 275h178l-117 -553h-142l4 72h-4q-50 -82 -140 -82zM401 606q-22 22 -45 48.5t-41 53t-27 48.5l1 10h160q5 -27 15 -65
t25 -82l-1 -13h-87zM210 606q-20 21 -42.5 48t-41.5 54t-27 48v10h161q5 -32 15.5 -71t24.5 -76l-1 -13h-89z" />
    <glyph glyph-name="uni0216" unicode="&#x216;" horiz-adv-x="643" 
d="M269 -10q-102 0 -160 54t-58 141q0 35 8 73l98 456h182l-97 -454q-3 -14 -5 -28.5t-2 -26.5q0 -59 54 -59q38 0 60.5 27t36.5 94l96 447h182l-100 -469q-26 -124 -94 -189.5t-201 -65.5zM243 773q15 88 65.5 134.5t139.5 46.5q79 0 118.5 -39t39.5 -102q0 -20 -5 -40
h-103q0 31 -16.5 48t-47.5 17q-29 0 -52 -13t-35 -52h-104z" />
    <glyph glyph-name="uni0217" unicode="&#x217;" horiz-adv-x="574" 
d="M173 -10q-71 0 -103.5 42.5t-32.5 104.5q0 49 11 101l66 315h179l-64 -303q-4 -16 -6.5 -36t-2.5 -36q0 -20 9 -30t23 -10q26 0 47.5 36t35.5 104l59 275h178l-117 -553h-142l4 72h-4q-50 -82 -140 -82zM175 606q15 88 65.5 134.5t139.5 46.5q79 0 118.5 -39t39.5 -102
q0 -20 -5 -40h-103q0 31 -16.5 48t-47.5 17q-29 0 -52 -13t-35 -52h-104z" />
    <glyph glyph-name="uni0218" unicode="&#x218;" horiz-adv-x="507" 
d="M186 -10q-53 0 -98.5 11.5t-80.5 35.5l13 171q34 -24 81.5 -42.5t88.5 -18.5q31 0 51.5 14t20.5 47q0 26 -19 47t-53 49q-48 40 -74.5 85t-26.5 109t30 115.5t85.5 81t134.5 29.5q51 0 101.5 -13.5t92.5 -39.5l-69 -147q-32 20 -65.5 33t-61.5 13q-34 0 -48.5 -17
t-14.5 -40q0 -21 14 -42t59 -55q55 -41 78.5 -86.5t23.5 -105.5q0 -68 -30 -120.5t-88.5 -83t-144.5 -30.5zM45 -221v13q12 32 27 73t24 74h167v-10q-21 -38 -48.5 -76.5t-56.5 -73.5h-113z" />
    <glyph glyph-name="uni0219" unicode="&#x219;" horiz-adv-x="460" 
d="M172 -10q-54 0 -93 8t-70 24v150q39 -23 76 -33t72 -10q19 0 39.5 7t20.5 28q0 15 -11.5 30t-54.5 42q-49 32 -68.5 67.5t-19.5 81.5q0 77 52 127.5t159 50.5q52 0 97 -13t82 -38l-60 -122q-26 20 -58.5 32t-55.5 12q-34 0 -34 -32q0 -14 12.5 -25.5t46.5 -32.5
q49 -28 73 -64.5t24 -90.5q0 -94 -61.5 -146.5t-167.5 -52.5zM29 -221v13q12 32 27 73t24 74h167v-10q-21 -38 -48.5 -76.5t-56.5 -73.5h-113z" />
    <glyph glyph-name="uni021A" unicode="&#x21a;" horiz-adv-x="507" 
d="M100 0l117 560h-140l33 154h464l-34 -154h-141l-117 -560h-182zM53 -221v13q12 32 27 73t24 74h167v-10q-21 -38 -48.5 -76.5t-56.5 -73.5h-113z" />
    <glyph glyph-name="uni021B" unicode="&#x21b;" horiz-adv-x="415" 
d="M184 -10q-70 0 -103 33.5t-33 98.5q0 19 3.5 43t8.5 47l42 202h-66l19 90l95 43l63 117h121l-24 -111h124l-30 -139h-124l-44 -205q-2 -11 -4 -22.5t-2 -18.5q0 -30 29 -30q33 0 79 20v-137q-62 -31 -154 -31zM41 -221v13q12 32 27 73t24 74h167v-10q-21 -38 -48.5 -76.5
t-56.5 -73.5h-113z" />
    <glyph glyph-name="uni021C" unicode="&#x21c;" horiz-adv-x="592" 
d="M-48 -180l34 164q106 23 188.5 53t130 75.5t47.5 114.5q0 22 -7.5 38.5t-19.5 30.5q-33 -12 -71 -22.5t-80 -19.5l-2 140q66 16 118 32t82 38t30 58q0 27 -20 37.5t-51 10.5q-38 0 -84 -15t-85 -37l-54 129q64 39 129 58t142 19q100 0 156 -48.5t56 -124.5
q0 -63 -31.5 -109.5t-86.5 -78.5q27 -22 46.5 -54t19.5 -82q0 -73 -31.5 -130.5t-87.5 -101.5t-130 -76.5t-160.5 -56.5t-177.5 -42z" />
    <glyph glyph-name="uni021D" unicode="&#x21d;" horiz-adv-x="504" 
d="M-68 -240l32 154q106 20 171 43.5t95 57.5t30 84q0 19 -4 34t-10 26q-58 -19 -122 -33v128q71 16 113.5 31.5t61 35t18.5 47.5q0 22 -17 32.5t-47 10.5q-39 0 -77 -8.5t-70 -22.5l-27 133q54 23 106.5 35.5t110.5 12.5q95 0 146 -43t51 -113q0 -58 -29 -103.5t-79 -77.5
q24 -20 40 -49.5t16 -72.5q0 -67 -28.5 -117t-78.5 -86.5t-115 -62t-138.5 -44t-148.5 -32.5z" />
    <glyph glyph-name="uni021E" unicode="&#x21e;" horiz-adv-x="659" 
d="M8 0l151 714h183l-56 -267h153l56 267h182l-152 -714h-182l62 294h-152l-63 -294h-182zM330 773q-13 33 -34.5 75t-41.5 73l1 12h119q14 -14 32.5 -37t31.5 -41q25 22 50 42t50 36h123l-1 -11q-21 -19 -47.5 -46.5t-51 -55t-40.5 -47.5h-191z" />
    <glyph glyph-name="uni021F" unicode="&#x21f;" horiz-adv-x="574" 
d="M2 0l162 760h178l-28 -128q-7 -33 -18.5 -69t-21.5 -63h4q47 63 125 63q69 0 102 -43t33 -105q0 -24 -3 -50t-8 -49l-67 -316h-178l63 304q4 16 7 35t3 37t-9.5 28.5t-24.5 10.5q-23 0 -44 -28.5t-36 -101.5l-60 -285h-179zM164 810q-13 33 -34.5 75t-41.5 73l1 12h119
q14 -14 32.5 -37t31.5 -41q25 22 50 42t50 36h123l-1 -11q-21 -19 -47.5 -46.5t-51 -55t-40.5 -47.5h-191z" />
    <glyph glyph-name="uni0220" unicode="&#x220;" horiz-adv-x="685" 
d="M320 -240l139 652q5 29 9.5 54.5t4.5 46.5q0 28 -12.5 44t-40.5 16q-55 0 -93.5 -52.5t-56.5 -141.5l-80 -379h-183l152 714h150l-9 -99h3q36 52 83 81t111 29q82 0 122.5 -47.5t40.5 -123.5q0 -28 -5 -61t-12 -74l-140 -659h-183z" />
    <glyph glyph-name="uni0221" unicode="&#x221;" horiz-adv-x="738" 
d="M467 -107l-86 24q11 31 20 59.5t18 53.5q-39 22 -61 61h-3q-60 -101 -175 -101q-63 0 -106 46t-43 148q0 45 9.5 96.5t28.5 101.5t47 91t64.5 65.5t82.5 24.5q43 0 68 -18.5t44 -52.5h3q2 19 5 48.5t9 57.5l34 162h179l-104 -488q-4 -17 -6.5 -34.5t-2.5 -29.5
q0 -16 3 -29q28 37 64.5 57t89.5 20q39 0 64 -16.5t37 -43t12 -55.5q0 -67 -48 -109t-135 -42q-19 0 -39 2t-39 6q-7 -22 -15.5 -48t-18.5 -57zM248 136q21 0 39 22t30.5 56t19.5 71t7 67t-9 47t-27 17q-20 0 -37 -21.5t-29.5 -55t-20 -70.5t-7.5 -68q0 -65 34 -65zM594 93
q54 0 54 36q0 12 -8.5 19t-21.5 7q-21 0 -37.5 -11t-32.5 -37q20 -14 46 -14z" />
    <glyph glyph-name="uni0222" unicode="&#x222;" horiz-adv-x="720" 
d="M330 -30q-142 0 -220.5 63t-78.5 172q0 172 152 246q-29 19 -40.5 50t-11.5 63q0 16 2.5 37t8.5 45l15 68h179l-14 -72q-2 -16 -4 -27.5t-2 -26.5q0 -32 19.5 -54.5t64.5 -22.5q56 0 85 28t41 83l19 92h183l-19 -90q-13 -64 -42 -114t-81 -81q41 -35 58 -75t17 -89
q0 -89 -37.5 -155t-111 -103t-182.5 -37zM337 123q69 0 103.5 41.5t34.5 101.5q0 43 -25.5 70.5t-86.5 27.5q-71 0 -108.5 -39.5t-37.5 -96.5q0 -52 32 -78.5t88 -26.5z" />
    <glyph glyph-name="uni0223" unicode="&#x223;" horiz-adv-x="599" 
d="M270 -10q-106 0 -171.5 56t-65.5 158q0 86 39.5 155.5t120.5 97.5q-28 17 -44.5 47.5t-16.5 70.5q0 26 3.5 51.5t8.5 51.5l18 82h176l-21 -106q-5 -22 -8 -40.5t-3 -35.5q0 -25 11 -40t32 -15q36 0 51 30t27 90l23 117h179l-27 -133q-14 -65 -44.5 -112t-85.5 -70
q34 -23 58.5 -63t24.5 -102q0 -33 -8 -72t-27 -77.5t-51.5 -70.5t-81.5 -51t-117 -19zM277 133q33 0 55.5 26t33.5 65.5t11 78.5q0 35 -17 56.5t-48 21.5q-27 0 -46 -16t-31.5 -41.5t-18.5 -54t-6 -53.5q0 -37 17.5 -60t49.5 -23z" />
    <glyph glyph-name="uni0224" unicode="&#x224;" horiz-adv-x="502" 
d="M246 -241q-26 0 -47 3.5t-37 9.5v127q6 -3 18.5 -6t23.5 -3q39 0 51 52l13 58h-311l24 118l324 444h-222l32 152h448l-25 -119l-327 -443h245l-47 -224q-19 -89 -56 -129t-107 -40z" />
    <glyph glyph-name="uni0225" unicode="&#x225;" horiz-adv-x="451" 
d="M187 -236q-50 0 -80 12l-1 128q8 -4 18.5 -6.5t22.5 -2.5q19 0 31.5 11t17.5 39l11 55h-235l21 103l241 308h-165l31 142h375l-24 -113l-236 -298h179l-45 -212q-19 -92 -57 -129t-105 -37z" />
    <glyph glyph-name="uni0226" unicode="&#x226;" horiz-adv-x="623" 
d="M-59 0l343 715h234l42 -715h-183l-2 136h-183l-58 -136h-193zM256 285h119l-2 198q0 24 0.5 47.5t1.5 47.5h-3q-7 -24 -14 -46t-17 -45zM418 773q-39 0 -63 16t-24 53q0 49 27.5 75.5t79.5 26.5q36 0 61.5 -15t25.5 -55q0 -43 -24.5 -72t-82.5 -29z" />
    <glyph glyph-name="uni0227" unicode="&#x227;" horiz-adv-x="563" 
d="M173 -10q-60 0 -101 46t-41 148q0 41 9 91.5t27.5 101t46.5 93t66 68t87 25.5q41 0 70 -19.5t48 -57.5h3l26 67h147l-117 -553h-144l2 62h-4q-23 -32 -51.5 -52t-73.5 -20zM248 136q22 0 39 21t29 53t18 64q6 27 8 45t2 33q0 30 -9 47t-28 17t-36 -21t-29.5 -54
t-20 -70.5t-7.5 -69.5q0 -65 34 -65zM346 606q-39 0 -63 16t-24 53q0 49 27.5 75.5t79.5 26.5q36 0 61.5 -15t25.5 -55q0 -43 -24.5 -72t-82.5 -29z" />
    <glyph glyph-name="uni0228" unicode="&#x228;" horiz-adv-x="510" 
d="M8 0l151 714h388l-32 -151h-205l-25 -118h191l-33 -151h-191l-30 -141h206l-32 -153h-388zM177 -240q-54 0 -90 13v95q15 -4 36 -7.5t32 -3.5q35 0 35 28q0 13 -12.5 25t-50.5 18l41 72h91l-15 -25q35 -7 58 -28t23 -62q0 -64 -40 -94.5t-108 -30.5z" />
    <glyph glyph-name="uni0229" unicode="&#x229;" horiz-adv-x="536" 
d="M238 -10q-98 0 -152 55t-54 152q0 67 18 132t55 118t94.5 84.5t136.5 31.5q84 0 134 -41.5t50 -108.5q0 -95 -72.5 -147.5t-214.5 -52.5h-22q-1 -5 -1 -9v-8q0 -38 18.5 -55.5t55.5 -17.5q40 0 74 11.5t77 33.5v-128q-44 -25 -89.5 -37.5t-107.5 -12.5zM232 330h10
q64 0 87.5 22t23.5 48q0 15 -10 25.5t-29 10.5q-28 0 -51 -31.5t-31 -74.5zM190 -240q-54 0 -90 13v95q15 -4 36 -7.5t32 -3.5q35 0 35 28q0 13 -12.5 25t-50.5 18l41 72h91l-15 -25q35 -7 58 -28t23 -62q0 -64 -40 -94.5t-108 -30.5z" />
    <glyph glyph-name="uni022A" unicode="&#x22a;" horiz-adv-x="677" 
d="M295 -10q-125 0 -187.5 69t-62.5 194q0 67 14.5 134.5t44 128t73.5 107.5t103 74.5t133 27.5q123 0 184 -70t61 -193q0 -63 -13.5 -129.5t-41.5 -127.5t-71 -109.5t-102 -77t-135 -28.5zM310 145q36 0 65.5 28.5t51 75.5t33.5 103t12 111q0 52 -19.5 80t-55.5 28
q-38 0 -68.5 -30t-52 -78.5t-33 -104t-11.5 -105.5q0 -57 19.5 -82.5t58.5 -25.5zM316 952l23 108h309l-22 -108h-310zM343 777q-31 0 -49.5 11.5t-18.5 41.5q0 43 24 64t64 21q26 0 45.5 -10.5t19.5 -40.5q0 -39 -20.5 -63t-64.5 -24zM552 777q-31 0 -49.5 11.5t-18.5 41.5
q0 43 23.5 64t63.5 21q26 0 46 -10.5t20 -40.5q0 -38 -21 -62.5t-64 -24.5z" />
    <glyph glyph-name="uni022B" unicode="&#x22b;" horiz-adv-x="560" 
d="M232 -10q-95 0 -147 54t-52 151q0 65 18 130t54 119t92.5 86.5t132.5 32.5q94 0 146 -54t52 -151q0 -66 -18 -131.5t-55 -119t-92.5 -85.5t-130.5 -32zM252 129q20 0 37.5 22t30.5 57.5t20 76t7 77.5q0 62 -39 62q-21 0 -38 -22t-29.5 -57.5t-19.5 -76t-7 -77.5
q0 -62 38 -62zM221 785l23 108h309l-22 -108h-310zM248 610q-31 0 -49.5 11.5t-18.5 41.5q0 43 24 64t64 21q26 0 45.5 -10.5t19.5 -40.5q0 -39 -20.5 -63t-64.5 -24zM457 610q-31 0 -49.5 11.5t-18.5 41.5q0 43 23.5 64t63.5 21q26 0 46 -10.5t20 -40.5q0 -38 -21 -62.5
t-64 -24.5z" />
    <glyph glyph-name="uni022C" unicode="&#x22c;" horiz-adv-x="677" 
d="M295 -10q-125 0 -187.5 69t-62.5 194q0 67 14.5 134.5t44 128t73.5 107.5t103 74.5t133 27.5q123 0 184 -70t61 -193q0 -63 -13.5 -129.5t-41.5 -127.5t-71 -109.5t-102 -77t-135 -28.5zM310 145q36 0 65.5 28.5t51 75.5t33.5 103t12 111q0 52 -19.5 80t-55.5 28
q-38 0 -68.5 -30t-52 -78.5t-33 -104t-11.5 -105.5q0 -57 19.5 -82.5t58.5 -25.5zM309 945l24 115h309l-24 -115h-309zM246 770q15 70 48 105t88 35q26 0 47.5 -10t40.5 -20t38 -10q31 0 47 40h87q-17 -77 -53.5 -108t-86.5 -31q-28 0 -50 10t-41 20t-38 10q-12 0 -24 -10.5
t-16 -30.5h-87z" />
    <glyph glyph-name="uni022D" unicode="&#x22d;" horiz-adv-x="560" 
d="M232 -10q-95 0 -147 54t-52 151q0 65 18 130t54 119t92.5 86.5t132.5 32.5q94 0 146 -54t52 -151q0 -66 -18 -131.5t-55 -119t-92.5 -85.5t-130.5 -32zM252 129q20 0 37.5 22t30.5 57.5t20 76t7 77.5q0 62 -39 62q-21 0 -38 -22t-29.5 -57.5t-19.5 -76t-7 -77.5
q0 -62 38 -62zM219 778l24 115h309l-24 -115h-309zM156 603q15 70 48 105t88 35q26 0 47.5 -10t40.5 -20t38 -10q31 0 47 40h87q-17 -77 -53.5 -108t-86.5 -31q-28 0 -50 10t-41 20t-38 10q-12 0 -24 -10.5t-16 -30.5h-87z" />
    <glyph glyph-name="uni022E" unicode="&#x22e;" horiz-adv-x="677" 
d="M295 -10q-125 0 -187.5 69t-62.5 194q0 67 14.5 134.5t44 128t73.5 107.5t103 74.5t133 27.5q123 0 184 -70t61 -193q0 -63 -13.5 -129.5t-41.5 -127.5t-71 -109.5t-102 -77t-135 -28.5zM310 145q36 0 65.5 28.5t51 75.5t33.5 103t12 111q0 52 -19.5 80t-55.5 28
q-38 0 -68.5 -30t-52 -78.5t-33 -104t-11.5 -105.5q0 -57 19.5 -82.5t58.5 -25.5zM442 773q-39 0 -63 16t-24 53q0 49 27.5 75.5t79.5 26.5q36 0 61.5 -15t25.5 -55q0 -43 -24.5 -72t-82.5 -29z" />
    <glyph glyph-name="uni022F" unicode="&#x22f;" horiz-adv-x="560" 
d="M232 -10q-95 0 -147 54t-52 151q0 65 18 130t54 119t92.5 86.5t132.5 32.5q94 0 146 -54t52 -151q0 -66 -18 -131.5t-55 -119t-92.5 -85.5t-130.5 -32zM252 129q20 0 37.5 22t30.5 57.5t20 76t7 77.5q0 62 -39 62q-21 0 -38 -22t-29.5 -57.5t-19.5 -76t-7 -77.5
q0 -62 38 -62zM349 606q-39 0 -63 16t-24 53q0 49 27.5 75.5t79.5 26.5q36 0 61.5 -15t25.5 -55q0 -43 -24.5 -72t-82.5 -29z" />
    <glyph glyph-name="uni0230" unicode="&#x230;" horiz-adv-x="677" 
d="M295 -10q-125 0 -187.5 69t-62.5 194q0 67 14.5 134.5t44 128t73.5 107.5t103 74.5t133 27.5q123 0 184 -70t61 -193q0 -63 -13.5 -129.5t-41.5 -127.5t-71 -109.5t-102 -77t-135 -28.5zM310 145q36 0 65.5 28.5t51 75.5t33.5 103t12 111q0 52 -19.5 80t-55.5 28
q-38 0 -68.5 -30t-52 -78.5t-33 -104t-11.5 -105.5q0 -57 19.5 -82.5t58.5 -25.5zM310 973l24 115h309l-24 -115h-309zM438 784q-33 0 -54 13.5t-21 49.5q0 45 24.5 68t67.5 23q30 0 53 -13t23 -50q0 -38 -21.5 -64.5t-71.5 -26.5z" />
    <glyph glyph-name="uni0231" unicode="&#x231;" horiz-adv-x="560" 
d="M232 -10q-95 0 -147 54t-52 151q0 65 18 130t54 119t92.5 86.5t132.5 32.5q94 0 146 -54t52 -151q0 -66 -18 -131.5t-55 -119t-92.5 -85.5t-130.5 -32zM252 129q20 0 37.5 22t30.5 57.5t20 76t7 77.5q0 62 -39 62q-21 0 -38 -22t-29.5 -57.5t-19.5 -76t-7 -77.5
q0 -62 38 -62zM220 785l25 115h309l-24 -115h-310zM350 605q-32 0 -53 12.5t-21 45.5q0 41 24 62t67 21q29 0 51 -12t22 -46q0 -35 -20.5 -59t-69.5 -24z" />
    <glyph glyph-name="uni0232" unicode="&#x232;" horiz-adv-x="562" 
d="M125 0l57 274l-97 440h188l35 -252l139 252h201l-283 -438l-58 -276h-182zM209 773l25 115h309l-24 -115h-310z" />
    <glyph glyph-name="uni0233" unicode="&#x233;" horiz-adv-x="512" 
d="M13 -240q-27 0 -45 2.5t-30 6.5l11 147q11 -3 23 -5t26 -2q35 0 56.5 15.5t38.5 47.5l18 35l-63 546h180l12 -240q2 -25 1.5 -48t-1.5 -45h4q6 23 15.5 50.5t16.5 44.5l102 238h190l-313 -620q-41 -83 -96 -128t-146 -45zM155 606l25 115h309l-24 -115h-310z" />
    <glyph glyph-name="uni0234" unicode="&#x234;" horiz-adv-x="470" 
d="M56 -79l-100 33q36 110 93 183q-5 24 -3 52t8 56l110 515h178l-106 -503q20 5 42 7.5t45 2.5q50 0 81 -18t45 -45.5t14 -58.5q0 -67 -49 -111t-143 -44q-109 0 -166 48q-14 -26 -26 -54.5t-23 -62.5zM292 94q28 0 42 11.5t14 27.5q0 38 -52 38q-17 0 -33.5 -2.5
t-33.5 -9.5q3 -35 21.5 -50t41.5 -15z" />
    <glyph glyph-name="uni0235" unicode="&#x235;" horiz-adv-x="761" 
d="M380 -65l-104 34q14 40 30 69t33 54q-13 21 -16.5 54t6.5 81l16 77q4 16 7 36t3 36q0 39 -33 39q-27 0 -48 -36t-35 -103l-58 -276h-179l118 553h142l-4 -72h3q51 82 140 82q65 0 101 -39.5t36 -107.5q0 -48 -12 -100l-18 -81q20 13 47 22.5t61 9.5q42 0 70 -18t42 -45.5
t14 -58.5q0 -67 -52.5 -111t-145.5 -44q-36 0 -69 7t-54 22q-12 -17 -21.5 -38t-19.5 -46zM568 94q31 0 44.5 11t13.5 27t-9 25.5t-32 9.5q-20 0 -36 -8t-30 -21q4 -23 18.5 -33.5t30.5 -10.5z" />
    <glyph glyph-name="uni0236" unicode="&#x236;" horiz-adv-x="481" 
d="M113 -65l-103 34q14 40 30 69t32 54q-12 21 -16 54t7 81l39 187h-66l19 90l95 43l63 117h121l-24 -111h124l-30 -139h-124l-38 -179q20 13 47 22.5t61 9.5q42 0 70 -18t41.5 -45.5t13.5 -58.5q0 -67 -52 -111t-146 -44q-35 0 -68 7t-54 22q-13 -17 -22 -38t-20 -46z
M302 94q31 0 44.5 11t13.5 27t-10 25.5t-32 9.5q-20 0 -36 -8t-30 -21q4 -23 18.5 -33.5t31.5 -10.5z" />
    <glyph glyph-name="uni0237" unicode="&#x237;" horiz-adv-x="298" 
d="M-36 -240q-23 0 -48 3t-44 9v145q15 -5 28.5 -7t25.5 -2q28 0 47 16t27 54l122 575h178l-127 -599q-11 -54 -35 -98t-66 -70t-108 -26z" />
    <glyph glyph-name="uni0238" unicode="&#x238;" horiz-adv-x="826" 
d="M204 -10q-80 0 -126.5 47t-46.5 153q0 41 9 91t27.5 99.5t46.5 91t66 66.5t87 25q43 0 67 -19t42 -51h4q1 17 4 50.5t9 60.5l33 156h179l-28 -132q-8 -41 -16.5 -69.5t-20.5 -56.5h4q20 26 44 43.5t66 17.5q62 0 102 -45.5t40 -148.5q0 -43 -9 -93.5t-28.5 -101t-50 -92
t-73 -67t-98.5 -25.5q-55 0 -96 23t-64 75q-30 -42 -73 -70t-100 -28zM248 136q22 0 40 22t30.5 56t19 71t6.5 67t-9 47t-27 17q-20 0 -37.5 -22t-30 -56.5t-19.5 -71t-7 -65.5q0 -65 34 -65zM524 136q18 0 34.5 21.5t28.5 55t19 70.5t7 68q0 65 -36 65q-22 0 -39.5 -22
t-29.5 -56t-18 -71t-6 -67t9 -47t31 -17z" />
    <glyph glyph-name="uni0239" unicode="&#x239;" horiz-adv-x="826" 
d="M623 563q80 0 126.5 -47t46.5 -153q0 -41 -9 -91t-27.5 -99.5t-46.5 -91t-66 -66.5t-87 -25q-43 0 -67 19t-42 51h-4q-1 -17 -4 -50.5t-9 -60.5l-33 -156h-179l28 132q8 41 16.5 69.5t20.5 56.5h-4q-20 -26 -44 -43.5t-66 -17.5q-62 0 -102 45.5t-40 148.5q0 43 9 93.5
t28.5 101t50 92t73 67t98.5 25.5q55 0 96 -23t64 -75q30 42 73 70t100 28zM579 417q-22 0 -40 -22t-30.5 -56t-19 -71t-6.5 -67t9 -47t27 -17q20 0 37.5 22t30 56.5t19.5 71t7 65.5q0 65 -34 65zM303 417q-18 0 -34.5 -21.5t-28.5 -55t-19 -70.5t-7 -68q0 -65 36 -65
q22 0 39.5 22t29.5 56t18 71t6 67t-9 47t-31 17z" />
    <glyph glyph-name="uni023A" unicode="&#x23a;" horiz-adv-x="623" 
d="M-59 0l343 715h187l19 45h89l-56 -131l37 -629h-183l-2 136h-63l-90 -211h-90l90 211h-30l-58 -136h-193zM256 285h30l87 202q0 25 0.5 47t1.5 44h-3q-7 -24 -14 -46t-17 -45z" />
    <glyph glyph-name="uni023B" unicode="&#x23b;" horiz-adv-x="572" 
d="M146 -75l34 82q-68 27 -101.5 90.5t-33.5 152.5q0 66 14 133.5t42 129t71 109t101.5 75.5t131.5 28q35 0 67 -5l16 40h86l-25 -60q36 -14 68 -35l-75 -142q-29 18 -53 29l-167 -408q39 1 76 11.5t81 30.5v-155q-47 -22 -98 -31.5t-102 -9.5q-10 0 -19 1l-27 -66h-87z
M232 259q0 -52 18 -81l160 392h-3q-42 0 -75 -30t-55 -78t-33.5 -102t-11.5 -101z" />
    <glyph glyph-name="uni023C" unicode="&#x23c;" horiz-adv-x="465" 
d="M91 -145l58 147q-52 18 -84 67t-32 130q0 69 18.5 134.5t54.5 117t89.5 82t123.5 30.5q27 0 51 -3l52 130h85l-59 -150q18 -7 36 -17l-62 -135q-14 8 -29 14l-103 -263q24 4 49.5 14.5t53.5 27.5v-145q-33 -19 -73 -32t-89 -14l-53 -135h-87zM213 216q0 -25 5 -41l95 241
q-26 -5 -45 -27t-31 -53t-18 -63t-6 -57z" />
    <glyph glyph-name="uni023D" unicode="&#x23d;" horiz-adv-x="480" 
d="M8 0l60 283h-55l32 143h53l61 288h183l-62 -288h89l-31 -143h-88l-28 -131h210l-32 -152h-392z" />
    <glyph glyph-name="uni023E" unicode="&#x23e;" horiz-adv-x="507" 
d="M-68 -33l237 363l48 230h-140l33 154h310l57 88h105l-57 -88h49l-34 -154h-116l-37 -57l-105 -503h-182l19 92l-81 -125h-106z" />
    <glyph glyph-name="uni023F" unicode="&#x23f;" horiz-adv-x="460" 
d="M243 -240q-61 0 -100 35t-62 116q-12 41 -21.5 62t-27.5 34q-6 5 -11.5 8t-11.5 7v150q39 -23 76 -33t72 -10q19 0 39.5 7t20.5 28q0 15 -11.5 30t-54.5 42q-49 32 -68.5 67.5t-19.5 81.5q0 77 52 127.5t159 50.5q52 0 97 -13t82 -38l-60 -122q-26 20 -58.5 32t-55.5 12
q-34 0 -34 -32q0 -14 12.5 -25.5t46.5 -32.5q49 -28 73 -64.5t24 -90.5q0 -85 -54 -137t-146 -60q17 -15 26 -45q8 -26 19.5 -41.5t36.5 -15.5q13 0 24 2.5t20 5.5v-125q-14 -5 -36.5 -9t-47.5 -4z" />
    <glyph glyph-name="uni0240" unicode="&#x240;" horiz-adv-x="451" 
d="M289 -240q-79 0 -118 35.5t-63 108.5q-16 51 -39.5 73.5t-73.5 22.5h-23l21 103l241 308h-165l31 142h375l-24 -113l-275 -344q28 -14 45.5 -38t33.5 -67q18 -49 32 -72.5t44 -23.5q11 0 20.5 2t19.5 6l1 -129q-16 -7 -38.5 -10.5t-44.5 -3.5z" />
    <glyph glyph-name="uni0241" unicode="&#x241;" horiz-adv-x="484" 
d="M68 0l71 328q53 22 95 51t66 62.5t24 69.5q0 34 -16 48t-41 14q-24 0 -59.5 -12.5t-72.5 -35.5l-46 134q53 33 104 49.5t116 16.5q98 0 148 -50t50 -135q0 -92 -50 -165t-152 -124l-56 -251h-181z" />
    <glyph glyph-name="uni0242" unicode="&#x242;" horiz-adv-x="475" 
d="M58 0l34 160q53 22 95.5 53t67.5 67t25 74q0 33 -17 47t-42 14q-23 0 -58 -13t-73 -36l-47 131q53 31 104.5 49t116.5 18q98 0 146.5 -50t48.5 -135q0 -93 -50 -166t-152 -124l-20 -89h-179z" />
    <glyph glyph-name="uni0243" unicode="&#x243;" horiz-adv-x="591" 
d="M8 0l38 180h-65l20 95h65l93 439h222q97 0 151.5 -38.5t54.5 -111.5q0 -144 -139 -188v-5q40 -14 63 -48.5t23 -80.5q0 -78 -36 -132t-98 -82t-139 -28h-253zM276 432h38q51 0 72 28.5t21 66.5q0 50 -65 50h-35zM213 134h43q46 0 74.5 32t28.5 82q0 35 -14.5 53t-51.5 18
h-39l-10 -44h74l-20 -95h-75z" />
    <glyph glyph-name="uni0244" unicode="&#x244;" horiz-adv-x="643" 
d="M259 -10q-65 0 -112 25.5t-71.5 70t-24.5 101.5q0 33 8 71l12 56h-72l31 141h71l56 259h182l-55 -259h143l55 259h182l-55 -259h75l-31 -141h-74l-15 -69q-26 -124 -98.5 -189.5t-206.5 -65.5zM287 146q37 0 61 27t38 94l11 47h-143l-12 -54q-3 -14 -5 -28.5t-2 -26.5
q0 -59 52 -59z" />
    <glyph glyph-name="uni0245" unicode="&#x245;" horiz-adv-x="581" 
d="M-57 0l339 715h205l37 -715h-183l-5 350q-1 37 0 79.5t4 73.5q-10 -35 -22 -66t-23 -57l-160 -380h-192z" />
    <glyph glyph-name="uni0246" unicode="&#x246;" horiz-adv-x="510" 
d="M8 0l151 714h275l17 46h92l-17 -46h21l-32 -151h-46l-44 -118h51l-33 -151h-75l-53 -141h113l-32 -153h-139l-28 -75h-93l28 75h-156zM285 445h47l45 118h-67zM222 153v0l53 141h-23z" />
    <glyph glyph-name="uni0247" unicode="&#x247;" horiz-adv-x="536" 
d="M96 -185l64 186q-62 19 -95 70t-33 126q0 67 18 132t54.5 118t92 84.5t131.5 31.5q4 0 9 -0.5t9 -0.5l55 162h70l-59 -173q51 -17 79.5 -52.5t28.5 -85.5q0 -168 -217 -192l-31 -98h14q40 0 73 11.5t76 33.5v-128q-44 -25 -89.5 -37.5t-103.5 -12.5h-15l-59 -175h-72z
M220 320h13h16.5t15.5 1l40 118q-31 -12 -54 -45.5t-31 -73.5zM342 339q27 12 38 29t11 34q0 8 -4 17.5t-13 14.5zM211 155l21 63h-32q0 -5 -0.5 -9.5t-0.5 -9.5q0 -26 12 -44z" />
    <glyph glyph-name="uni0248" unicode="&#x248;" horiz-adv-x="337" 
d="M-59 -225q-28 0 -53 4t-47 10l11 152q16 -5 34 -9t39 -4q44 0 68.5 32.5t37.5 92.5l52 240h-80l32 141h77l60 280h183l-60 -280h79l-31 -141h-78l-56 -264q-20 -92 -54 -148t-86.5 -81t-127.5 -25z" />
    <glyph glyph-name="uni0249" unicode="&#x249;" horiz-adv-x="298" 
d="M231 606q-39 0 -62.5 15.5t-23.5 50.5q0 45 27.5 75t79.5 30q37 0 61.5 -15.5t24.5 -50.5q0 -46 -27 -75.5t-80 -29.5zM-36 -240q-23 0 -48 3t-44 9v145q15 -5 28.5 -7t25.5 -2q28 0 47 16t27 54l51 241h-66l25 117h66l46 217h178l-46 -217h69l-27 -117h-67l-56 -265
q-11 -54 -35 -98t-66 -70t-108 -26z" />
    <glyph glyph-name="uni024A" unicode="&#x24a;" horiz-adv-x="699" 
d="M522 -240q-80 0 -118 36t-38 100q0 15 2.5 34.5t5.5 34.5l7 32q4 19 9.5 38t11.5 38h-4q-28 -43 -64.5 -64t-88.5 -21q-91 0 -144 66t-53 198q0 99 25 184.5t69.5 150.5t103.5 101.5t128 36.5q60 0 95 -24t54 -59h4l30 72h160l-156 -732q-3 -13 -5.5 -24.5t-2.5 -22.5
q0 -30 30 -30q17 0 33.5 4t25.5 8v-135q-19 -9 -53.5 -15.5t-66.5 -6.5zM313 143q54 0 85.5 45.5t48.5 124.5l18 80q5 23 8 45.5t3 40.5q0 23 -7 45t-24 36t-45 14q-31 0 -57 -21t-46.5 -55t-34.5 -75t-21 -82t-7 -75q1 -68 21.5 -95.5t57.5 -27.5z" />
    <glyph glyph-name="uni024B" unicode="&#x24b;" horiz-adv-x="563" 
d="M406 -241q-77 0 -116.5 36.5t-39.5 89.5q0 27 5 57l6 29q5 24 11.5 43t13.5 37h-4q-21 -29 -47.5 -45t-68.5 -16q-36 0 -66.5 20t-49.5 62t-19 108q0 42 9 93t27.5 102t47 93.5t67 68.5t87.5 26q45 0 70 -18.5t47 -58.5h3l25 67h147l-123 -578q-3 -16 -5 -26.5t-2 -19.5
q0 -26 33 -26q10 0 20 1.5t22 6.5v-138q-18 -6 -45.5 -10t-54.5 -4zM249 137q22 0 39.5 22t30 56t19 71.5t6.5 69.5q0 27 -9 43.5t-28 16.5t-35.5 -20.5t-29.5 -53.5t-20.5 -70t-7.5 -70q0 -65 35 -65z" />
    <glyph glyph-name="uni024C" unicode="&#x24c;" horiz-adv-x="597" 
d="M8 0l56 262h-65l31 141h64l65 311h179q239 0 239 -186q0 -64 -20 -109.5t-51.5 -75t-65.5 -44.5l110 -299h-200l-78 262h-26l-56 -262h-182zM276 403h21q40 0 67 29.5t27 79.5q0 26 -14 42t-46 16h-20z" />
    <glyph glyph-name="uni024D" unicode="&#x24d;" horiz-adv-x="406" 
d="M3 0l44 211h-65l24 113h65l49 229h141l-6 -88h4q31 55 65.5 76.5t85.5 21.5q22 0 42 -5l-45 -183q-23 10 -56 10q-61 0 -92 -61h86l-24 -113h-96l-44 -211h-178z" />
    <glyph glyph-name="uni024E" unicode="&#x24e;" horiz-adv-x="562" 
d="M125 0l57 274l-56 252h-84l23 107h37l-17 81h188l11 -81h118l45 81h201l-52 -81h42l-22 -107h-89l-162 -250l-58 -276h-182zM306 451l39 75h-47z" />
    <glyph glyph-name="uni024F" unicode="&#x24f;" horiz-adv-x="512" 
d="M13 -240q-27 0 -45 2.5t-30 6.5l11 147q11 -3 23 -5t26 -2q35 0 56.5 15.5t38.5 47.5l18 35l-29 255h-87l26 117h47l-20 174h180l9 -174h66l75 174h190l-88 -174h54l-24 -117h-89l-166 -329q-41 -83 -96 -128t-146 -45zM240 220h4q5 18 13 42h-16q0 -11 -0.5 -21.5
t-0.5 -20.5z" />
    <glyph glyph-name="uni0250" unicode="&#x250;" horiz-adv-x="561" 
d="M228 -10q-90 0 -137.5 39.5t-47.5 120.5q0 13 2.5 35.5t6.5 39.5l69 327h126l12 -73h3q27 29 50.5 48t50 28t63.5 9q64 0 95 -40t31 -98q0 -105 -65 -161t-182 -60l-78 -3l-3 -12q-3 -15 -3 -27q0 -21 12.5 -31.5t34.5 -10.5q35 0 70.5 10.5t81.5 29.5l32 -120
q-55 -25 -107.5 -38t-116.5 -13zM247 305l32 2q47 3 67 30.5t20 55.5q0 18 -10 28t-26 10q-26 0 -46 -22.5t-27 -57.5z" />
    <glyph glyph-name="uni0251" unicode="&#x251;" horiz-adv-x="563" 
d="M173 -10q-60 0 -101 46t-41 148q0 41 9 91.5t27.5 101t46.5 93t66 68t87 25.5q41 0 70 -19.5t48 -57.5h3l26 67h147l-117 -553h-144l2 62h-4q-23 -32 -51.5 -52t-73.5 -20zM248 136q22 0 39 21t29 53t18 64q6 27 8 45t2 33q0 30 -9 47t-28 17t-36 -21t-29.5 -54
t-20 -70.5t-7.5 -69.5q0 -65 34 -65z" />
    <glyph glyph-name="uni0252" unicode="&#x252;" horiz-adv-x="563" 
d="M390 563q60 0 101 -46t41 -148q0 -41 -9 -91.5t-27.5 -101t-46.5 -93t-66 -68t-87 -25.5q-41 0 -70 19.5t-48 57.5h-3l-26 -67h-147l117 553h144l-2 -62h4q23 32 51.5 52t73.5 20zM315 417q-22 0 -39 -21t-29 -53t-18 -64q-6 -27 -8 -45t-2 -33q0 -30 9 -47t28 -17t36 21
t29.5 54t20 70.5t7.5 69.5q0 65 -34 65z" />
    <glyph glyph-name="uni0253" unicode="&#x253;" horiz-adv-x="563" 
d="M295 -10q-40 0 -68 16.5t-53 53.5h-3l-26 -60h-143l133 624q16 74 61.5 109.5t116.5 35.5q29 0 51 -5.5t33 -9.5v-137q-6 3 -16.5 6.5t-24.5 3.5q-42 0 -53 -43l-3 -12q-4 -15 -9 -30.5t-14 -39.5h3q22 28 46.5 44.5t65.5 16.5q59 0 100 -45.5t41 -148.5
q0 -43 -9.5 -93.5t-28 -101t-47 -92t-67 -67t-86.5 -25.5zM256 136q18 0 35 21t30 54t21 70t8 70q0 65 -36 65q-22 0 -39.5 -22t-29.5 -56t-18.5 -71t-6.5 -67t9 -47t27 -17z" />
    <glyph glyph-name="uni0254" unicode="&#x254;" horiz-adv-x="465" 
d="M147 -10q-48 0 -87.5 10t-77.5 30l62 135q21 -12 47 -20.5t49 -8.5q30 0 51.5 21t34.5 53.5t19.5 66.5t6.5 60q0 43 -13 61t-39 18q-30 0 -61 -11.5t-66 -32.5v145q35 20 77 33t95 13q81 0 134.5 -51.5t53.5 -157.5q0 -69 -18.5 -134t-54.5 -117t-89.5 -82.5
t-123.5 -30.5z" />
    <glyph glyph-name="uni0255" unicode="&#x255;" horiz-adv-x="487" 
d="M90 -87l-69 35q17 30 31.5 58t31.5 54q-21 22 -36 60t-15 94q0 66 18.5 128t55 111.5t89.5 79t123 29.5q52 0 91 -10t74 -29l-62 -135q-25 13 -47 21t-50 8q-33 0 -57 -26t-38 -64.5t-19 -78.5q-1 -5 -1 -10.5v-10.5q26 27 60.5 41.5t79.5 14.5q58 0 91.5 -33.5
t33.5 -87.5q0 -60 -30.5 -98t-80.5 -56t-110 -18q-38 0 -66 7.5t-44 17.5q-14 -25 -26 -48t-28 -54zM298 104q26 0 46.5 13t20.5 39q0 14 -10.5 23.5t-30.5 9.5q-32 0 -56 -14.5t-39 -34.5q22 -36 69 -36z" />
    <glyph glyph-name="uni0256" unicode="&#x256;" horiz-adv-x="561" 
d="M406 -240q-76 0 -115.5 34t-39.5 89q0 17 3 36.5t8 43.5l4 17q3 15 10.5 37t13.5 34h-4q-22 -27 -46.5 -44t-66.5 -17q-60 0 -101 46t-41 148q0 41 9 91t27 101t46 93t65.5 68t84.5 26q41 0 67 -18t46 -52h4q1 17 4 50.5t9 60.5l33 156h179l-162 -763q-3 -15 -7 -32.5
t-4 -30.5q0 -30 33 -30q20 0 41 8v-139q-18 -6 -45.5 -9.5t-54.5 -3.5zM248 136q22 0 40 22t30.5 56t19 71t6.5 67t-9 47t-27 17q-20 0 -37.5 -22t-30 -56.5t-19.5 -71t-7 -65.5q0 -65 34 -65z" />
    <glyph glyph-name="uni0257" unicode="&#x257;" horiz-adv-x="561" 
d="M173 -10q-60 0 -101 46t-41 148q0 41 9 91t27 101t46 93t65.5 68t84.5 26q41 0 67 -18t46 -52h4q1 17 4 50t9 59l6 28q18 74 63 106.5t116 32.5q30 0 52 -5.5t32 -9.5v-137q-6 3 -16.5 6.5t-23.5 3.5q-21 0 -35.5 -12t-20.5 -41l-122 -574h-144l2 59h-4
q-23 -30 -50.5 -49.5t-74.5 -19.5zM248 136q22 0 40 22t30.5 56t19 71t6.5 67t-9 47t-27 17q-20 0 -37.5 -22t-30 -56.5t-19.5 -71t-7 -65.5q0 -65 34 -65z" />
    <glyph glyph-name="uni0258" unicode="&#x258;" horiz-adv-x="531" 
d="M183 -10q-53 0 -94 11.5t-70 31.5v132q35 -20 69.5 -31.5t80.5 -11.5q45 0 77.5 21t44.5 71l-31 1q-82 4 -128.5 24t-66.5 54.5t-20 81.5q0 55 27 97t77.5 66t120.5 24q110 0 167 -63t57 -164q0 -63 -16.5 -124t-53 -111t-96 -80t-145.5 -30zM316 329q2 10 2 22
q0 37 -14.5 61.5t-43.5 24.5q-20 0 -34 -14t-14 -39q0 -19 16.5 -36.5t66.5 -18.5h21z" />
    <glyph glyph-name="uni0259" unicode="&#x259;" horiz-adv-x="536" 
d="M200 -10q-85 0 -135 41t-50 109q0 94 73 147t214 53h22q1 4 1 8v8q0 39 -18.5 56t-54.5 17q-40 0 -77 -12t-81 -36l11 135q43 22 87 34.5t106 12.5q98 0 151.5 -55t53.5 -152q0 -67 -18 -132t-55.5 -118t-94.5 -84.5t-135 -31.5zM222 117q28 0 50.5 31.5t30.5 74.5h-11
q-63 0 -86 -22t-23 -48q0 -16 9.5 -26t29.5 -10z" />
    <glyph glyph-name="uni025A" unicode="&#x25a;" horiz-adv-x="783" 
d="M200 -10q-88 0 -137.5 40t-49.5 103q0 58 30 95t91 61.5t154 46.5l41 9q0 84 -69 84q-42 0 -75 -9t-83 -36v129q46 26 93 37.5t104 11.5q85 0 140 -44t63 -135l140 34l5 -46q5 -49 13.5 -66.5t28.5 -17.5q17 0 29 5.5t22 13.5l40 -92q-23 -19 -52.5 -31t-63.5 -12
q-47 0 -78 28t-40 85l-50 -14q-9 -51 -31 -100.5t-58 -90.5t-87.5 -65t-119.5 -24zM221 116q20 0 39 16t33 42.5t20 56.5l-18 -5q-48 -12 -72 -25t-31.5 -26t-7.5 -26q0 -33 37 -33z" />
    <glyph glyph-name="uni025B" unicode="&#x25b;" horiz-adv-x="507" 
d="M228 -10q-100 0 -158 39t-58 113q0 56 37 96t117 53v4q-34 13 -55 39.5t-21 71.5q0 70 61 113.5t171 43.5q61 0 110.5 -12t92.5 -35l-61 -128q-30 19 -66 29t-64 10q-74 0 -74 -44q0 -18 17 -27t61 -9h61l-26 -122h-72q-47 0 -75 -12.5t-28 -38.5q0 -18 16.5 -31.5
t61.5 -13.5q46 0 82 12t68 28v-140q-76 -39 -198 -39z" />
    <glyph glyph-name="uni025C" unicode="&#x25c;" horiz-adv-x="517" 
d="M195 -10q-59 0 -107.5 10.5t-82.5 28.5v144q86 -44 176 -44q36 0 66.5 11t30.5 39q0 23 -19 35t-69 12h-62l25 120h64q96 0 96 43q0 19 -11.5 28.5t-40.5 9.5t-68 -9.5t-75 -26.5l-39 128q101 44 215 44q56 0 100.5 -14t70.5 -45t26 -82q0 -50 -29.5 -82t-88.5 -51l-1 -4
q44 -11 65.5 -41t21.5 -70q0 -80 -66.5 -132t-197.5 -52z" />
    <glyph glyph-name="uni025D" unicode="&#x25d;" horiz-adv-x="730" 
d="M195 -10q-59 0 -107.5 10.5t-82.5 28.5v144q86 -44 176 -44q36 0 66.5 11t30.5 39q0 23 -19 35t-69 12h-62l25 120h64q96 0 96 43q0 19 -11.5 28.5t-40.5 9.5t-68 -9.5t-75 -26.5l-39 128q101 44 215 44q72 0 124.5 -23.5t67.5 -77.5l128 36v-46q0 -50 9 -69.5t29 -19.5
q16 0 28.5 5.5t22.5 13.5l40 -92q-23 -18 -52.5 -30.5t-64.5 -12.5q-46 0 -77.5 27.5t-39.5 84.5l-41 -11q-28 -38 -95 -59l-1 -4q44 -11 65.5 -41t21.5 -70q0 -80 -66.5 -132t-197.5 -52z" />
    <glyph glyph-name="uni025E" unicode="&#x25e;" horiz-adv-x="590" 
d="M278 -11q-72 0 -127 22.5t-86 71.5t-31 127q0 66 18 129t56 113.5t98 80t144 29.5q213 0 213 -142q0 -52 -34.5 -84.5t-87.5 -47.5v-4q40 -10 63 -37t23 -77t-27.5 -91t-82.5 -65.5t-139 -24.5zM286 119q27 0 43.5 16t16.5 42q0 27 -20 38t-48 11h-11l24 119h16
q44 0 61 15t17 36q0 20 -14 29.5t-32 9.5q-38 0 -62.5 -24t-38 -61t-19 -76.5t-5.5 -69.5q0 -50 23 -67.5t49 -17.5z" />
    <glyph glyph-name="uni025F" unicode="&#x25f;" horiz-adv-x="298" 
d="M-36 -240q-23 0 -48 3t-44 9v145q15 -5 28.5 -7t25.5 -2q28 0 47 16t27 54l51 241h-68l25 117h68l46 217h178l-46 -217h67l-26 -117h-66l-56 -265q-11 -54 -35 -98t-66 -70t-108 -26z" />
    </font>
</defs>
</svg>
